LondrinaSolid-Regular.ufo
<glyph name="exclam" format="1">
  <advance width="217"/>
  <unicode hex="0021"/>
  <outline>
    <contour>
      <point x="51" y="1" type="line"/>
      <point x="48" y="1"/>
      <point x="48" y="27"/>
      <point x="50" y="64"/>
      <point x="54" y="104"/>
      <point x="54" y="118" type="qcurve"/>
      <point x="54" y="119" type="line"/>
      <point x="66" y="124"/>
      <point x="96" y="126"/>
      <point x="129" y="124"/>
      <point x="161" y="121"/>
      <point x="176" y="121" type="qcurve"/>
      <point x="175" y="93"/>
      <point x="173" y="30"/>
      <point x="173" y="1" type="qcurve"/>
      <point x="166" y="1" type="line"/>
      <point x="154" y="1"/>
      <point x="139" y="2"/>
      <point x="128" y="2" type="qcurve"/>
      <point x="126" y="2" type="line"/>
    </contour>
    <contour>
      <point x="51" y="702" type="line"/>
      <point x="77" y="704"/>
      <point x="146" y="712"/>
      <point x="174" y="704" type="qcurve"/>
      <point x="172" y="576"/>
      <point x="169" y="303"/>
      <point x="175" y="175" type="qcurve"/>
      <point x="149" y="172"/>
      <point x="75" y="171"/>
      <point x="46" y="170" type="qcurve"/>
      <point x="45" y="170" type="line"/>
      <point x="46" y="236"/>
      <point x="45" y="368"/>
      <point x="43" y="500"/>
      <point x="44" y="634"/>
      <point x="48" y="702" type="qcurve"/>
    </contour>
  </outline>
</glyph>
<glyph name="percent" format="1">
  <advance width="604"/>
  <unicode hex="0025"/>
  <outline>
    <contour>
      <point x="239" y="7" type="line"/>
      <point x="237" y="3"/>
      <point x="236" y="2" type="qcurve"/>
      <point x="230" y="1"/>
      <point x="215" y="0"/>
      <point x="188" y="0"/>
      <point x="145" y="0"/>
      <point x="111" y="-1" type="qcurve"/>
      <point x="110" y="-1" type="line"/>
      <point x="106" y="-1"/>
      <point x="112" y="25"/>
      <point x="123" y="57"/>
      <point x="135" y="86"/>
      <point x="136" y="90" type="qcurve"/>
      <point x="143" y="112"/>
      <point x="158" y="156"/>
      <point x="168" y="178" type="qcurve"/>
      <point x="170" y="185"/>
      <point x="177" y="207"/>
      <point x="196" y="261"/>
      <point x="232" y="357"/>
      <point x="262" y="438" type="qcurve"/>
      <point x="273" y="467"/>
      <point x="290" y="525"/>
      <point x="300" y="554" type="qcurve"/>
      <point x="301" y="556"/>
      <point x="311" y="584"/>
      <point x="326" y="627"/>
      <point x="342" y="681"/>
      <point x="349" y="709" type="qcurve"/>
      <point x="363" y="706"/>
      <point x="399" y="707"/>
      <point x="435" y="709"/>
      <point x="469" y="707"/>
      <point x="481" y="701" type="qcurve"/>
      <point x="479" y="696"/>
      <point x="477" y="689"/>
      <point x="475" y="683" type="qcurve"/>
      <point x="471" y="669"/>
      <point x="451" y="604"/>
      <point x="431" y="538" type="qcurve"/>
      <point x="421" y="510"/>
      <point x="401" y="455"/>
      <point x="392" y="428" type="qcurve"/>
      <point x="373" y="373"/>
      <point x="338" y="265"/>
      <point x="318" y="211" type="qcurve"/>
      <point x="313" y="196"/>
      <point x="302" y="166"/>
      <point x="296" y="151" type="qcurve"/>
    </contour>
    <contour>
      <point x="18" y="513" type="line"/>
      <point x="20" y="538" type="line"/>
      <point x="24" y="566"/>
      <point x="32" y="623"/>
      <point x="52" y="645" type="qcurve"/>
      <point x="66" y="662"/>
      <point x="103" y="682"/>
      <point x="126" y="683" type="qcurve"/>
      <point x="151" y="684"/>
      <point x="190" y="667"/>
      <point x="218" y="637"/>
      <point x="235" y="599"/>
      <point x="239" y="579" type="qcurve"/>
      <point x="241" y="563"/>
      <point x="244" y="535"/>
      <point x="243" y="521" type="qcurve"/>
      <point x="244" y="492"/>
      <point x="233" y="428"/>
      <point x="205" y="375"/>
      <point x="158" y="340"/>
      <point x="124" y="342" type="qcurve"/>
      <point x="99" y="343"/>
      <point x="76" y="355" type="qcurve"/>
      <point x="53" y="370"/>
      <point x="32" y="404"/>
      <point x="27" y="428" type="qcurve"/>
      <point x="25" y="444"/>
      <point x="21" y="473"/>
      <point x="19" y="487" type="qcurve"/>
      <point x="19" y="488" type="line"/>
    </contour>
    <contour>
      <point x="102" y="479" type="line"/>
      <point x="103" y="469"/>
      <point x="103" y="451"/>
      <point x="104" y="441" type="qcurve"/>
      <point x="104" y="429"/>
      <point x="125" y="418"/>
      <point x="136" y="422" type="qcurve"/>
      <point x="151" y="427"/>
      <point x="158" y="450"/>
      <point x="160" y="462" type="qcurve"/>
      <point x="160" y="465"/>
      <point x="161" y="470"/>
      <point x="161" y="473" type="qcurve"/>
      <point x="163" y="502"/>
      <point x="160" y="563"/>
      <point x="152" y="592" type="qcurve"/>
      <point x="151" y="594"/>
      <point x="150" y="595"/>
      <point x="149" y="597" type="qcurve"/>
      <point x="144" y="604"/>
      <point x="129" y="610"/>
      <point x="119" y="605" type="qcurve"/>
      <point x="110" y="602"/>
      <point x="103" y="592" type="qcurve"/>
      <point x="98" y="584"/>
      <point x="96" y="564"/>
      <point x="97" y="553" type="qcurve"/>
      <point x="97" y="552" type="line"/>
    </contour>
    <contour>
      <point x="361" y="196" type="line"/>
      <point x="363" y="221" type="line"/>
      <point x="367" y="249"/>
      <point x="375" y="306"/>
      <point x="395" y="328" type="qcurve"/>
      <point x="409" y="345"/>
      <point x="446" y="365"/>
      <point x="469" y="366" type="qcurve"/>
      <point x="494" y="367"/>
      <point x="533" y="350"/>
      <point x="561" y="320"/>
      <point x="578" y="282"/>
      <point x="582" y="262" type="qcurve"/>
      <point x="584" y="246"/>
      <point x="587" y="218"/>
      <point x="586" y="204" type="qcurve"/>
      <point x="587" y="175"/>
      <point x="576" y="111"/>
      <point x="548" y="58"/>
      <point x="501" y="23"/>
      <point x="467" y="25" type="qcurve"/>
      <point x="442" y="26"/>
      <point x="419" y="38" type="qcurve"/>
      <point x="396" y="53"/>
      <point x="375" y="87"/>
      <point x="370" y="111" type="qcurve"/>
      <point x="368" y="127"/>
      <point x="364" y="156"/>
      <point x="362" y="170" type="qcurve"/>
      <point x="362" y="171" type="line"/>
    </contour>
    <contour>
      <point x="445" y="162" type="line"/>
      <point x="446" y="152"/>
      <point x="446" y="134"/>
      <point x="447" y="124" type="qcurve"/>
      <point x="447" y="112"/>
      <point x="468" y="101"/>
      <point x="479" y="105" type="qcurve"/>
      <point x="494" y="110"/>
      <point x="501" y="133"/>
      <point x="503" y="145" type="qcurve"/>
      <point x="503" y="148"/>
      <point x="504" y="153"/>
      <point x="504" y="156" type="qcurve"/>
      <point x="506" y="185"/>
      <point x="503" y="246"/>
      <point x="495" y="275" type="qcurve"/>
      <point x="494" y="277"/>
      <point x="493" y="278"/>
      <point x="492" y="280" type="qcurve"/>
      <point x="487" y="287"/>
      <point x="472" y="293"/>
      <point x="462" y="288" type="qcurve"/>
      <point x="453" y="285"/>
      <point x="446" y="275" type="qcurve"/>
      <point x="441" y="267"/>
      <point x="439" y="247"/>
      <point x="440" y="236" type="qcurve"/>
      <point x="440" y="235" type="line"/>
    </contour>
  </outline>
</glyph>
<glyph name="ampersand" format="1">
  <advance width="565"/>
  <unicode hex="0026"/>
  <outline>
    <contour>
      <point x="552" y="29" type="line"/>
      <point x="549" y="18"/>
      <point x="533" y="6"/>
      <point x="512" y="0"/>
      <point x="488" y="-1"/>
      <point x="476" y="-1" type="qcurve"/>
      <point x="471" y="-1" type="line"/>
      <point x="453" y="-1"/>
      <point x="425" y="1"/>
      <point x="401" y="9"/>
      <point x="377" y="24"/>
      <point x="362" y="38" type="qcurve"/>
      <point x="332" y="18"/>
      <point x="258" y="1"/>
      <point x="219" y="-1" type="qcurve"/>
      <point x="169" y="-1"/>
      <point x="94" y="38"/>
      <point x="44" y="101"/>
      <point x="18" y="180"/>
      <point x="18" y="220" type="qcurve"/>
      <point x="18" y="247"/>
      <point x="35" y="299"/>
      <point x="63" y="348"/>
      <point x="99" y="392"/>
      <point x="118" y="410" type="qcurve"/>
      <point x="106" y="426"/>
      <point x="79" y="466"/>
      <point x="56" y="510"/>
      <point x="41" y="557"/>
      <point x="41" y="580" type="qcurve"/>
      <point x="41" y="612"/>
      <point x="74" y="667"/>
      <point x="129" y="708"/>
      <point x="198" y="731"/>
      <point x="234" y="731" type="qcurve"/>
      <point x="272" y="731"/>
      <point x="336" y="706"/>
      <point x="381" y="664"/>
      <point x="406" y="609"/>
      <point x="406" y="579" type="qcurve"/>
      <point x="406" y="542"/>
      <point x="372" y="481"/>
      <point x="353" y="452" type="qcurve"/>
      <point x="347" y="443"/>
      <point x="335" y="426"/>
      <point x="330" y="417" type="qcurve"/>
      <point x="323" y="406"/>
      <point x="323" y="404" type="qcurve"/>
      <point x="323" y="401"/>
      <point x="322" y="388"/>
      <point x="328" y="363"/>
      <point x="346" y="327"/>
      <point x="365" y="302" type="qcurve"/>
      <point x="370" y="310"/>
      <point x="375" y="331"/>
      <point x="375" y="342" type="qcurve"/>
      <point x="377" y="361"/>
      <point x="401" y="388"/>
      <point x="433" y="388" type="qcurve"/>
      <point x="504" y="388" type="line"/>
      <point x="521" y="388"/>
      <point x="541" y="374"/>
      <point x="541" y="351" type="qcurve"/>
      <point x="541" y="319"/>
      <point x="523" y="270"/>
      <point x="512" y="244" type="qcurve"/>
      <point x="512" y="245" type="line"/>
      <point x="510" y="240"/>
      <point x="506" y="231"/>
      <point x="504" y="224" type="qcurve"/>
      <point x="502" y="221"/>
      <point x="497" y="210"/>
      <point x="494" y="205" type="qcurve"/>
      <point x="489" y="194"/>
      <point x="477" y="170"/>
      <point x="477" y="165" type="qcurve"/>
      <point x="477" y="159"/>
      <point x="494" y="140"/>
      <point x="503" y="128" type="qcurve"/>
      <point x="503" y="129" type="line"/>
      <point x="517" y="111"/>
      <point x="548" y="69"/>
      <point x="553" y="43" type="qcurve"/>
      <point x="553" y="34" type="line"/>
    </contour>
    <contour>
      <point x="234" y="618" type="qcurve"/>
      <point x="214" y="618"/>
      <point x="191" y="597"/>
      <point x="191" y="577" type="qcurve"/>
      <point x="191" y="567"/>
      <point x="197" y="541"/>
      <point x="206" y="517"/>
      <point x="217" y="501"/>
      <point x="222" y="502" type="qcurve"/>
      <point x="222" y="501" type="line"/>
      <point x="240" y="504"/>
      <point x="254" y="561"/>
      <point x="254" y="597" type="qcurve"/>
      <point x="254" y="606"/>
      <point x="245" y="618"/>
    </contour>
    <contour>
      <point x="262" y="142" type="qcurve"/>
      <point x="268" y="144"/>
      <point x="287" y="153"/>
      <point x="287" y="154" type="qcurve"/>
      <point x="287" y="158"/>
      <point x="291" y="183"/>
      <point x="293" y="215"/>
      <point x="288" y="250"/>
      <point x="270" y="276"/>
      <point x="236" y="291"/>
      <point x="208" y="287" type="qcurve"/>
      <point x="199" y="286"/>
      <point x="183" y="267"/>
      <point x="172" y="241"/>
      <point x="168" y="212"/>
      <point x="170" y="200" type="qcurve"/>
      <point x="171" y="190"/>
      <point x="178" y="168"/>
      <point x="193" y="150"/>
      <point x="217" y="139"/>
      <point x="235" y="139" type="qcurve"/>
      <point x="243" y="139"/>
      <point x="257" y="141"/>
    </contour>
  </outline>
</glyph>
<glyph name="quotesingle" format="1">
  <advance width="185"/>
  <unicode hex="0027"/>
  <outline>
    <contour>
      <point x="40" y="704" type="line"/>
      <point x="44" y="704"/>
      <point x="77" y="708"/>
      <point x="115" y="711"/>
      <point x="146" y="710"/>
      <point x="148" y="706" type="qcurve"/>
      <point x="148" y="689"/>
      <point x="149" y="614"/>
      <point x="150" y="533"/>
      <point x="150" y="467"/>
      <point x="150" y="460" type="qcurve"/>
      <point x="150" y="460"/>
      <point x="123" y="460"/>
      <point x="85" y="459"/>
      <point x="47" y="459"/>
      <point x="37" y="459" type="qcurve"/>
      <point x="37" y="460" type="line"/>
      <point x="37" y="505"/>
      <point x="35" y="566"/>
      <point x="35" y="617"/>
      <point x="37" y="667"/>
      <point x="39" y="702" type="qcurve"/>
      <point x="39" y="704" type="line"/>
    </contour>
  </outline>
</glyph>
<glyph name="parenleft" format="1">
  <advance width="314"/>
  <unicode hex="0028"/>
  <outline>
    <contour>
      <point x="108" y="41" type="qcurve"/>
      <point x="86" y="58"/>
      <point x="70" y="80" type="qcurve"/>
      <point x="69" y="81"/>
      <point x="66" y="87" type="qcurve"/>
      <point x="47" y="121"/>
      <point x="34" y="177"/>
      <point x="32" y="203" type="qcurve"/>
      <point x="34" y="256"/>
      <point x="39" y="369"/>
      <point x="38" y="420" type="qcurve"/>
      <point x="38" y="444" type="line"/>
      <point x="39" y="466"/>
      <point x="38" y="512"/>
      <point x="41" y="557"/>
      <point x="50" y="601"/>
      <point x="62" y="621" type="qcurve"/>
      <point x="87" y="669"/>
      <point x="167" y="710"/>
      <point x="212" y="711" type="qcurve"/>
      <point x="229" y="710"/>
      <point x="268" y="707"/>
      <point x="285" y="705" type="qcurve"/>
      <point x="286" y="704" type="line"/>
      <point x="290" y="673"/>
      <point x="287" y="610"/>
      <point x="286" y="581" type="qcurve"/>
      <point x="272" y="577"/>
      <point x="242" y="564"/>
      <point x="216" y="544"/>
      <point x="197" y="517"/>
      <point x="194" y="501" type="qcurve"/>
      <point x="192" y="494"/>
      <point x="189" y="482"/>
      <point x="188" y="475" type="qcurve"/>
      <point x="183" y="450"/>
      <point x="178" y="403"/>
      <point x="176" y="380" type="qcurve"/>
      <point x="177" y="337"/>
      <point x="174" y="245"/>
      <point x="186" y="203" type="qcurve"/>
      <point x="200" y="171"/>
      <point x="259" y="130"/>
      <point x="289" y="129" type="qcurve"/>
      <point x="290" y="129" type="line"/>
      <point x="290" y="124" type="line"/>
      <point x="288" y="98"/>
      <point x="289" y="34"/>
      <point x="287" y="9" type="qcurve"/>
      <point x="281" y="1"/>
      <point x="256" y="0"/>
      <point x="245" y="0" type="qcurve"/>
      <point x="228" y="0" type="line"/>
      <point x="196" y="1"/>
      <point x="163" y="11" type="qcurve"/>
      <point x="134" y="21"/>
    </contour>
  </outline>
</glyph>
<glyph name="parenright" format="1">
  <advance width="313"/>
  <unicode hex="0029"/>
  <outline>
    <contour>
      <point x="206" y="41" type="qcurve"/>
      <point x="180" y="21"/>
      <point x="151" y="11" type="qcurve"/>
      <point x="118" y="1"/>
      <point x="86" y="0" type="qcurve"/>
      <point x="69" y="0" type="line"/>
      <point x="58" y="0"/>
      <point x="33" y="1"/>
      <point x="27" y="9" type="qcurve"/>
      <point x="25" y="34"/>
      <point x="26" y="98"/>
      <point x="24" y="124" type="qcurve"/>
      <point x="24" y="129" type="line"/>
      <point x="25" y="129" type="line"/>
      <point x="55" y="130"/>
      <point x="114" y="171"/>
      <point x="128" y="203" type="qcurve"/>
      <point x="140" y="245"/>
      <point x="137" y="337"/>
      <point x="138" y="380" type="qcurve"/>
      <point x="136" y="403"/>
      <point x="131" y="450"/>
      <point x="126" y="475" type="qcurve"/>
      <point x="125" y="482"/>
      <point x="122" y="494"/>
      <point x="120" y="501" type="qcurve"/>
      <point x="117" y="517"/>
      <point x="98" y="544"/>
      <point x="72" y="564"/>
      <point x="42" y="577"/>
      <point x="28" y="581" type="qcurve"/>
      <point x="27" y="610"/>
      <point x="24" y="673"/>
      <point x="28" y="704" type="qcurve"/>
      <point x="29" y="705" type="line"/>
      <point x="46" y="707"/>
      <point x="85" y="710"/>
      <point x="102" y="711" type="qcurve"/>
      <point x="147" y="710"/>
      <point x="227" y="669"/>
      <point x="252" y="621" type="qcurve"/>
      <point x="264" y="601"/>
      <point x="273" y="557"/>
      <point x="276" y="512"/>
      <point x="275" y="466"/>
      <point x="276" y="444" type="qcurve"/>
      <point x="276" y="420" type="line"/>
      <point x="275" y="369"/>
      <point x="280" y="256"/>
      <point x="282" y="203" type="qcurve"/>
      <point x="280" y="177"/>
      <point x="267" y="121"/>
      <point x="248" y="87" type="qcurve"/>
      <point x="245" y="81"/>
      <point x="244" y="80" type="qcurve"/>
      <point x="228" y="58"/>
    </contour>
  </outline>
</glyph>
<glyph name="comma" format="1">
  <advance width="188"/>
  <unicode hex="002C"/>
  <outline>
    <contour>
      <point x="138" y="-61" type="line"/>
      <point x="136" y="-71"/>
      <point x="132" y="-90"/>
      <point x="130" y="-100" type="qcurve"/>
      <point x="125" y="-98"/>
      <point x="90" y="-99"/>
      <point x="61" y="-98" type="qcurve"/>
      <point x="59" y="-96"/>
      <point x="64" y="-76"/>
      <point x="72" y="-47"/>
      <point x="79" y="-15"/>
      <point x="81" y="-1" type="qcurve"/>
      <point x="34" y="3" type="line"/>
      <point x="32" y="3"/>
      <point x="31" y="4" type="qcurve"/>
      <point x="31" y="5"/>
      <point x="31" y="11"/>
      <point x="32" y="33"/>
      <point x="33" y="78"/>
      <point x="35" y="119" type="qcurve"/>
      <point x="35" y="120" type="line"/>
      <point x="36" y="120" type="line"/>
      <point x="62" y="128"/>
      <point x="121" y="121"/>
      <point x="156" y="119" type="qcurve"/>
      <point x="157" y="119" type="line"/>
      <point x="153" y="4" type="line"/>
      <point x="151" y="4" type="line"/>
      <point x="151" y="3"/>
      <point x="150" y="2"/>
      <point x="150" y="1" type="qcurve"/>
      <point x="150" y="-3"/>
      <point x="147" y="-16"/>
      <point x="146" y="-21" type="qcurve"/>
    </contour>
  </outline>
</glyph>
<glyph name="hyphen" format="1">
  <advance width="521"/>
  <unicode hex="002D"/>
  <outline>
    <contour>
      <point x="36" y="202" type="qcurve"/>
      <point x="36" y="214"/>
      <point x="37" y="264"/>
      <point x="38" y="317"/>
      <point x="39" y="359"/>
      <point x="39" y="362" type="qcurve"/>
      <point x="40" y="362"/>
      <point x="100" y="362"/>
      <point x="191" y="362"/>
      <point x="299" y="362"/>
      <point x="396" y="362"/>
      <point x="470" y="362"/>
      <point x="482" y="362" type="qcurve"/>
      <point x="483" y="320"/>
      <point x="478" y="236"/>
      <point x="485" y="195" type="qcurve"/>
      <point x="484" y="195" type="line"/>
      <point x="479" y="195"/>
      <point x="411" y="195"/>
      <point x="315" y="197"/>
      <point x="205" y="199"/>
      <point x="109" y="200"/>
      <point x="41" y="202"/>
    </contour>
  </outline>
</glyph>
<glyph name="period" format="1">
  <advance width="189"/>
  <unicode hex="002E"/>
  <outline>
    <contour>
      <point x="37" y="1" type="line"/>
      <point x="34" y="1" type="line"/>
      <point x="32" y="12"/>
      <point x="31" y="46"/>
      <point x="32" y="80"/>
      <point x="33" y="110"/>
      <point x="33" y="117" type="qcurve"/>
      <point x="43" y="121"/>
      <point x="80" y="125"/>
      <point x="118" y="125"/>
      <point x="151" y="122"/>
      <point x="158" y="119" type="qcurve"/>
      <point x="158" y="118"/>
      <point x="156" y="87"/>
      <point x="154" y="47"/>
      <point x="152" y="9"/>
      <point x="152" y="2" type="qcurve"/>
      <point x="152" y="1" type="line"/>
      <point x="152" y="0" type="line"/>
      <point x="150" y="0" type="line"/>
    </contour>
  </outline>
</glyph>
<glyph name="zero" format="1">
  <advance width="513"/>
  <unicode hex="0030"/>
  <outline>
    <contour>
      <point x="82" y="618" type="qcurve"/>
      <point x="86" y="625"/>
      <point x="92" y="631" type="qcurve"/>
      <point x="122" y="665"/>
      <point x="196" y="708"/>
      <point x="247" y="710" type="qcurve"/>
      <point x="298" y="712"/>
      <point x="378" y="676"/>
      <point x="436" y="615"/>
      <point x="472" y="535"/>
      <point x="480" y="493" type="qcurve"/>
      <point x="485" y="461"/>
      <point x="490" y="402"/>
      <point x="488" y="373" type="qcurve"/>
      <point x="490" y="334"/>
      <point x="482" y="247"/>
      <point x="459" y="162"/>
      <point x="420" y="87"/>
      <point x="365" y="30"/>
      <point x="291" y="-1"/>
      <point x="244" y="2" type="qcurve"/>
      <point x="204" y="4"/>
      <point x="174" y="15" type="qcurve"/>
      <point x="123" y="34"/>
      <point x="67" y="99"/>
      <point x="40" y="180"/>
      <point x="33" y="270"/>
      <point x="32" y="315" type="qcurve"/>
      <point x="30" y="353"/>
      <point x="28" y="432"/>
      <point x="37" y="510"/>
      <point x="60" y="584"/>
    </contour>
    <contour>
      <point x="231" y="169" type="qcurve"/>
      <point x="240" y="166"/>
      <point x="260" y="164"/>
      <point x="268" y="167" type="qcurve"/>
      <point x="288" y="173"/>
      <point x="304" y="199"/>
      <point x="309" y="215" type="qcurve"/>
      <point x="317" y="240"/>
      <point x="319" y="286"/>
      <point x="321" y="312" type="qcurve"/>
      <point x="322" y="338"/>
      <point x="323" y="401"/>
      <point x="318" y="462"/>
      <point x="305" y="515"/>
      <point x="293" y="532" type="qcurve"/>
      <point x="271" y="561"/>
      <point x="232" y="548" type="qcurve"/>
      <point x="222" y="546"/>
      <point x="203" y="530"/>
      <point x="198" y="521" type="qcurve"/>
      <point x="193" y="513"/>
      <point x="186" y="473"/>
      <point x="183" y="448" type="qcurve"/>
      <point x="178" y="385"/>
      <point x="178" y="283"/>
      <point x="192" y="230" type="qcurve"/>
      <point x="195" y="221"/>
      <point x="199" y="202"/>
      <point x="207" y="184"/>
      <point x="220" y="171"/>
    </contour>
  </outline>
</glyph>
<glyph name="one" format="1">
  <advance width="366"/>
  <unicode hex="0031"/>
  <outline>
    <contour>
      <point x="314" y="18" type="qcurve"/>
      <point x="314" y="12"/>
      <point x="302" y="5"/>
      <point x="284" y="1"/>
      <point x="262" y="0"/>
      <point x="253" y="0" type="qcurve"/>
      <point x="228" y="0"/>
      <point x="175" y="5"/>
      <point x="155" y="7" type="qcurve"/>
      <point x="155" y="8" type="line"/>
      <point x="155" y="105" type="line"/>
      <point x="155" y="202"/>
      <point x="167" y="392"/>
      <point x="167" y="489" type="qcurve"/>
      <point x="167" y="494"/>
      <point x="167" y="502"/>
      <point x="166" y="507" type="qcurve"/>
      <point x="161" y="508"/>
      <point x="153" y="491"/>
      <point x="143" y="470"/>
      <point x="131" y="452"/>
      <point x="123" y="452" type="qcurve"/>
      <point x="118" y="452"/>
      <point x="80" y="460"/>
      <point x="36" y="472"/>
      <point x="2" y="484"/>
      <point x="2" y="489" type="qcurve"/>
      <point x="3" y="501"/>
      <point x="21" y="541"/>
      <point x="46" y="589"/>
      <point x="76" y="639"/>
      <point x="102" y="681"/>
      <point x="121" y="710"/>
      <point x="123" y="712" type="qcurve"/>
      <point x="146" y="713"/>
      <point x="191" y="714"/>
      <point x="214" y="714" type="qcurve"/>
      <point x="240" y="714"/>
      <point x="292" y="712"/>
      <point x="319" y="710" type="qcurve"/>
      <point x="322" y="667"/>
      <point x="324" y="584"/>
      <point x="324" y="542" type="qcurve"/>
      <point x="324" y="427"/>
      <point x="313" y="203"/>
      <point x="313" y="88" type="qcurve"/>
      <point x="313" y="71"/>
      <point x="313" y="35"/>
    </contour>
  </outline>
</glyph>
<glyph name="two" format="1">
  <advance width="498"/>
  <unicode hex="0032"/>
  <outline>
    <contour>
      <point x="76" y="-1" type="line"/>
      <point x="31" y="-1" type="line"/>
      <point x="30" y="0"/>
      <point x="30" y="2" type="qcurve"/>
      <point x="33" y="36"/>
      <point x="32" y="102"/>
      <point x="36" y="165"/>
      <point x="49" y="224"/>
      <point x="65" y="250" type="qcurve"/>
      <point x="89" y="277"/>
      <point x="142" y="316"/>
      <point x="197" y="350"/>
      <point x="252" y="382"/>
      <point x="278" y="403" type="qcurve"/>
      <point x="298" y="416"/>
      <point x="315" y="462"/>
      <point x="311" y="508"/>
      <point x="284" y="543"/>
      <point x="261" y="546" type="qcurve"/>
      <point x="237" y="546"/>
      <point x="208" y="522"/>
      <point x="193" y="485"/>
      <point x="188" y="443"/>
      <point x="187" y="425" type="qcurve"/>
      <point x="187" y="423" type="line"/>
      <point x="186" y="423" type="line"/>
      <point x="141" y="418"/>
      <point x="72" y="414"/>
      <point x="38" y="418" type="qcurve"/>
      <point x="37" y="418" type="line"/>
      <point x="37" y="420" type="line"/>
      <point x="25" y="489"/>
      <point x="50" y="610"/>
      <point x="87" y="651" type="qcurve"/>
      <point x="107" y="677"/>
      <point x="181" y="705"/>
      <point x="265" y="713"/>
      <point x="346" y="704"/>
      <point x="373" y="693" type="qcurve"/>
      <point x="418" y="670"/>
      <point x="466" y="580"/>
      <point x="471" y="526" type="qcurve"/>
      <point x="472" y="505"/>
      <point x="474" y="456"/>
      <point x="473" y="436" type="qcurve"/>
      <point x="470" y="399"/>
      <point x="439" y="348"/>
      <point x="394" y="310"/>
      <point x="339" y="282"/>
      <point x="284" y="254"/>
      <point x="233" y="223"/>
      <point x="215" y="201" type="qcurve"/>
      <point x="213" y="196"/>
      <point x="206" y="178"/>
      <point x="201" y="160"/>
      <point x="200" y="145"/>
      <point x="204" y="143" type="qcurve"/>
      <point x="271" y="141"/>
      <point x="386" y="145"/>
      <point x="451" y="145" type="qcurve"/>
      <point x="459" y="125"/>
      <point x="459" y="74"/>
      <point x="458" y="49" type="qcurve"/>
      <point x="458" y="38"/>
      <point x="457" y="16"/>
      <point x="460" y="5" type="qcurve"/>
      <point x="460" y="4"/>
      <point x="456" y="4" type="qcurve"/>
    </contour>
  </outline>
</glyph>
<glyph name="three" format="1">
  <advance width="492"/>
  <unicode hex="0033"/>
  <outline>
    <contour>
      <point x="70" y="44" type="qcurve"/>
      <point x="56" y="58"/>
      <point x="39" y="95"/>
      <point x="37" y="115" type="qcurve"/>
      <point x="33" y="138"/>
      <point x="32" y="187"/>
      <point x="28" y="218" type="qcurve"/>
      <point x="28" y="219"/>
      <point x="29" y="219" type="qcurve"/>
      <point x="30" y="219" type="line"/>
      <point x="60" y="217"/>
      <point x="123" y="230"/>
      <point x="160" y="228" type="qcurve"/>
      <point x="161" y="228" type="line"/>
      <point x="162" y="227" type="line"/>
      <point x="168" y="209"/>
      <point x="200" y="177"/>
      <point x="240" y="162"/>
      <point x="281" y="168"/>
      <point x="296" y="189" type="qcurve"/>
      <point x="308" y="209"/>
      <point x="301" y="260"/>
      <point x="280" y="276" type="qcurve"/>
      <point x="258" y="292"/>
      <point x="195" y="294"/>
      <point x="170" y="289" type="qcurve"/>
      <point x="164" y="302"/>
      <point x="162" y="338"/>
      <point x="164" y="376"/>
      <point x="167" y="413"/>
      <point x="165" y="427" type="qcurve"/>
      <point x="165" y="428" type="line"/>
      <point x="182" y="434"/>
      <point x="231" y="433"/>
      <point x="276" y="439"/>
      <point x="306" y="463"/>
      <point x="304" y="495" type="qcurve"/>
      <point x="303" y="529"/>
      <point x="264" y="551"/>
      <point x="214" y="543"/>
      <point x="168" y="510"/>
      <point x="160" y="489" type="qcurve"/>
      <point x="152" y="488"/>
      <point x="110" y="488"/>
      <point x="65" y="488"/>
      <point x="30" y="487"/>
      <point x="28" y="487" type="qcurve"/>
      <point x="28" y="489" type="line"/>
      <point x="28" y="509"/>
      <point x="24" y="560"/>
      <point x="32" y="582" type="qcurve"/>
      <point x="44" y="622"/>
      <point x="105" y="676"/>
      <point x="184" y="706"/>
      <point x="273" y="711"/>
      <point x="356" y="693"/>
      <point x="423" y="653"/>
      <point x="440" y="623" type="qcurve"/>
      <point x="450" y="607"/>
      <point x="455" y="570"/>
      <point x="454" y="551" type="qcurve"/>
      <point x="456" y="466"/>
      <point x="455" y="301"/>
      <point x="452" y="220" type="qcurve"/>
      <point x="450" y="191"/>
      <point x="448" y="131"/>
      <point x="435" y="104" type="qcurve"/>
      <point x="421" y="71"/>
      <point x="372" y="23"/>
      <point x="335" y="11" type="qcurve"/>
      <point x="298" y="0"/>
      <point x="210" y="-1"/>
      <point x="172" y="4" type="qcurve"/>
      <point x="158" y="6"/>
      <point x="131" y="14"/>
      <point x="117" y="18" type="qcurve"/>
      <point x="96" y="24"/>
      <point x="72" y="42"/>
    </contour>
  </outline>
</glyph>
<glyph name="seven" format="1">
  <advance width="476"/>
  <unicode hex="0037"/>
  <outline>
    <contour>
      <point x="22" y="570" type="line"/>
      <point x="26" y="603"/>
      <point x="26" y="676"/>
      <point x="27" y="706" type="qcurve"/>
      <point x="27" y="707" type="line"/>
      <point x="79" y="708"/>
      <point x="191" y="712"/>
      <point x="304" y="713"/>
      <point x="413" y="710"/>
      <point x="462" y="705" type="qcurve"/>
      <point x="462" y="704" type="line"/>
      <point x="460" y="665"/>
      <point x="463" y="604"/>
      <point x="463" y="565" type="qcurve"/>
      <point x="433" y="496"/>
      <point x="360" y="357"/>
      <point x="282" y="218"/>
      <point x="204" y="78"/>
      <point x="168" y="7" type="qcurve"/>
      <point x="153" y="7"/>
      <point x="113" y="4"/>
      <point x="71" y="2"/>
      <point x="31" y="3"/>
      <point x="16" y="7" type="qcurve"/>
      <point x="84" y="153"/>
      <point x="219" y="425"/>
      <point x="279" y="561" type="qcurve"/>
      <point x="250" y="563"/>
      <point x="182" y="567"/>
      <point x="114" y="570"/>
      <point x="49" y="571"/>
      <point x="24" y="570" type="qcurve"/>
    </contour>
  </outline>
</glyph>
<glyph name="eight" format="1">
  <advance width="490"/>
  <unicode hex="0038"/>
  <outline>
    <contour>
      <point x="463" y="513" type="line"/>
      <point x="463" y="495" type="line"/>
      <point x="463" y="487"/>
      <point x="461" y="471"/>
      <point x="459" y="464" type="qcurve"/>
      <point x="451" y="428"/>
      <point x="418" y="372"/>
      <point x="386" y="346" type="qcurve"/>
      <point x="386" y="345" type="line"/>
      <point x="423" y="318"/>
      <point x="459" y="240"/>
      <point x="462" y="156"/>
      <point x="433" y="75"/>
      <point x="406" y="45" type="qcurve"/>
      <point x="389" y="25"/>
      <point x="335" y="-1"/>
      <point x="271" y="-13"/>
      <point x="202" y="-11"/>
      <point x="138" y="5"/>
      <point x="86" y="35"/>
      <point x="70" y="57" type="qcurve"/>
      <point x="46" y="87"/>
      <point x="23" y="164"/>
      <point x="26" y="245"/>
      <point x="56" y="322"/>
      <point x="87" y="352" type="qcurve"/>
      <point x="61" y="379"/>
      <point x="34" y="451"/>
      <point x="32" y="529"/>
      <point x="53" y="605"/>
      <point x="96" y="667"/>
      <point x="159" y="706"/>
      <point x="200" y="708" type="qcurve"/>
      <point x="235" y="709"/>
      <point x="289" y="709"/>
      <point x="332" y="705"/>
      <point x="366" y="695"/>
      <point x="383" y="685" type="qcurve"/>
      <point x="390" y="680"/>
      <point x="402" y="672"/>
      <point x="413" y="661"/>
      <point x="427" y="644"/>
      <point x="436" y="630" type="qcurve"/>
      <point x="439" y="625"/>
      <point x="449" y="601"/>
      <point x="451" y="592" type="qcurve"/>
      <point x="455" y="576"/>
      <point x="459" y="555"/>
      <point x="461" y="541" type="qcurve"/>
      <point x="462" y="536"/>
      <point x="463" y="528"/>
      <point x="463" y="523" type="qcurve"/>
      <point x="463" y="519" type="line"/>
    </contour>
    <contour>
      <point x="196" y="507" type="qcurve"/>
      <point x="195" y="507"/>
      <point x="195" y="506" type="qcurve"/>
      <point x="195" y="504" type="line"/>
      <point x="194" y="494"/>
      <point x="198" y="471"/>
      <point x="209" y="451"/>
      <point x="228" y="438"/>
      <point x="242" y="437" type="qcurve"/>
      <point x="266" y="435"/>
      <point x="292" y="469"/>
      <point x="290" y="508"/>
      <point x="259" y="537"/>
      <point x="227" y="529" type="qcurve"/>
      <point x="225" y="528"/>
      <point x="222" y="528"/>
      <point x="219" y="526" type="qcurve"/>
      <point x="214" y="524"/>
      <point x="210" y="520"/>
      <point x="207" y="518" type="qcurve"/>
      <point x="205" y="516"/>
      <point x="197" y="509"/>
    </contour>
    <contour>
      <point x="301" y="213" type="qcurve"/>
      <point x="301" y="214"/>
      <point x="302" y="217"/>
      <point x="302" y="219" type="qcurve"/>
      <point x="302" y="221"/>
      <point x="302" y="228"/>
      <point x="301" y="230" type="qcurve"/>
      <point x="299" y="238"/>
      <point x="291" y="255"/>
      <point x="284" y="260" type="qcurve"/>
      <point x="273" y="270"/>
      <point x="240" y="280"/>
      <point x="223" y="276" type="qcurve"/>
      <point x="209" y="271"/>
      <point x="189" y="244"/>
      <point x="184" y="213"/>
      <point x="195" y="185"/>
      <point x="212" y="178" type="qcurve"/>
      <point x="225" y="173"/>
      <point x="256" y="173"/>
      <point x="269" y="175" type="qcurve"/>
      <point x="279" y="178"/>
      <point x="284" y="182" type="qcurve"/>
      <point x="289" y="185"/>
      <point x="294" y="195"/>
      <point x="297" y="200" type="qcurve"/>
      <point x="299" y="203"/>
      <point x="300" y="211"/>
    </contour>
  </outline>
</glyph>
<glyph name="colon" format="1">
  <advance width="205"/>
  <unicode hex="003A"/>
  <outline>
    <contour>
      <point x="45" y="1" type="line"/>
      <point x="42" y="1" type="line"/>
      <point x="40" y="12"/>
      <point x="39" y="46"/>
      <point x="40" y="80"/>
      <point x="41" y="110"/>
      <point x="41" y="117" type="qcurve"/>
      <point x="51" y="121"/>
      <point x="88" y="125"/>
      <point x="126" y="125"/>
      <point x="159" y="122"/>
      <point x="166" y="119" type="qcurve"/>
      <point x="166" y="118"/>
      <point x="164" y="87"/>
      <point x="162" y="47"/>
      <point x="160" y="9"/>
      <point x="160" y="2" type="qcurve"/>
      <point x="160" y="1" type="line"/>
      <point x="160" y="0" type="line"/>
      <point x="158" y="0" type="line"/>
    </contour>
    <contour>
      <point x="45" y="337" type="line"/>
      <point x="42" y="337" type="line"/>
      <point x="40" y="348"/>
      <point x="39" y="382"/>
      <point x="40" y="416"/>
      <point x="41" y="446"/>
      <point x="41" y="453" type="qcurve"/>
      <point x="51" y="457"/>
      <point x="88" y="461"/>
      <point x="126" y="461"/>
      <point x="159" y="458"/>
      <point x="166" y="455" type="qcurve"/>
      <point x="166" y="454"/>
      <point x="164" y="423"/>
      <point x="162" y="383"/>
      <point x="160" y="345"/>
      <point x="160" y="338" type="qcurve"/>
      <point x="160" y="337" type="line"/>
      <point x="160" y="336" type="line"/>
      <point x="158" y="336" type="line"/>
    </contour>
  </outline>
</glyph>
<glyph name="semicolon" format="1">
  <advance width="205"/>
  <unicode hex="003B"/>
  <outline>
    <contour>
      <point x="45" y="337" type="line"/>
      <point x="42" y="337" type="line"/>
      <point x="40" y="348"/>
      <point x="39" y="382"/>
      <point x="40" y="416"/>
      <point x="41" y="446"/>
      <point x="41" y="453" type="qcurve"/>
      <point x="51" y="457"/>
      <point x="88" y="461"/>
      <point x="126" y="461"/>
      <point x="159" y="458"/>
      <point x="166" y="455" type="qcurve"/>
      <point x="166" y="454"/>
      <point x="164" y="423"/>
      <point x="162" y="383"/>
      <point x="160" y="345"/>
      <point x="160" y="338" type="qcurve"/>
      <point x="160" y="337" type="line"/>
      <point x="160" y="336" type="line"/>
      <point x="158" y="336" type="line"/>
    </contour>
    <contour>
      <point x="147" y="-61" type="line"/>
      <point x="145" y="-71"/>
      <point x="141" y="-90"/>
      <point x="139" y="-100" type="qcurve"/>
      <point x="134" y="-98"/>
      <point x="99" y="-99"/>
      <point x="70" y="-98" type="qcurve"/>
      <point x="68" y="-96"/>
      <point x="73" y="-76"/>
      <point x="81" y="-47"/>
      <point x="88" y="-15"/>
      <point x="90" y="-1" type="qcurve"/>
      <point x="43" y="3" type="line"/>
      <point x="41" y="3"/>
      <point x="40" y="4" type="qcurve"/>
      <point x="40" y="5"/>
      <point x="40" y="11"/>
      <point x="41" y="33"/>
      <point x="42" y="78"/>
      <point x="44" y="119" type="qcurve"/>
      <point x="44" y="120" type="line"/>
      <point x="45" y="120" type="line"/>
      <point x="71" y="128"/>
      <point x="130" y="121"/>
      <point x="165" y="119" type="qcurve"/>
      <point x="166" y="119" type="line"/>
      <point x="162" y="4" type="line"/>
      <point x="160" y="4" type="line"/>
      <point x="160" y="3"/>
      <point x="159" y="2"/>
      <point x="159" y="1" type="qcurve"/>
      <point x="159" y="-3"/>
      <point x="156" y="-16"/>
      <point x="155" y="-21" type="qcurve"/>
    </contour>
  </outline>
</glyph>
<glyph name="less" format="1">
  <advance width="363"/>
  <unicode hex="003C"/>
  <outline>
    <contour>
      <point x="332" y="83" type="line"/>
      <point x="316" y="67" type="line"/>
      <point x="314" y="65"/>
      <point x="308" y="59"/>
      <point x="298" y="49"/>
      <point x="280" y="32"/>
      <point x="265" y="19" type="qcurve"/>
      <point x="264" y="20" type="line"/>
      <point x="234" y="51"/>
      <point x="169" y="108"/>
      <point x="105" y="168"/>
      <point x="41" y="232"/>
      <point x="13" y="270" type="qcurve"/>
      <point x="32" y="294"/>
      <point x="78" y="343"/>
      <point x="128" y="394"/>
      <point x="178" y="445"/>
      <point x="201" y="469" type="qcurve"/>
      <point x="216" y="485"/>
      <point x="244" y="514"/>
      <point x="258" y="528" type="qcurve"/>
      <point x="267" y="523"/>
      <point x="285" y="504"/>
      <point x="305" y="484"/>
      <point x="325" y="465"/>
      <point x="334" y="459" type="qcurve"/>
      <point x="319" y="440"/>
      <point x="275" y="394"/>
      <point x="226" y="343"/>
      <point x="177" y="291"/>
      <point x="158" y="267" type="qcurve"/>
      <point x="205" y="226"/>
      <point x="295" y="132"/>
      <point x="343" y="93" type="qcurve"/>
    </contour>
  </outline>
</glyph>
<glyph name="question" format="1">
  <advance width="451"/>
  <unicode hex="003F"/>
  <outline>
    <contour>
      <point x="144" y="237" type="line"/>
      <point x="149" y="269"/>
      <point x="164" y="328"/>
      <point x="183" y="356" type="qcurve"/>
      <point x="194" y="377"/>
      <point x="239" y="434"/>
      <point x="271" y="490"/>
      <point x="269" y="538"/>
      <point x="233" y="551" type="qcurve"/>
      <point x="210" y="561"/>
      <point x="185" y="550"/>
      <point x="167" y="527"/>
      <point x="151" y="501"/>
      <point x="138" y="496" type="qcurve"/>
      <point x="107" y="493"/>
      <point x="46" y="497"/>
      <point x="16" y="498" type="qcurve"/>
      <point x="16" y="499" type="line"/>
      <point x="18" y="537"/>
      <point x="48" y="610"/>
      <point x="100" y="668"/>
      <point x="170" y="705"/>
      <point x="213" y="707" type="qcurve"/>
      <point x="259" y="711"/>
      <point x="342" y="685"/>
      <point x="403" y="631"/>
      <point x="435" y="555"/>
      <point x="430" y="511" type="qcurve"/>
      <point x="426" y="479"/>
      <point x="400" y="427"/>
      <point x="383" y="405" type="qcurve"/>
      <point x="367" y="383"/>
      <point x="338" y="356"/>
      <point x="323" y="336" type="qcurve"/>
      <point x="302" y="307"/>
      <point x="281" y="249"/>
      <point x="274" y="214" type="qcurve"/>
      <point x="272" y="206"/>
      <point x="268" y="188"/>
      <point x="270" y="180" type="qcurve"/>
      <point x="270" y="179" type="line"/>
      <point x="239" y="175"/>
      <point x="178" y="179"/>
      <point x="147" y="177" type="qcurve"/>
      <point x="146" y="177" type="line"/>
      <point x="142" y="181"/>
      <point x="142" y="194"/>
      <point x="142" y="199" type="qcurve"/>
    </contour>
    <contour>
      <point x="146" y="1" type="line"/>
      <point x="143" y="1" type="line"/>
      <point x="141" y="12"/>
      <point x="140" y="46"/>
      <point x="141" y="80"/>
      <point x="142" y="110"/>
      <point x="142" y="117" type="qcurve"/>
      <point x="152" y="121"/>
      <point x="189" y="125"/>
      <point x="227" y="125"/>
      <point x="260" y="122"/>
      <point x="267" y="119" type="qcurve"/>
      <point x="267" y="118"/>
      <point x="265" y="87"/>
      <point x="263" y="47"/>
      <point x="261" y="9"/>
      <point x="261" y="2" type="qcurve"/>
      <point x="261" y="1" type="line"/>
      <point x="261" y="0" type="line"/>
      <point x="259" y="0" type="line"/>
    </contour>
  </outline>
</glyph>
<glyph name="A" format="1">
  <advance width="434"/>
  <unicode hex="0041"/>
  <outline>
    <contour>
      <point x="437" y="1" type="line"/>
      <point x="437" y="0" type="line"/>
      <point x="407" y="-6"/>
      <point x="335" y="-3"/>
      <point x="303" y="4" type="qcurve"/>
      <point x="302" y="4" type="line"/>
      <point x="296" y="20"/>
      <point x="285" y="64"/>
      <point x="274" y="110"/>
      <point x="262" y="152"/>
      <point x="255" y="167" type="qcurve"/>
      <point x="242" y="169"/>
      <point x="228" y="169"/>
      <point x="217" y="169"/>
      <point x="204" y="168"/>
      <point x="193" y="168" type="qcurve"/>
      <point x="186" y="152"/>
      <point x="177" y="109"/>
      <point x="168" y="62"/>
      <point x="158" y="18"/>
      <point x="149" y="1" type="qcurve"/>
      <point x="148" y="1"/>
      <point x="147" y="0"/>
      <point x="146" y="0" type="qcurve"/>
      <point x="138" y="-2"/>
      <point x="74" y="2"/>
      <point x="6" y="1" type="qcurve"/>
      <point x="5" y="1"/>
      <point x="4" y="2" type="qcurve"/>
      <point x="6" y="9"/>
      <point x="16" y="73"/>
      <point x="34" y="175"/>
      <point x="59" y="308"/>
      <point x="93" y="458"/>
      <point x="133" y="620"/>
      <point x="157" y="700" type="qcurve"/>
      <point x="164" y="701"/>
      <point x="180" y="701"/>
      <point x="206" y="701"/>
      <point x="247" y="702"/>
      <point x="280" y="705" type="qcurve"/>
      <point x="283" y="692"/>
      <point x="296" y="639"/>
      <point x="311" y="572"/>
      <point x="328" y="496"/>
      <point x="344" y="426"/>
      <point x="358" y="368"/>
      <point x="362" y="351" type="qcurve"/>
    </contour>
    <contour>
      <point x="260" y="286" type="qcurve"/>
      <point x="250" y="372"/>
      <point x="235" y="468"/>
      <point x="224" y="502"/>
      <point x="213" y="483"/>
      <point x="204" y="425"/>
      <point x="193" y="337"/>
      <point x="186" y="286" type="qcurve"/>
      <point x="203" y="285"/>
      <point x="241" y="286"/>
    </contour>
  </outline>
</glyph>
<glyph name="C" format="1">
  <advance width="488"/>
  <unicode hex="0043"/>
  <outline>
    <contour>
      <point x="193" y="542" type="qcurve"/>
      <point x="191" y="540"/>
      <point x="188" y="531"/>
      <point x="187" y="529" type="qcurve"/>
      <point x="185" y="526"/>
      <point x="182" y="462"/>
      <point x="180" y="374"/>
      <point x="180" y="279"/>
      <point x="183" y="244" type="qcurve"/>
      <point x="186" y="215"/>
      <point x="211" y="160"/>
      <point x="240" y="152" type="qcurve"/>
      <point x="262" y="150"/>
      <point x="301" y="167"/>
      <point x="311" y="187" type="qcurve"/>
      <point x="322" y="210"/>
      <point x="319" y="261"/>
      <point x="324" y="286" type="qcurve"/>
      <point x="338" y="284"/>
      <point x="373" y="286"/>
      <point x="409" y="286"/>
      <point x="444" y="284"/>
      <point x="458" y="280" type="qcurve"/>
      <point x="475" y="228"/>
      <point x="459" y="125"/>
      <point x="405" y="43"/>
      <point x="318" y="-10"/>
      <point x="263" y="-11" type="qcurve"/>
      <point x="227" y="-16"/>
      <point x="151" y="-7"/>
      <point x="85" y="24"/>
      <point x="40" y="80"/>
      <point x="36" y="122" type="qcurve"/>
      <point x="34" y="158"/>
      <point x="32" y="236"/>
      <point x="31" y="333"/>
      <point x="32" y="456"/>
      <point x="33" y="537" type="qcurve"/>
      <point x="31" y="554"/>
      <point x="38" y="589"/>
      <point x="44" y="604" type="qcurve"/>
      <point x="53" y="630"/>
      <point x="80" y="674"/>
      <point x="99" y="691" type="qcurve"/>
      <point x="110" y="699"/>
      <point x="136" y="710"/>
      <point x="150" y="714" type="qcurve"/>
      <point x="196" y="729"/>
      <point x="286" y="723"/>
      <point x="365" y="688"/>
      <point x="429" y="630"/>
      <point x="467" y="555"/>
      <point x="475" y="467"/>
      <point x="459" y="421" type="qcurve"/>
      <point x="422" y="413"/>
      <point x="351" y="418"/>
      <point x="313" y="425" type="qcurve"/>
      <point x="310" y="444"/>
      <point x="309" y="492"/>
      <point x="299" y="533"/>
      <point x="272" y="559"/>
      <point x="243" y="558" type="qcurve"/>
      <point x="230" y="556"/>
      <point x="201" y="550"/>
    </contour>
  </outline>
</glyph>
<glyph name="H" format="1">
  <advance width="499"/>
  <unicode hex="0048"/>
  <outline>
    <contour>
      <point x="469" y="6" type="line"/>
      <point x="452" y="3"/>
      <point x="413" y="1"/>
      <point x="376" y="1"/>
      <point x="341" y="1"/>
      <point x="329" y="0" type="qcurve"/>
      <point x="328" y="0" type="line"/>
      <point x="323" y="33"/>
      <point x="320" y="104"/>
      <point x="319" y="174"/>
      <point x="317" y="244"/>
      <point x="313" y="276" type="qcurve"/>
      <point x="312" y="277" type="line"/>
      <point x="283" y="282"/>
      <point x="225" y="282"/>
      <point x="196" y="275" type="qcurve"/>
      <point x="193" y="240"/>
      <point x="194" y="172"/>
      <point x="196" y="104"/>
      <point x="195" y="39"/>
      <point x="190" y="7" type="qcurve"/>
      <point x="178" y="0"/>
      <point x="138" y="0"/>
      <point x="98" y="4"/>
      <point x="63" y="6"/>
      <point x="54" y="1" type="qcurve"/>
      <point x="52" y="29"/>
      <point x="47" y="126"/>
      <point x="43" y="247"/>
      <point x="40" y="383"/>
      <point x="38" y="520"/>
      <point x="39" y="647"/>
      <point x="40" y="698" type="qcurve"/>
      <point x="40" y="699" type="line"/>
      <point x="41" y="699" type="line"/>
      <point x="43" y="699" type="line"/>
      <point x="58" y="696"/>
      <point x="91" y="698"/>
      <point x="124" y="700"/>
      <point x="156" y="700"/>
      <point x="170" y="696" type="qcurve"/>
      <point x="179" y="627"/>
      <point x="179" y="497"/>
      <point x="191" y="433" type="qcurve"/>
      <point x="192" y="433" type="line"/>
      <point x="217" y="427"/>
      <point x="275" y="432"/>
      <point x="300" y="434" type="qcurve"/>
      <point x="301" y="434" type="line"/>
      <point x="307" y="503"/>
      <point x="308" y="623"/>
      <point x="305" y="695" type="qcurve"/>
      <point x="317" y="699"/>
      <point x="352" y="705"/>
      <point x="390" y="708"/>
      <point x="427" y="707"/>
      <point x="442" y="706" type="qcurve"/>
    </contour>
  </outline>
</glyph>
<glyph name="I" format="1">
  <advance width="260"/>
  <unicode hex="0049"/>
  <outline>
    <contour>
      <point x="222" y="703" type="line"/>
      <point x="222" y="699" type="line"/>
      <point x="222" y="613"/>
      <point x="217" y="439"/>
      <point x="214" y="264"/>
      <point x="216" y="90"/>
      <point x="221" y="5" type="qcurve"/>
      <point x="213" y="-3"/>
      <point x="162" y="-6"/>
      <point x="103" y="-4"/>
      <point x="49" y="-1"/>
      <point x="39" y="-4" type="qcurve"/>
      <point x="46" y="86"/>
      <point x="44" y="268"/>
      <point x="39" y="447"/>
      <point x="38" y="622"/>
      <point x="47" y="706" type="qcurve"/>
      <point x="47" y="708" type="line"/>
      <point x="52" y="709"/>
      <point x="81" y="706"/>
      <point x="88" y="706" type="qcurve"/>
      <point x="106" y="705"/>
      <point x="153" y="702"/>
      <point x="198" y="703" type="qcurve"/>
    </contour>
  </outline>
</glyph>
<glyph name="L" format="1">
  <advance width="461"/>
  <unicode hex="004C"/>
  <outline>
    <contour>
      <point x="457" y="91" type="qcurve"/>
      <point x="459" y="55"/>
      <point x="459" y="18"/>
      <point x="454" y="1"/>
      <point x="442" y="0"/>
      <point x="431" y="0" type="qcurve"/>
      <point x="420" y="1"/>
      <point x="385" y="-1"/>
      <point x="302" y="-3"/>
      <point x="157" y="-3"/>
      <point x="36" y="-1" type="qcurve"/>
      <point x="36" y="17" type="line"/>
      <point x="39" y="92"/>
      <point x="43" y="213"/>
      <point x="44" y="318"/>
      <point x="44" y="416"/>
      <point x="42" y="518"/>
      <point x="40" y="633"/>
      <point x="39" y="703" type="qcurve"/>
      <point x="49" y="707"/>
      <point x="91" y="712"/>
      <point x="139" y="712"/>
      <point x="185" y="706"/>
      <point x="199" y="700" type="qcurve"/>
      <point x="197" y="635"/>
      <point x="198" y="498"/>
      <point x="200" y="360"/>
      <point x="201" y="223"/>
      <point x="200" y="159" type="qcurve"/>
      <point x="200" y="158" type="line"/>
      <point x="207" y="160"/>
      <point x="246" y="159"/>
      <point x="298" y="157"/>
      <point x="357" y="154"/>
      <point x="410" y="152"/>
      <point x="451" y="151"/>
      <point x="459" y="152" type="qcurve"/>
      <point x="459" y="141"/>
      <point x="458" y="130" type="qcurve"/>
      <point x="457" y="120"/>
      <point x="456" y="99"/>
    </contour>
  </outline>
</glyph>
<glyph name="M" format="1">
  <advance width="501"/>
  <unicode hex="004D"/>
  <outline>
    <contour>
      <point x="456" y="-1" type="line"/>
      <point x="441" y="1"/>
      <point x="405" y="1"/>
      <point x="369" y="1"/>
      <point x="336" y="0"/>
      <point x="324" y="0" type="qcurve"/>
      <point x="322" y="43"/>
      <point x="321" y="143"/>
      <point x="320" y="247"/>
      <point x="315" y="347"/>
      <point x="310" y="389" type="qcurve"/>
      <point x="303" y="378"/>
      <point x="285" y="331"/>
      <point x="267" y="281"/>
      <point x="251" y="243"/>
      <point x="247" y="243" type="qcurve"/>
      <point x="242" y="243"/>
      <point x="229" y="264"/>
      <point x="216" y="296"/>
      <point x="202" y="332"/>
      <point x="192" y="362"/>
      <point x="185" y="382"/>
      <point x="185" y="382" type="qcurve"/>
      <point x="177" y="288"/>
      <point x="182" y="96"/>
      <point x="188" y="3" type="qcurve"/>
      <point x="156" y="-2"/>
      <point x="80" y="0"/>
      <point x="48" y="0" type="qcurve"/>
      <point x="46" y="0"/>
      <point x="45" y="3" type="qcurve"/>
      <point x="44" y="7"/>
      <point x="42" y="37"/>
      <point x="41" y="98"/>
      <point x="41" y="198"/>
      <point x="42" y="346"/>
      <point x="43" y="550"/>
      <point x="44" y="686" type="qcurve"/>
      <point x="57" y="690"/>
      <point x="91" y="692"/>
      <point x="127" y="691"/>
      <point x="163" y="690"/>
      <point x="180" y="691" type="qcurve"/>
      <point x="181" y="691" type="line"/>
      <point x="190" y="681"/>
      <point x="208" y="640"/>
      <point x="224" y="594"/>
      <point x="239" y="552"/>
      <point x="247" y="540" type="qcurve"/>
      <point x="250" y="537"/>
      <point x="253" y="537" type="qcurve"/>
      <point x="256" y="536"/>
      <point x="269" y="576"/>
      <point x="284" y="629"/>
      <point x="303" y="681"/>
      <point x="312" y="693" type="qcurve"/>
      <point x="319" y="692"/>
      <point x="356" y="694"/>
      <point x="399" y="696"/>
      <point x="444" y="697"/>
      <point x="460" y="697" type="qcurve"/>
      <point x="456" y="601"/>
      <point x="464" y="414"/>
      <point x="459" y="318" type="qcurve"/>
    </contour>
  </outline>
</glyph>
<glyph name="N" format="1">
  <advance width="498"/>
  <unicode hex="004E"/>
  <outline>
    <contour>
      <point x="424" y="-5" type="qcurve"/>
      <point x="404" y="-5"/>
      <point x="352" y="0"/>
      <point x="332" y="0" type="qcurve"/>
      <point x="299" y="74"/>
      <point x="234" y="213"/>
      <point x="211" y="277" type="qcurve"/>
      <point x="201" y="307" type="line"/>
      <point x="197" y="318"/>
      <point x="190" y="337"/>
      <point x="188" y="337" type="qcurve"/>
      <point x="187" y="337"/>
      <point x="184" y="289"/>
      <point x="182" y="215"/>
      <point x="181" y="125"/>
      <point x="181" y="83" type="qcurve"/>
      <point x="181" y="60"/>
      <point x="181" y="17"/>
      <point x="182" y="0" type="qcurve"/>
      <point x="171" y="-3"/>
      <point x="149" y="-5"/>
      <point x="138" y="-5" type="qcurve"/>
      <point x="114" y="-5"/>
      <point x="65" y="1"/>
      <point x="42" y="1" type="qcurve"/>
      <point x="42" y="71" type="line"/>
      <point x="42" y="166"/>
      <point x="39" y="338"/>
      <point x="39" y="432" type="qcurve"/>
      <point x="39" y="501"/>
      <point x="43" y="636"/>
      <point x="48" y="700" type="qcurve"/>
      <point x="58" y="702"/>
      <point x="81" y="704"/>
      <point x="93" y="704" type="qcurve"/>
      <point x="99" y="704"/>
      <point x="127" y="703"/>
      <point x="155" y="700"/>
      <point x="176" y="696"/>
      <point x="176" y="694" type="qcurve"/>
      <point x="183" y="676"/>
      <point x="195" y="652"/>
      <point x="206" y="630"/>
      <point x="219" y="603"/>
      <point x="228" y="582" type="qcurve"/>
      <point x="230" y="577"/>
      <point x="244" y="549"/>
      <point x="262" y="512"/>
      <point x="282" y="471"/>
      <point x="299" y="438"/>
      <point x="311" y="415"/>
      <point x="312" y="415" type="qcurve"/>
      <point x="315" y="417"/>
      <point x="319" y="453"/>
      <point x="319" y="470" type="qcurve"/>
      <point x="319" y="510"/>
      <point x="316" y="579"/>
      <point x="316" y="615" type="qcurve"/>
      <point x="316" y="636"/>
      <point x="317" y="679"/>
      <point x="318" y="704" type="qcurve"/>
      <point x="352" y="710"/>
      <point x="390" y="710" type="qcurve"/>
      <point x="427" y="710"/>
      <point x="456" y="704" type="qcurve"/>
      <point x="456" y="382" type="line"/>
      <point x="457" y="340"/>
      <point x="457" y="254"/>
      <point x="457" y="211" type="qcurve"/>
      <point x="457" y="182"/>
      <point x="456" y="128"/>
      <point x="456" y="100" type="qcurve"/>
      <point x="456" y="80"/>
      <point x="457" y="40"/>
      <point x="457" y="20" type="qcurve"/>
      <point x="457" y="0" type="line"/>
      <point x="455" y="-1"/>
      <point x="441" y="-5"/>
    </contour>
  </outline>
</glyph>
<glyph name="O" format="1">
  <advance width="483"/>
  <unicode hex="004F"/>
  <outline>
    <contour>
      <point x="437" y="592" type="qcurve"/>
      <point x="444" y="577"/>
      <point x="451" y="546"/>
      <point x="453" y="530" type="qcurve"/>
      <point x="455" y="505"/>
      <point x="456" y="456"/>
      <point x="455" y="431" type="qcurve"/>
      <point x="452" y="378"/>
      <point x="454" y="278"/>
      <point x="450" y="226" type="qcurve"/>
      <point x="447" y="193" type="line"/>
      <point x="445" y="158"/>
      <point x="427" y="87"/>
      <point x="409" y="58" type="qcurve"/>
      <point x="392" y="34"/>
      <point x="337" y="5"/>
      <point x="306" y="-3" type="qcurve"/>
      <point x="278" y="-11"/>
      <point x="221" y="-15"/>
      <point x="192" y="-13" type="qcurve"/>
      <point x="171" y="-11"/>
      <point x="132" y="-4"/>
      <point x="97" y="12"/>
      <point x="69" y="37"/>
      <point x="60" y="57" type="qcurve"/>
      <point x="46" y="82"/>
      <point x="37" y="139"/>
      <point x="36" y="168" type="qcurve"/>
      <point x="33" y="246"/>
      <point x="26" y="403"/>
      <point x="31" y="482" type="qcurve"/>
      <point x="32" y="527"/>
      <point x="53" y="618"/>
      <point x="84" y="653" type="qcurve"/>
      <point x="94" y="663"/>
      <point x="107" y="671" type="qcurve"/>
      <point x="140" y="687"/>
      <point x="217" y="702"/>
      <point x="294" y="698"/>
      <point x="367" y="675"/>
      <point x="396" y="653" type="qcurve"/>
      <point x="425" y="627"/>
    </contour>
    <contour>
      <point x="328" y="416" type="line"/>
      <point x="328" y="417"/>
      <point x="325" y="456"/>
      <point x="324" y="473" type="qcurve"/>
      <point x="322" y="501"/>
      <point x="295" y="547"/>
      <point x="272" y="558" type="qcurve"/>
      <point x="252" y="566"/>
      <point x="210" y="556"/>
      <point x="194" y="544" type="qcurve"/>
      <point x="159" y="517"/>
      <point x="147" y="475" type="qcurve"/>
      <point x="139" y="437"/>
      <point x="136" y="353"/>
      <point x="138" y="311" type="qcurve"/>
      <point x="143" y="276"/>
      <point x="147" y="203"/>
      <point x="157" y="170" type="qcurve"/>
      <point x="167" y="150"/>
      <point x="205" y="128"/>
      <point x="249" y="125"/>
      <point x="293" y="140"/>
      <point x="308" y="157" type="qcurve"/>
      <point x="317" y="169"/>
      <point x="325" y="184"/>
      <point x="327" y="202"/>
      <point x="326" y="227"/>
      <point x="328" y="248" type="qcurve"/>
      <point x="329" y="268"/>
      <point x="330" y="298"/>
      <point x="330" y="300" type="qcurve"/>
      <point x="330" y="348" type="line"/>
    </contour>
  </outline>
</glyph>
<glyph name="P" format="1">
  <advance width="497"/>
  <unicode hex="0050"/>
  <outline>
    <contour>
      <point x="484" y="490" type="line"/>
      <point x="484" y="483"/>
      <point x="484" y="470"/>
      <point x="483" y="464" type="qcurve"/>
      <point x="477" y="416"/>
      <point x="426" y="336"/>
      <point x="350" y="280"/>
      <point x="258" y="255"/>
      <point x="210" y="263" type="qcurve"/>
      <point x="211" y="249"/>
      <point x="211" y="222"/>
      <point x="211" y="171"/>
      <point x="212" y="85"/>
      <point x="214" y="12" type="qcurve"/>
      <point x="214" y="11" type="line"/>
      <point x="213" y="11"/>
      <point x="212" y="10"/>
      <point x="211" y="10" type="qcurve"/>
      <point x="197" y="6"/>
      <point x="154" y="3"/>
      <point x="107" y="2"/>
      <point x="61" y="4"/>
      <point x="44" y="6" type="qcurve"/>
      <point x="41" y="79"/>
      <point x="41" y="250"/>
      <point x="41" y="430"/>
      <point x="40" y="612"/>
      <point x="37" y="695" type="qcurve"/>
      <point x="78" y="706"/>
      <point x="175" y="716"/>
      <point x="272" y="708"/>
      <point x="364" y="681"/>
      <point x="435" y="628"/>
      <point x="481" y="548"/>
      <point x="484" y="491" type="qcurve"/>
    </contour>
    <contour>
      <point x="309" y="533" type="qcurve"/>
      <point x="284" y="553"/>
      <point x="218" y="564"/>
      <point x="186" y="556" type="qcurve"/>
      <point x="184" y="556"/>
      <point x="183" y="555" type="qcurve"/>
      <point x="184" y="537"/>
      <point x="183" y="497"/>
      <point x="184" y="457"/>
      <point x="187" y="420"/>
      <point x="192" y="405" type="qcurve"/>
      <point x="195" y="405" type="line"/>
      <point x="211" y="406"/>
      <point x="247" y="407"/>
      <point x="282" y="411"/>
      <point x="315" y="422"/>
      <point x="327" y="434" type="qcurve"/>
      <point x="335" y="445"/>
      <point x="342" y="473"/>
      <point x="337" y="501"/>
      <point x="322" y="525"/>
    </contour>
  </outline>
</glyph>
<glyph name="Q" format="1">
  <advance width="495"/>
  <unicode hex="0051"/>
  <outline>
    <contour>
      <point x="456" y="165" type="qcurve"/>
      <point x="455" y="153"/>
      <point x="451" y="139" type="qcurve"/>
      <point x="445" y="115"/>
      <point x="428" y="78" type="qcurve"/>
      <point x="435" y="70"/>
      <point x="447" y="55"/>
      <point x="447" y="48" type="qcurve"/>
      <point x="447" y="34"/>
      <point x="431" y="18"/>
      <point x="420" y="10" type="qcurve"/>
      <point x="412" y="5"/>
      <point x="388" y="-8"/>
      <point x="377" y="-8" type="qcurve"/>
      <point x="371" y="-8"/>
      <point x="346" y="16"/>
      <point x="340" y="24" type="qcurve"/>
      <point x="334" y="17"/>
      <point x="310" y="5"/>
      <point x="280" y="-3"/>
      <point x="246" y="-7"/>
      <point x="231" y="-6" type="qcurve"/>
      <point x="206" y="-4"/>
      <point x="167" y="5"/>
      <point x="134" y="20"/>
      <point x="105" y="40"/>
      <point x="90" y="54" type="qcurve"/>
      <point x="65" y="78"/>
      <point x="40" y="135"/>
      <point x="30" y="200"/>
      <point x="30" y="270"/>
      <point x="30" y="307" type="qcurve"/>
      <point x="30" y="342"/>
      <point x="30" y="421"/>
      <point x="33" y="502"/>
      <point x="42" y="582"/>
      <point x="52" y="618" type="qcurve"/>
      <point x="59" y="639"/>
      <point x="95" y="674"/>
      <point x="148" y="700"/>
      <point x="214" y="714"/>
      <point x="253" y="714" type="qcurve"/>
      <point x="288" y="714"/>
      <point x="342" y="709"/>
      <point x="386" y="687"/>
      <point x="422" y="642"/>
      <point x="439" y="602" type="qcurve"/>
      <point x="456" y="548"/>
      <point x="468" y="428"/>
      <point x="468" y="368" type="qcurve"/>
      <point x="468" y="337"/>
      <point x="467" y="294"/>
      <point x="465" y="264" type="qcurve"/>
      <point x="463" y="239"/>
      <point x="462" y="189"/>
    </contour>
    <contour>
      <point x="294" y="232" type="qcurve"/>
      <point x="300" y="232"/>
      <point x="310" y="221"/>
      <point x="319" y="206"/>
      <point x="328" y="188"/>
      <point x="334" y="182" type="qcurve"/>
      <point x="335" y="187"/>
      <point x="337" y="204"/>
      <point x="339" y="223"/>
      <point x="341" y="240"/>
      <point x="342" y="245" type="qcurve"/>
      <point x="343" y="256"/>
      <point x="344" y="286"/>
      <point x="344" y="319"/>
      <point x="343" y="350"/>
      <point x="343" y="361" type="qcurve"/>
      <point x="343" y="396"/>
      <point x="340" y="448"/>
      <point x="336" y="484" type="qcurve"/>
      <point x="333" y="520"/>
      <point x="297" y="565"/>
      <point x="250" y="565" type="qcurve"/>
      <point x="221" y="565"/>
      <point x="188" y="560"/>
      <point x="169" y="544"/>
      <point x="162" y="513"/>
      <point x="160" y="488" type="qcurve"/>
      <point x="158" y="467"/>
      <point x="155" y="432"/>
      <point x="154" y="399"/>
      <point x="153" y="364"/>
      <point x="153" y="343" type="qcurve"/>
      <point x="153" y="329"/>
      <point x="152" y="283"/>
      <point x="152" y="233"/>
      <point x="156" y="186"/>
      <point x="161" y="171" type="qcurve"/>
      <point x="172" y="141"/>
      <point x="221" y="115"/>
      <point x="251" y="115" type="qcurve"/>
      <point x="256" y="115"/>
      <point x="264" y="115"/>
      <point x="269" y="116" type="qcurve"/>
      <point x="257" y="128"/>
      <point x="247" y="139" type="qcurve"/>
      <point x="239" y="149"/>
      <point x="226" y="170"/>
      <point x="226" y="179" type="qcurve"/>
      <point x="226" y="193"/>
      <point x="248" y="203"/>
      <point x="259" y="211" type="qcurve"/>
      <point x="267" y="216"/>
      <point x="283" y="232"/>
    </contour>
  </outline>
</glyph>
<glyph name="S" format="1">
  <advance width="485"/>
  <unicode hex="0053"/>
  <outline>
    <contour>
      <point x="462" y="474" type="line"/>
      <point x="427" y="468"/>
      <point x="347" y="465"/>
      <point x="312" y="475" type="qcurve"/>
      <point x="318" y="502"/>
      <point x="284" y="538"/>
      <point x="236" y="548"/>
      <point x="191" y="528"/>
      <point x="187" y="500" type="qcurve"/>
      <point x="185" y="493"/>
      <point x="186" y="480"/>
      <point x="187" y="473" type="qcurve"/>
      <point x="195" y="449"/>
      <point x="231" y="433"/>
      <point x="252" y="430" type="qcurve"/>
      <point x="305" y="424"/>
      <point x="396" y="368"/>
      <point x="425" y="325" type="qcurve"/>
      <point x="443" y="302"/>
      <point x="461" y="249"/>
      <point x="464" y="193"/>
      <point x="453" y="136"/>
      <point x="441" y="110" type="qcurve"/>
      <point x="429" y="79"/>
      <point x="389" y="35"/>
      <point x="338" y="7"/>
      <point x="279" y="-6"/>
      <point x="248" y="-5" type="qcurve"/>
      <point x="204" y="-4"/>
      <point x="117" y="25"/>
      <point x="49" y="77"/>
      <point x="9" y="152"/>
      <point x="12" y="200" type="qcurve"/>
      <point x="12" y="203" type="line"/>
      <point x="12" y="206" type="line"/>
      <point x="47" y="211"/>
      <point x="131" y="206"/>
      <point x="165" y="207" type="qcurve"/>
      <point x="167" y="175"/>
      <point x="214" y="143"/>
      <point x="267" y="144"/>
      <point x="306" y="178"/>
      <point x="300" y="213" type="qcurve"/>
      <point x="297" y="237"/>
      <point x="267" y="266"/>
      <point x="226" y="284"/>
      <point x="178" y="293"/>
      <point x="157" y="297" type="qcurve"/>
      <point x="137" y="301"/>
      <point x="103" y="319"/>
      <point x="89" y="331" type="qcurve"/>
      <point x="43" y="375"/>
      <point x="16" y="481"/>
      <point x="40" y="581"/>
      <point x="107" y="663"/>
      <point x="155" y="683" type="qcurve"/>
      <point x="179" y="693"/>
      <point x="237" y="700"/>
      <point x="296" y="697"/>
      <point x="353" y="683"/>
      <point x="377" y="672" type="qcurve"/>
      <point x="425" y="647"/>
      <point x="477" y="549"/>
      <point x="463" y="474" type="qcurve"/>
    </contour>
  </outline>
</glyph>
<glyph name="T" format="1">
  <advance width="443"/>
  <unicode hex="0054"/>
  <outline>
    <contour>
      <point x="432" y="695" type="qcurve"/>
      <point x="434" y="662"/>
      <point x="433" y="576"/>
      <point x="428" y="540" type="qcurve"/>
      <point x="409" y="544"/>
      <point x="353" y="542"/>
      <point x="306" y="540" type="qcurve"/>
      <point x="304" y="540" type="line"/>
      <point x="303" y="540" type="line"/>
      <point x="303" y="539"/>
      <point x="302" y="538"/>
      <point x="302" y="537" type="qcurve"/>
      <point x="301" y="532"/>
      <point x="300" y="511"/>
      <point x="300" y="466"/>
      <point x="301" y="393"/>
      <point x="303" y="278"/>
      <point x="305" y="117"/>
      <point x="307" y="8" type="qcurve"/>
      <point x="307" y="7" type="line"/>
      <point x="307" y="6" type="line"/>
      <point x="289" y="3"/>
      <point x="246" y="2"/>
      <point x="203" y="2"/>
      <point x="161" y="2"/>
      <point x="143" y="-1" type="qcurve"/>
      <point x="142" y="3"/>
      <point x="144" y="67"/>
      <point x="145" y="194"/>
      <point x="142" y="392"/>
      <point x="136" y="532" type="qcurve"/>
      <point x="135" y="533" type="line"/>
      <point x="123" y="539"/>
      <point x="87" y="542"/>
      <point x="51" y="543"/>
      <point x="21" y="543"/>
      <point x="15" y="545" type="qcurve"/>
      <point x="13" y="549"/>
      <point x="10" y="581"/>
      <point x="9" y="626"/>
      <point x="9" y="678"/>
      <point x="11" y="702" type="qcurve"/>
      <point x="11" y="703"/>
      <point x="10" y="703"/>
      <point x="10" y="704" type="qcurve"/>
      <point x="112" y="705"/>
      <point x="329" y="706"/>
    </contour>
  </outline>
</glyph>
<glyph name="U" format="1">
  <advance width="505"/>
  <unicode hex="0055"/>
  <outline>
    <contour>
      <point x="469" y="669" type="qcurve"/>
      <point x="475" y="541"/>
      <point x="471" y="280"/>
      <point x="457" y="151" type="qcurve"/>
      <point x="449" y="85"/>
      <point x="365" y="-7"/>
      <point x="293" y="-14" type="qcurve"/>
      <point x="251" y="-18"/>
      <point x="161" y="-3"/>
      <point x="88" y="36"/>
      <point x="39" y="101"/>
      <point x="37" y="147" type="qcurve"/>
      <point x="37" y="279"/>
      <point x="43" y="547"/>
      <point x="41" y="679" type="qcurve"/>
      <point x="40" y="680" type="line"/>
      <point x="41" y="680" type="line"/>
      <point x="56" y="680"/>
      <point x="93" y="682"/>
      <point x="131" y="682"/>
      <point x="167" y="679"/>
      <point x="182" y="675" type="qcurve"/>
      <point x="182" y="674" type="line"/>
      <point x="171" y="432"/>
      <point x="191" y="183" type="qcurve"/>
      <point x="198" y="159"/>
      <point x="235" y="137"/>
      <point x="275" y="139"/>
      <point x="309" y="165"/>
      <point x="314" y="188" type="qcurve"/>
      <point x="319" y="308"/>
      <point x="320" y="556"/>
      <point x="323" y="672" type="qcurve"/>
      <point x="336" y="673"/>
      <point x="377" y="678"/>
      <point x="419" y="680"/>
      <point x="457" y="676"/>
    </contour>
  </outline>
</glyph>
<glyph name="W" format="1">
  <advance width="465"/>
  <unicode hex="0057"/>
  <outline>
    <contour>
      <point x="446" y="696" type="line"/>
      <point x="431" y="523"/>
      <point x="394" y="179"/>
      <point x="380" y="5" type="qcurve"/>
      <point x="373" y="3"/>
      <point x="356" y="3"/>
      <point x="346" y="3" type="qcurve"/>
      <point x="310" y="3" type="line"/>
      <point x="298" y="3" type="line"/>
      <point x="289" y="15"/>
      <point x="276" y="60"/>
      <point x="262" y="111"/>
      <point x="248" y="159"/>
      <point x="239" y="173" type="qcurve"/>
      <point x="238" y="173" type="line"/>
      <point x="229" y="164"/>
      <point x="216" y="119"/>
      <point x="204" y="68"/>
      <point x="192" y="20"/>
      <point x="184" y="7" type="qcurve"/>
      <point x="171" y="5"/>
      <point x="149" y="2"/>
      <point x="135" y="2" type="qcurve"/>
      <point x="119" y="2"/>
      <point x="97" y="5" type="qcurve"/>
      <point x="96" y="5" type="line"/>
      <point x="72" y="176"/>
      <point x="26" y="522"/>
      <point x="23" y="695" type="qcurve"/>
      <point x="23" y="696" type="line"/>
      <point x="38" y="698"/>
      <point x="71" y="701"/>
      <point x="88" y="701" type="qcurve"/>
      <point x="108" y="701"/>
      <point x="148" y="699"/>
      <point x="166" y="698" type="qcurve"/>
      <point x="170" y="654"/>
      <point x="170" y="544"/>
      <point x="170" y="432"/>
      <point x="176" y="324"/>
      <point x="187" y="281" type="qcurve"/>
      <point x="200" y="326"/>
      <point x="221" y="413"/>
      <point x="232" y="458" type="qcurve"/>
      <point x="233" y="460"/>
      <point x="233" y="462"/>
      <point x="234" y="463" type="qcurve"/>
      <point x="238" y="460"/>
      <point x="253" y="409"/>
      <point x="268" y="345"/>
      <point x="283" y="283"/>
      <point x="289" y="268" type="qcurve"/>
      <point x="293" y="311"/>
      <point x="297" y="422"/>
      <point x="300" y="538"/>
      <point x="303" y="649"/>
      <point x="307" y="693" type="qcurve"/>
      <point x="307" y="694" type="line"/>
      <point x="324" y="698"/>
      <point x="360" y="700"/>
      <point x="378" y="700" type="qcurve"/>
      <point x="412" y="700"/>
      <point x="445" y="697" type="qcurve"/>
    </contour>
  </outline>
</glyph>
<glyph name="X" format="1">
  <advance width="436"/>
  <unicode hex="0058"/>
  <outline>
    <contour>
      <point x="439" y="698" type="qcurve"/>
      <point x="425" y="654"/>
      <point x="393" y="567"/>
      <point x="363" y="478"/>
      <point x="338" y="387"/>
      <point x="331" y="341" type="qcurve"/>
      <point x="338" y="299"/>
      <point x="362" y="213"/>
      <point x="388" y="128"/>
      <point x="414" y="43"/>
      <point x="424" y="2" type="qcurve"/>
      <point x="417" y="3"/>
      <point x="405" y="3"/>
      <point x="398" y="3" type="qcurve"/>
      <point x="382" y="3"/>
      <point x="351" y="1"/>
      <point x="334" y="1" type="qcurve"/>
      <point x="309" y="1"/>
      <point x="290" y="5" type="qcurve"/>
      <point x="289" y="6" type="line"/>
      <point x="278" y="30"/>
      <point x="262" y="88"/>
      <point x="248" y="148"/>
      <point x="233" y="206"/>
      <point x="221" y="230" type="qcurve"/>
      <point x="220" y="231" type="line"/>
      <point x="207" y="202"/>
      <point x="190" y="143"/>
      <point x="174" y="84"/>
      <point x="157" y="27"/>
      <point x="145" y="2" type="qcurve"/>
      <point x="134" y="1"/>
      <point x="110" y="0"/>
      <point x="98" y="0" type="qcurve"/>
      <point x="75" y="0"/>
      <point x="28" y="2"/>
      <point x="9" y="9" type="qcurve"/>
      <point x="19" y="46"/>
      <point x="47" y="130"/>
      <point x="76" y="217"/>
      <point x="104" y="305"/>
      <point x="113" y="347" type="qcurve"/>
      <point x="96" y="435"/>
      <point x="32" y="604"/>
      <point x="-1" y="689" type="qcurve"/>
      <point x="31" y="691"/>
      <point x="81" y="693"/>
      <point x="99" y="693" type="qcurve"/>
      <point x="126" y="693"/>
      <point x="148" y="693"/>
      <point x="151" y="688" type="qcurve"/>
      <point x="157" y="667"/>
      <point x="175" y="607"/>
      <point x="193" y="545"/>
      <point x="210" y="486"/>
      <point x="217" y="467" type="qcurve"/>
      <point x="226" y="487"/>
      <point x="245" y="547"/>
      <point x="263" y="611"/>
      <point x="279" y="673"/>
      <point x="286" y="695" type="qcurve"/>
      <point x="286" y="696" type="line"/>
      <point x="312" y="698"/>
      <point x="382" y="700"/>
      <point x="439" y="700" type="qcurve"/>
      <point x="440" y="700" type="line"/>
      <point x="440" y="699"/>
      <point x="439" y="699"/>
    </contour>
  </outline>
</glyph>
<glyph name="Y" format="1">
  <advance width="435"/>
  <unicode hex="0059"/>
  <outline>
    <contour>
      <point x="450" y="692" type="line"/>
      <point x="422" y="602"/>
      <point x="346" y="430"/>
      <point x="264" y="259"/>
      <point x="186" y="88"/>
      <point x="156" y="0" type="qcurve"/>
      <point x="150" y="1"/>
      <point x="138" y="1"/>
      <point x="131" y="1" type="qcurve"/>
      <point x="110" y="1"/>
      <point x="60" y="-2"/>
      <point x="37" y="-2" type="qcurve"/>
      <point x="31" y="-2"/>
      <point x="19" y="-2"/>
      <point x="13" y="-1" type="qcurve"/>
      <point x="11" y="-1" type="line"/>
      <point x="37" y="80"/>
      <point x="107" y="257"/>
      <point x="142" y="345" type="qcurve"/>
      <point x="142" y="347" type="line"/>
      <point x="131" y="391"/>
      <point x="97" y="478"/>
      <point x="60" y="564"/>
      <point x="26" y="650"/>
      <point x="16" y="692" type="qcurve"/>
      <point x="36" y="692"/>
      <point x="80" y="698"/>
      <point x="102" y="698" type="qcurve"/>
      <point x="114" y="698"/>
      <point x="138" y="695"/>
      <point x="149" y="690" type="qcurve"/>
      <point x="154" y="668"/>
      <point x="173" y="608"/>
      <point x="194" y="546"/>
      <point x="217" y="490"/>
      <point x="226" y="471" type="qcurve"/>
      <point x="236" y="489"/>
      <point x="257" y="546"/>
      <point x="278" y="608"/>
      <point x="298" y="668"/>
      <point x="307" y="688" type="qcurve"/>
      <point x="325" y="692"/>
      <point x="386" y="695"/>
      <point x="412" y="695" type="qcurve"/>
      <point x="424" y="695"/>
      <point x="444" y="694"/>
      <point x="450" y="693" type="qcurve"/>
    </contour>
  </outline>
</glyph>
<glyph name="Z" format="1">
  <advance width="474"/>
  <unicode hex="005A"/>
  <outline>
    <contour>
      <point x="451" y="534" type="line"/>
      <point x="393" y="436"/>
      <point x="257" y="248"/>
      <point x="194" y="151" type="qcurve"/>
      <point x="193" y="150" type="line"/>
      <point x="233" y="155"/>
      <point x="290" y="159"/>
      <point x="343" y="160"/>
      <point x="402" y="161"/>
      <point x="445" y="163" type="qcurve"/>
      <point x="445" y="160" type="line"/>
      <point x="450" y="122"/>
      <point x="446" y="36"/>
      <point x="443" y="0" type="qcurve"/>
      <point x="443" y="-2" type="line"/>
      <point x="348" y="3"/>
      <point x="141" y="5"/>
      <point x="34" y="-1" type="qcurve"/>
      <point x="28" y="17"/>
      <point x="26" y="56"/>
      <point x="26" y="97"/>
      <point x="27" y="138"/>
      <point x="25" y="159" type="qcurve"/>
      <point x="47" y="208"/>
      <point x="107" y="306"/>
      <point x="174" y="402"/>
      <point x="241" y="494"/>
      <point x="270" y="535" type="qcurve"/>
      <point x="247" y="538"/>
      <point x="180" y="542"/>
      <point x="110" y="545"/>
      <point x="47" y="548"/>
      <point x="29" y="548" type="qcurve"/>
      <point x="23" y="558"/>
      <point x="21" y="592"/>
      <point x="21" y="630"/>
      <point x="20" y="669"/>
      <point x="15" y="685" type="qcurve"/>
      <point x="15" y="686" type="line"/>
      <point x="15" y="688"/>
      <point x="13" y="690" type="qcurve"/>
      <point x="116" y="700"/>
      <point x="336" y="695"/>
      <point x="451" y="694" type="qcurve"/>
      <point x="456" y="655"/>
      <point x="450" y="573"/>
      <point x="451" y="535" type="qcurve"/>
    </contour>
  </outline>
</glyph>
<glyph name="bracketleft" format="1">
  <advance width="321"/>
  <unicode hex="005B"/>
  <outline>
    <contour>
      <point x="197" y="0" type="line"/>
      <point x="184" y="0"/>
      <point x="141" y="0"/>
      <point x="95" y="0"/>
      <point x="54" y="-1"/>
      <point x="43" y="-2" type="qcurve"/>
      <point x="43" y="2" type="line"/>
      <point x="44" y="86"/>
      <point x="43" y="263"/>
      <point x="43" y="441"/>
      <point x="47" y="618"/>
      <point x="53" y="704" type="qcurve"/>
      <point x="53" y="705" type="line"/>
      <point x="85" y="709"/>
      <point x="147" y="708"/>
      <point x="208" y="705"/>
      <point x="268" y="703"/>
      <point x="297" y="706" type="qcurve"/>
      <point x="297" y="674"/>
      <point x="297" y="607"/>
      <point x="291" y="588" type="qcurve"/>
      <point x="290" y="588" type="line"/>
      <point x="288" y="588" type="line"/>
      <point x="263" y="590"/>
      <point x="208" y="584"/>
      <point x="182" y="586" type="qcurve"/>
      <point x="181" y="586" type="line"/>
      <point x="176" y="535"/>
      <point x="175" y="421"/>
      <point x="179" y="304"/>
      <point x="184" y="192"/>
      <point x="184" y="143" type="qcurve"/>
      <point x="184" y="142" type="line"/>
      <point x="210" y="136"/>
      <point x="267" y="134"/>
      <point x="291" y="132" type="qcurve"/>
      <point x="293" y="100"/>
      <point x="296" y="33"/>
      <point x="294" y="1" type="qcurve"/>
    </contour>
  </outline>
</glyph>
<glyph name="bracketright" format="1">
  <advance width="321"/>
  <unicode hex="005D"/>
  <outline>
    <contour>
      <point x="27" y="1" type="line"/>
      <point x="25" y="33"/>
      <point x="28" y="100"/>
      <point x="30" y="132" type="qcurve"/>
      <point x="54" y="134"/>
      <point x="111" y="136"/>
      <point x="137" y="142" type="qcurve"/>
      <point x="137" y="143" type="line"/>
      <point x="137" y="192"/>
      <point x="142" y="304"/>
      <point x="146" y="421"/>
      <point x="145" y="535"/>
      <point x="140" y="586" type="qcurve"/>
      <point x="139" y="586" type="line"/>
      <point x="113" y="584"/>
      <point x="58" y="590"/>
      <point x="33" y="588" type="qcurve"/>
      <point x="31" y="588" type="line"/>
      <point x="30" y="588" type="line"/>
      <point x="24" y="607"/>
      <point x="24" y="674"/>
      <point x="24" y="706" type="qcurve"/>
      <point x="53" y="703"/>
      <point x="113" y="705"/>
      <point x="174" y="708"/>
      <point x="236" y="709"/>
      <point x="268" y="705" type="qcurve"/>
      <point x="268" y="704" type="line"/>
      <point x="274" y="618"/>
      <point x="277" y="441"/>
      <point x="277" y="263"/>
      <point x="276" y="86"/>
      <point x="278" y="2" type="qcurve"/>
      <point x="278" y="-2" type="line"/>
      <point x="267" y="-1"/>
      <point x="226" y="0"/>
      <point x="180" y="0"/>
      <point x="137" y="0"/>
      <point x="124" y="0" type="qcurve"/>
    </contour>
  </outline>
</glyph>
<glyph name="underscore" format="1">
  <advance width="650"/>
  <unicode hex="005F"/>
  <outline>
    <contour>
      <point x="41" y="-42" type="qcurve"/>
      <point x="45" y="-42"/>
      <point x="97" y="-41"/>
      <point x="176" y="-40"/>
      <point x="274" y="-39"/>
      <point x="377" y="-38"/>
      <point x="475" y="-37"/>
      <point x="554" y="-37"/>
      <point x="606" y="-37"/>
      <point x="610" y="-37" type="qcurve"/>
      <point x="611" y="-37" type="line"/>
      <point x="608" y="-57"/>
      <point x="606" y="-82"/>
      <point x="606" y="-104"/>
      <point x="607" y="-129"/>
      <point x="607" y="-150" type="qcurve"/>
      <point x="595" y="-150"/>
      <point x="504" y="-150"/>
      <point x="379" y="-150"/>
      <point x="240" y="-149"/>
      <point x="122" y="-148"/>
      <point x="44" y="-148"/>
      <point x="43" y="-148" type="qcurve"/>
      <point x="43" y="-145"/>
      <point x="42" y="-120"/>
      <point x="41" y="-88"/>
      <point x="41" y="-54"/>
    </contour>
  </outline>
</glyph>
<glyph name="grave" format="1">
  <advance width="255"/>
  <unicode hex="0060"/>
  <outline>
    <contour>
      <point x="82" y="690" type="line"/>
      <point x="100" y="676"/>
      <point x="144" y="635"/>
      <point x="189" y="588"/>
      <point x="232" y="543"/>
      <point x="249" y="527" type="qcurve"/>
      <point x="242" y="525"/>
      <point x="210" y="522"/>
      <point x="171" y="520"/>
      <point x="131" y="521"/>
      <point x="115" y="523" type="qcurve"/>
      <point x="110" y="531"/>
      <point x="83" y="557"/>
      <point x="51" y="586"/>
      <point x="21" y="612"/>
      <point x="14" y="619" type="qcurve"/>
      <point x="13" y="620" type="line"/>
    </contour>
  </outline>
</glyph>
<glyph name="b" format="1">
  <advance width="464"/>
  <unicode hex="0062"/>
  <outline>
    <contour>
      <point x="167" y="692" type="line"/>
      <point x="168" y="672"/>
      <point x="169" y="651"/>
      <point x="170" y="634"/>
      <point x="171" y="615"/>
      <point x="171" y="580"/>
      <point x="171" y="522"/>
      <point x="170" y="475" type="qcurve"/>
      <point x="172" y="484"/>
      <point x="212" y="498"/>
      <point x="270" y="503"/>
      <point x="335" y="498"/>
      <point x="362" y="488" type="qcurve"/>
      <point x="384" y="480"/>
      <point x="415" y="441"/>
      <point x="434" y="386"/>
      <point x="443" y="320"/>
      <point x="443" y="285" type="qcurve"/>
      <point x="441" y="235"/>
      <point x="431" y="137"/>
      <point x="398" y="58"/>
      <point x="332" y="7"/>
      <point x="275" y="3" type="qcurve"/>
      <point x="247" y="-1"/>
      <point x="197" y="16"/>
      <point x="182" y="46" type="qcurve"/>
      <point x="179" y="52"/>
      <point x="174" y="47"/>
      <point x="172" y="42" type="qcurve"/>
      <point x="172" y="31"/>
      <point x="171" y="19"/>
      <point x="171" y="9" type="qcurve"/>
      <point x="171" y="4"/>
      <point x="170" y="2" type="qcurve"/>
      <point x="140" y="-2"/>
      <point x="66" y="1"/>
      <point x="35" y="1" type="qcurve"/>
      <point x="33" y="73"/>
      <point x="34" y="228"/>
      <point x="37" y="389"/>
      <point x="41" y="555"/>
      <point x="41" y="638" type="qcurve"/>
      <point x="41" y="704" type="line"/>
      <point x="57" y="707"/>
      <point x="101" y="708"/>
      <point x="140" y="707"/>
      <point x="167" y="704"/>
      <point x="167" y="703" type="qcurve"/>
    </contour>
    <contour>
      <point x="322" y="315" type="qcurve"/>
      <point x="317" y="350"/>
      <point x="268" y="386"/>
      <point x="227" y="386" type="qcurve"/>
      <point x="206" y="386"/>
      <point x="181" y="379"/>
      <point x="169" y="355"/>
      <point x="166" y="310"/>
      <point x="166" y="271" type="qcurve"/>
      <point x="166" y="239"/>
      <point x="169" y="186"/>
      <point x="184" y="148"/>
      <point x="212" y="126"/>
      <point x="238" y="126" type="qcurve"/>
      <point x="259" y="126"/>
      <point x="293" y="148"/>
      <point x="317" y="185"/>
      <point x="329" y="232"/>
      <point x="329" y="257" type="qcurve"/>
      <point x="329" y="271"/>
      <point x="327" y="301"/>
    </contour>
  </outline>
</glyph>
<glyph name="d" format="1">
  <advance width="463"/>
  <unicode hex="0064"/>
  <outline>
    <contour>
      <point x="297" y="703" type="line"/>
      <point x="297" y="704"/>
      <point x="324" y="707"/>
      <point x="363" y="708"/>
      <point x="407" y="707"/>
      <point x="423" y="704" type="qcurve"/>
      <point x="423" y="638" type="line"/>
      <point x="423" y="471"/>
      <point x="433" y="145"/>
      <point x="429" y="1" type="qcurve"/>
      <point x="398" y="1"/>
      <point x="324" y="-2"/>
      <point x="294" y="2" type="qcurve"/>
      <point x="293" y="4"/>
      <point x="293" y="9" type="qcurve"/>
      <point x="293" y="19"/>
      <point x="292" y="31"/>
      <point x="292" y="42" type="qcurve"/>
      <point x="290" y="47"/>
      <point x="285" y="52"/>
      <point x="282" y="46" type="qcurve"/>
      <point x="267" y="16"/>
      <point x="217" y="-1"/>
      <point x="189" y="3" type="qcurve"/>
      <point x="132" y="7"/>
      <point x="66" y="58"/>
      <point x="33" y="137"/>
      <point x="22" y="235"/>
      <point x="21" y="285" type="qcurve"/>
      <point x="21" y="320"/>
      <point x="30" y="386"/>
      <point x="49" y="441"/>
      <point x="80" y="480"/>
      <point x="102" y="488" type="qcurve"/>
      <point x="129" y="498"/>
      <point x="194" y="503"/>
      <point x="252" y="498"/>
      <point x="292" y="484"/>
      <point x="294" y="475" type="qcurve"/>
      <point x="293" y="522"/>
      <point x="293" y="580"/>
      <point x="293" y="615"/>
      <point x="294" y="634"/>
      <point x="295" y="651"/>
      <point x="296" y="672"/>
      <point x="297" y="692" type="qcurve"/>
    </contour>
    <contour>
      <point x="142" y="315" type="qcurve"/>
      <point x="137" y="301"/>
      <point x="135" y="271"/>
      <point x="135" y="257" type="qcurve"/>
      <point x="135" y="232"/>
      <point x="147" y="185"/>
      <point x="171" y="148"/>
      <point x="205" y="126"/>
      <point x="226" y="126" type="qcurve"/>
      <point x="251" y="126"/>
      <point x="280" y="148"/>
      <point x="295" y="186"/>
      <point x="298" y="239"/>
      <point x="298" y="271" type="qcurve"/>
      <point x="298" y="310"/>
      <point x="295" y="355"/>
      <point x="283" y="379"/>
      <point x="258" y="386"/>
      <point x="237" y="386" type="qcurve"/>
      <point x="196" y="386"/>
      <point x="147" y="350"/>
    </contour>
  </outline>
</glyph>
<glyph name="g" format="1">
  <advance width="467"/>
  <unicode hex="0067"/>
  <outline>
    <contour>
      <point x="135" y="228" type="line"/>
      <point x="135" y="177"/>
      <point x="165" y="141" type="qcurve"/>
      <point x="183" y="119"/>
      <point x="243" y="110"/>
      <point x="269" y="118" type="qcurve"/>
      <point x="278" y="121"/>
      <point x="288" y="134"/>
      <point x="294" y="151"/>
      <point x="297" y="170"/>
      <point x="298" y="179" type="qcurve"/>
      <point x="298" y="219"/>
      <point x="295" y="302"/>
      <point x="285" y="340" type="qcurve"/>
      <point x="279" y="355"/>
      <point x="252" y="372"/>
      <point x="220" y="376"/>
      <point x="189" y="367"/>
      <point x="177" y="357" type="qcurve"/>
      <point x="162" y="340"/>
      <point x="141" y="299"/>
      <point x="137" y="276" type="qcurve"/>
      <point x="135" y="266"/>
      <point x="135" y="247"/>
      <point x="135" y="237" type="qcurve"/>
    </contour>
    <contour>
      <point x="308" y="-200" type="qcurve"/>
      <point x="298" y="-202"/>
      <point x="246" y="-200"/>
      <point x="205" y="-200" type="qcurve"/>
      <point x="158" y="-200"/>
      <point x="84" y="-160"/>
      <point x="61" y="-126" type="qcurve"/>
      <point x="57" y="-119"/>
      <point x="50" y="-96"/>
      <point x="45" y="-72"/>
      <point x="44" y="-50"/>
      <point x="45" y="-42" type="qcurve"/>
      <point x="55" y="-38"/>
      <point x="89" y="-35"/>
      <point x="126" y="-36"/>
      <point x="161" y="-39"/>
      <point x="173" y="-41" type="qcurve"/>
      <point x="173" y="-67"/>
      <point x="206" y="-98"/>
      <point x="247" y="-102"/>
      <point x="286" y="-78"/>
      <point x="292" y="-50" type="qcurve"/>
      <point x="293" y="-40"/>
      <point x="295" y="-19"/>
      <point x="294" y="-11" type="qcurve"/>
      <point x="292" y="6"/>
      <point x="294" y="24" type="qcurve"/>
      <point x="284" y="13"/>
      <point x="257" y="3"/>
      <point x="226" y="-1"/>
      <point x="194" y="-1"/>
      <point x="180" y="-2" type="qcurve"/>
      <point x="161" y="-2"/>
      <point x="122" y="4"/>
      <point x="87" y="18"/>
      <point x="59" y="42"/>
      <point x="50" y="61" type="qcurve"/>
      <point x="36" y="88"/>
      <point x="24" y="147"/>
      <point x="22" y="178" type="qcurve"/>
      <point x="22" y="225"/>
      <point x="26" y="333"/>
      <point x="57" y="428"/>
      <point x="125" y="493"/>
      <point x="189" y="497" type="qcurve"/>
      <point x="221" y="499"/>
      <point x="276" y="478"/>
      <point x="288" y="450" type="qcurve"/>
      <point x="292" y="448"/>
      <point x="293" y="459"/>
      <point x="292" y="476"/>
      <point x="291" y="493"/>
      <point x="294" y="498" type="qcurve"/>
      <point x="327" y="502"/>
      <point x="395" y="499"/>
      <point x="429" y="499" type="qcurve"/>
      <point x="433" y="374"/>
      <point x="434" y="101"/>
      <point x="428" y="-43" type="qcurve"/>
      <point x="427" y="-67"/>
      <point x="429" y="-114"/>
      <point x="419" y="-130" type="qcurve"/>
      <point x="405" y="-152"/>
      <point x="376" y="-178"/>
      <point x="348" y="-193"/>
      <point x="320" y="-199"/>
    </contour>
  </outline>
</glyph>
<glyph name="i" format="1">
  <advance width="207"/>
  <unicode hex="0069"/>
  <outline>
    <contour>
      <point x="175" y="503" type="line"/>
      <point x="175" y="500" type="line"/>
      <point x="174" y="379"/>
      <point x="167" y="127"/>
      <point x="174" y="6" type="qcurve"/>
      <point x="169" y="0"/>
      <point x="129" y="-1"/>
      <point x="82" y="0"/>
      <point x="40" y="2"/>
      <point x="33" y="0" type="qcurve"/>
      <point x="38" y="63"/>
      <point x="37" y="193"/>
      <point x="33" y="321"/>
      <point x="33" y="446"/>
      <point x="39" y="505" type="qcurve"/>
      <point x="39" y="506" type="line"/>
      <point x="43" y="507"/>
      <point x="62" y="505"/>
      <point x="67" y="505" type="qcurve"/>
      <point x="80" y="504"/>
      <point x="126" y="502"/>
      <point x="158" y="503" type="qcurve"/>
    </contour>
    <contour>
      <point x="171" y="718" type="line"/>
      <point x="171" y="712"/>
      <point x="172" y="681"/>
      <point x="173" y="644"/>
      <point x="174" y="605"/>
      <point x="174" y="590" type="qcurve"/>
      <point x="170" y="584"/>
      <point x="141" y="580"/>
      <point x="102" y="581"/>
      <point x="58" y="584"/>
      <point x="39" y="583" type="qcurve"/>
      <point x="39" y="612"/>
      <point x="34" y="675"/>
      <point x="35" y="721" type="qcurve"/>
    </contour>
  </outline>
</glyph>
<glyph name="k" format="1">
  <advance width="435"/>
  <unicode hex="006B"/>
  <outline>
    <contour>
      <point x="174" y="507" type="line"/>
      <point x="174" y="474"/>
      <point x="171" y="400"/>
      <point x="174" y="377" type="qcurve"/>
      <point x="191" y="392"/>
      <point x="216" y="428"/>
      <point x="238" y="465"/>
      <point x="261" y="503"/>
      <point x="276" y="520" type="qcurve"/>
      <point x="289" y="515"/>
      <point x="331" y="514"/>
      <point x="376" y="515"/>
      <point x="420" y="518"/>
      <point x="434" y="517" type="qcurve"/>
      <point x="397" y="460"/>
      <point x="311" y="349"/>
      <point x="269" y="293" type="qcurve"/>
      <point x="314" y="220"/>
      <point x="405" y="77"/>
      <point x="443" y="0" type="qcurve"/>
      <point x="429" y="0"/>
      <point x="386" y="-3"/>
      <point x="340" y="-5"/>
      <point x="297" y="-3"/>
      <point x="282" y="0" type="qcurve"/>
      <point x="267" y="24"/>
      <point x="242" y="74"/>
      <point x="218" y="123"/>
      <point x="191" y="171"/>
      <point x="174" y="193" type="qcurve"/>
      <point x="174" y="175"/>
      <point x="176" y="127"/>
      <point x="176" y="75"/>
      <point x="174" y="22"/>
      <point x="170" y="0" type="qcurve"/>
      <point x="159" y="1"/>
      <point x="126" y="0"/>
      <point x="90" y="-2"/>
      <point x="53" y="-2"/>
      <point x="38" y="0" type="qcurve"/>
      <point x="31" y="186"/>
      <point x="39" y="544"/>
      <point x="38" y="726" type="qcurve"/>
      <point x="53" y="726"/>
      <point x="90" y="727"/>
      <point x="127" y="728"/>
      <point x="161" y="728"/>
      <point x="174" y="726" type="qcurve"/>
    </contour>
  </outline>
</glyph>
<glyph name="l" format="1">
  <advance width="206"/>
  <unicode hex="006C"/>
  <outline>
    <contour>
      <point x="175" y="724" type="line"/>
      <point x="175" y="683"/>
      <point x="173" y="567"/>
      <point x="171" y="435"/>
      <point x="170" y="293"/>
      <point x="170" y="161"/>
      <point x="172" y="46"/>
      <point x="174" y="6" type="qcurve"/>
      <point x="169" y="0"/>
      <point x="129" y="-1"/>
      <point x="82" y="0"/>
      <point x="40" y="2"/>
      <point x="33" y="0" type="qcurve"/>
      <point x="40" y="90"/>
      <point x="37" y="272"/>
      <point x="31" y="454"/>
      <point x="30" y="636"/>
      <point x="39" y="727" type="qcurve"/>
    </contour>
  </outline>
</glyph>
<glyph name="n" format="1">
  <advance width="450"/>
  <unicode hex="006E"/>
  <outline>
    <contour>
      <point x="169" y="446" type="qcurve"/>
      <point x="174" y="449"/>
      <point x="189" y="457"/>
      <point x="194" y="461" type="qcurve"/>
      <point x="215" y="476"/>
      <point x="267" y="494"/>
      <point x="322" y="496"/>
      <point x="374" y="482"/>
      <point x="395" y="464" type="qcurve"/>
      <point x="405" y="455"/>
      <point x="416" y="398"/>
      <point x="419" y="318"/>
      <point x="418" y="223"/>
      <point x="416" y="126"/>
      <point x="414" y="36"/>
      <point x="416" y="2" type="qcurve"/>
      <point x="381" y="-3"/>
      <point x="326" y="-2"/>
      <point x="291" y="-2" type="qcurve"/>
      <point x="289" y="21"/>
      <point x="289" y="79"/>
      <point x="290" y="141"/>
      <point x="289" y="203"/>
      <point x="287" y="230" type="qcurve"/>
      <point x="286" y="242"/>
      <point x="284" y="271"/>
      <point x="279" y="299"/>
      <point x="270" y="321"/>
      <point x="262" y="327" type="qcurve"/>
      <point x="261" y="328"/>
      <point x="259" y="328"/>
      <point x="258" y="329" type="qcurve"/>
      <point x="250" y="333"/>
      <point x="219" y="338"/>
      <point x="189" y="329"/>
      <point x="165" y="302"/>
      <point x="163" y="275" type="qcurve"/>
      <point x="161" y="240"/>
      <point x="163" y="173"/>
      <point x="166" y="106"/>
      <point x="166" y="40"/>
      <point x="162" y="7" type="qcurve"/>
      <point x="162" y="3" type="line"/>
      <point x="145" y="-2"/>
      <point x="120" y="-4"/>
      <point x="94" y="-3"/>
      <point x="62" y="-1"/>
      <point x="38" y="-3" type="qcurve"/>
      <point x="38" y="120"/>
      <point x="33" y="366"/>
      <point x="37" y="498" type="qcurve"/>
      <point x="49" y="497"/>
      <point x="65" y="496"/>
      <point x="79" y="496"/>
      <point x="95" y="497"/>
      <point x="107" y="498" type="qcurve"/>
      <point x="111" y="498"/>
      <point x="131" y="501"/>
      <point x="151" y="503"/>
      <point x="167" y="502"/>
      <point x="167" y="499" type="qcurve"/>
      <point x="169" y="482"/>
      <point x="168" y="460"/>
    </contour>
  </outline>
</glyph>
<glyph name="r" format="1">
  <advance width="368"/>
  <unicode hex="0072"/>
  <outline>
    <contour>
      <point x="173" y="465" type="qcurve"/>
      <point x="177" y="467"/>
      <point x="206" y="479"/>
      <point x="220" y="484" type="qcurve"/>
      <point x="239" y="490"/>
      <point x="287" y="497"/>
      <point x="329" y="499"/>
      <point x="358" y="498"/>
      <point x="358" y="497" type="qcurve"/>
      <point x="358" y="463"/>
      <point x="357" y="411"/>
      <point x="357" y="370"/>
      <point x="357" y="336"/>
      <point x="358" y="321" type="qcurve"/>
      <point x="349" y="324" type="line"/>
      <point x="344" y="326"/>
      <point x="333" y="329"/>
      <point x="328" y="331" type="qcurve"/>
      <point x="316" y="334"/>
      <point x="291" y="338"/>
      <point x="290" y="338" type="qcurve"/>
      <point x="263" y="341"/>
      <point x="218" y="341"/>
      <point x="185" y="327"/>
      <point x="167" y="297"/>
      <point x="168" y="269" type="qcurve"/>
      <point x="169" y="234"/>
      <point x="171" y="172"/>
      <point x="171" y="109"/>
      <point x="172" y="44"/>
      <point x="172" y="7" type="qcurve"/>
      <point x="172" y="3" type="line"/>
      <point x="155" y="-2"/>
      <point x="127" y="-4"/>
      <point x="97" y="-3"/>
      <point x="62" y="-1"/>
      <point x="38" y="-3" type="qcurve"/>
      <point x="38" y="120"/>
      <point x="33" y="366"/>
      <point x="37" y="498" type="qcurve"/>
      <point x="49" y="497"/>
      <point x="65" y="496"/>
      <point x="79" y="496"/>
      <point x="95" y="497"/>
      <point x="107" y="498" type="qcurve"/>
      <point x="111" y="498"/>
      <point x="132" y="500"/>
      <point x="155" y="502"/>
      <point x="172" y="501"/>
      <point x="172" y="499" type="qcurve"/>
      <point x="172" y="491"/>
      <point x="172" y="483"/>
      <point x="172" y="478"/>
      <point x="173" y="472"/>
    </contour>
  </outline>
</glyph>
<glyph name="s" format="1">
  <advance width="450"/>
  <unicode hex="0073"/>
  <outline>
    <contour>
      <point x="436" y="346" type="qcurve"/>
      <point x="404" y="341"/>
      <point x="327" y="339"/>
      <point x="293" y="346" type="qcurve"/>
      <point x="296" y="358"/>
      <point x="285" y="382"/>
      <point x="264" y="400"/>
      <point x="237" y="409"/>
      <point x="224" y="408" type="qcurve"/>
      <point x="201" y="404"/>
      <point x="178" y="377"/>
      <point x="178" y="345"/>
      <point x="202" y="313"/>
      <point x="225" y="305" type="qcurve"/>
      <point x="281" y="297"/>
      <point x="379" y="270"/>
      <point x="402" y="240" type="qcurve"/>
      <point x="424" y="204"/>
      <point x="434" y="129"/>
      <point x="415" y="74" type="qcurve"/>
      <point x="392" y="25"/>
      <point x="294" y="-17"/>
      <point x="236" y="-16" type="qcurve"/>
      <point x="185" y="-18"/>
      <point x="103" y="4"/>
      <point x="44" y="48"/>
      <point x="11" y="112"/>
      <point x="11" y="152" type="qcurve"/>
      <point x="11" y="155" type="line"/>
      <point x="11" y="157" type="line"/>
      <point x="44" y="161"/>
      <point x="128" y="158"/>
      <point x="159" y="158" type="qcurve"/>
      <point x="160" y="135"/>
      <point x="201" y="106"/>
      <point x="247" y="101"/>
      <point x="285" y="123"/>
      <point x="284" y="152" type="qcurve"/>
      <point x="287" y="176"/>
      <point x="259" y="200"/>
      <point x="213" y="213"/>
      <point x="155" y="223"/>
      <point x="127" y="235" type="qcurve"/>
      <point x="71" y="254"/>
      <point x="20" y="335"/>
      <point x="23" y="422"/>
      <point x="76" y="496"/>
      <point x="125" y="509" type="qcurve"/>
      <point x="144" y="514"/>
      <point x="199" y="520"/>
      <point x="261" y="520"/>
      <point x="323" y="513"/>
      <point x="349" y="507" type="qcurve"/>
      <point x="396" y="487"/>
      <point x="436" y="400"/>
    </contour>
  </outline>
</glyph>
<glyph name="t" format="1">
  <advance width="387"/>
  <unicode hex="0074"/>
  <outline>
    <contour>
      <point x="215" y="550" type="line"/>
      <point x="215" y="537"/>
      <point x="216" y="509"/>
      <point x="216" y="494" type="qcurve"/>
      <point x="247" y="495"/>
      <point x="316" y="499"/>
      <point x="367" y="502" type="qcurve"/>
      <point x="374" y="494"/>
      <point x="376" y="463"/>
      <point x="374" y="427"/>
      <point x="371" y="390"/>
      <point x="373" y="377" type="qcurve"/>
      <point x="218" y="377" type="line"/>
      <point x="218" y="323"/>
      <point x="218" y="220"/>
      <point x="219" y="175" type="qcurve"/>
      <point x="229" y="161"/>
      <point x="267" y="145"/>
      <point x="311" y="136"/>
      <point x="356" y="134"/>
      <point x="373" y="135" type="qcurve"/>
      <point x="375" y="121"/>
      <point x="379" y="87"/>
      <point x="381" y="51"/>
      <point x="378" y="15"/>
      <point x="373" y="0" type="qcurve"/>
      <point x="333" y="-2"/>
      <point x="247" y="3"/>
      <point x="171" y="21"/>
      <point x="112" y="57"/>
      <point x="99" y="88" type="qcurve"/>
      <point x="86" y="165"/>
      <point x="82" y="302"/>
      <point x="83" y="375" type="qcurve"/>
      <point x="67" y="374"/>
      <point x="32" y="374"/>
      <point x="11" y="374" type="qcurve"/>
      <point x="14" y="496" type="line"/>
      <point x="34" y="495"/>
      <point x="69" y="495"/>
      <point x="85" y="495" type="qcurve"/>
      <point x="85" y="517"/>
      <point x="83" y="568"/>
      <point x="83" y="620"/>
      <point x="84" y="668"/>
      <point x="86" y="687" type="qcurve"/>
      <point x="99" y="689"/>
      <point x="130" y="687"/>
      <point x="164" y="684"/>
      <point x="198" y="682"/>
      <point x="215" y="684" type="qcurve"/>
    </contour>
  </outline>
</glyph>
<glyph name="w" format="1">
  <advance width="683"/>
  <unicode hex="0077"/>
  <outline>
    <contour>
      <point x="151" y="497" type="qcurve"/>
      <point x="158" y="461"/>
      <point x="172" y="368"/>
      <point x="187" y="272"/>
      <point x="205" y="185"/>
      <point x="216" y="155" type="qcurve"/>
      <point x="227" y="185"/>
      <point x="241" y="237"/>
      <point x="255" y="298"/>
      <point x="270" y="375"/>
      <point x="282" y="430" type="qcurve"/>
      <point x="282" y="430"/>
      <point x="287" y="452"/>
      <point x="291" y="478"/>
      <point x="295" y="500"/>
      <point x="295" y="500" type="qcurve"/>
      <point x="314" y="498"/>
      <point x="342" y="500"/>
      <point x="367" y="502"/>
      <point x="391" y="502"/>
      <point x="406" y="499" type="qcurve"/>
      <point x="413" y="463"/>
      <point x="426" y="369"/>
      <point x="441" y="273"/>
      <point x="459" y="185"/>
      <point x="470" y="155" type="qcurve"/>
      <point x="482" y="184"/>
      <point x="504" y="281"/>
      <point x="524" y="383"/>
      <point x="543" y="473"/>
      <point x="552" y="496" type="qcurve"/>
      <point x="584" y="496"/>
      <point x="642" y="502"/>
      <point x="682" y="499" type="qcurve"/>
      <point x="661" y="442"/>
      <point x="630" y="319"/>
      <point x="602" y="191"/>
      <point x="574" y="62"/>
      <point x="557" y="-1" type="qcurve"/>
      <point x="537" y="-4"/>
      <point x="492" y="-5"/>
      <point x="445" y="-4"/>
      <point x="400" y="-3"/>
      <point x="381" y="-3" type="qcurve"/>
      <point x="372" y="51"/>
      <point x="353" y="173"/>
      <point x="342" y="229" type="qcurve"/>
      <point x="330" y="174"/>
      <point x="317" y="53"/>
      <point x="303" y="-1" type="qcurve"/>
      <point x="283" y="-4"/>
      <point x="234" y="-5"/>
      <point x="183" y="-4"/>
      <point x="134" y="-3"/>
      <point x="115" y="-3" type="qcurve"/>
      <point x="95" y="122"/>
      <point x="43" y="382"/>
      <point x="11" y="500" type="qcurve"/>
      <point x="47" y="496"/>
      <point x="119" y="501"/>
    </contour>
  </outline>
</glyph>
<glyph name="x" format="1">
  <advance width="413"/>
  <unicode hex="0078"/>
  <outline>
    <contour>
      <point x="412" y="500" type="qcurve"/>
      <point x="392" y="438"/>
      <point x="341" y="311"/>
      <point x="330" y="246" type="qcurve"/>
      <point x="341" y="186"/>
      <point x="387" y="58"/>
      <point x="401" y="0" type="qcurve"/>
      <point x="396" y="1"/>
      <point x="388" y="1"/>
      <point x="383" y="1" type="qcurve"/>
      <point x="372" y="1"/>
      <point x="346" y="0"/>
      <point x="334" y="0" type="qcurve"/>
      <point x="330" y="0"/>
      <point x="307" y="0"/>
      <point x="282" y="1"/>
      <point x="259" y="2"/>
      <point x="256" y="3" type="qcurve"/>
      <point x="255" y="3" type="line"/>
      <point x="247" y="20"/>
      <point x="236" y="61"/>
      <point x="226" y="103"/>
      <point x="215" y="144"/>
      <point x="207" y="161" type="qcurve"/>
      <point x="207" y="162" type="line"/>
      <point x="189" y="122"/>
      <point x="171" y="35"/>
      <point x="154" y="-1" type="qcurve"/>
      <point x="150" y="-1"/>
      <point x="130" y="-1"/>
      <point x="106" y="-2"/>
      <point x="85" y="-2"/>
      <point x="81" y="-2" type="qcurve"/>
      <point x="65" y="-2"/>
      <point x="22" y="-1"/>
      <point x="9" y="4" type="qcurve"/>
      <point x="16" y="30"/>
      <point x="37" y="91"/>
      <point x="59" y="154"/>
      <point x="79" y="218"/>
      <point x="86" y="247" type="qcurve"/>
      <point x="74" y="309"/>
      <point x="25" y="437"/>
      <point x="2" y="497" type="qcurve"/>
      <point x="47" y="500"/>
      <point x="72" y="500" type="qcurve"/>
      <point x="81" y="500"/>
      <point x="110" y="500"/>
      <point x="137" y="500"/>
      <point x="157" y="498"/>
      <point x="158" y="497" type="qcurve"/>
      <point x="162" y="482"/>
      <point x="175" y="435"/>
      <point x="188" y="386"/>
      <point x="200" y="340"/>
      <point x="205" y="327" type="qcurve"/>
      <point x="211" y="341"/>
      <point x="224" y="386"/>
      <point x="237" y="436"/>
      <point x="248" y="483"/>
      <point x="253" y="498" type="qcurve"/>
      <point x="262" y="499"/>
      <point x="299" y="500"/>
      <point x="344" y="501"/>
      <point x="392" y="501"/>
      <point x="412" y="501" type="qcurve"/>
      <point x="413" y="501" type="line"/>
      <point x="413" y="500"/>
    </contour>
  </outline>
</glyph>
<glyph name="y" format="1">
  <advance width="449"/>
  <unicode hex="0079"/>
  <outline>
    <contour>
      <point x="151" y="497" type="qcurve"/>
      <point x="158" y="461"/>
      <point x="176" y="362"/>
      <point x="196" y="260"/>
      <point x="218" y="167"/>
      <point x="229" y="137" type="qcurve"/>
      <point x="240" y="167"/>
      <point x="254" y="265"/>
      <point x="267" y="371"/>
      <point x="283" y="469"/>
      <point x="295" y="499" type="qcurve"/>
      <point x="329" y="498"/>
      <point x="399" y="502"/>
      <point x="441" y="499" type="qcurve"/>
      <point x="425" y="439"/>
      <point x="400" y="330"/>
      <point x="388" y="278" type="qcurve"/>
      <point x="375" y="229"/>
      <point x="354" y="121"/>
      <point x="323" y="17"/>
      <point x="275" y="-77"/>
      <point x="196" y="-146"/>
      <point x="79" y="-182"/>
      <point x="-6" y="-177" type="qcurve"/>
      <point x="-16" y="-147"/>
      <point x="-17" y="-72"/>
      <point x="-12" y="-44" type="qcurve"/>
      <point x="12" y="-44"/>
      <point x="63" y="-48"/>
      <point x="103" y="-39"/>
      <point x="124" y="-9"/>
      <point x="119" y="24" type="qcurve"/>
      <point x="98" y="145"/>
      <point x="34" y="387"/>
      <point x="3" y="500" type="qcurve"/>
      <point x="39" y="496"/>
      <point x="119" y="501"/>
    </contour>
  </outline>
</glyph>
<glyph name="z" format="1">
  <advance width="456"/>
  <unicode hex="007A"/>
  <outline>
    <contour>
      <point x="434" y="497" type="qcurve"/>
      <point x="434" y="459"/>
      <point x="430" y="396"/>
      <point x="434" y="363" type="qcurve"/>
      <point x="383" y="308"/>
      <point x="263" y="197"/>
      <point x="212" y="140" type="qcurve"/>
      <point x="262" y="144"/>
      <point x="375" y="138"/>
      <point x="429" y="146" type="qcurve"/>
      <point x="429" y="114"/>
      <point x="431" y="42"/>
      <point x="431" y="7" type="qcurve"/>
      <point x="385" y="6"/>
      <point x="282" y="4"/>
      <point x="176" y="2"/>
      <point x="72" y="1"/>
      <point x="24" y="1" type="qcurve"/>
      <point x="25" y="30"/>
      <point x="24" y="66"/>
      <point x="22" y="92"/>
      <point x="21" y="114"/>
      <point x="22" y="129" type="qcurve"/>
      <point x="46" y="160"/>
      <point x="104" y="219"/>
      <point x="166" y="276"/>
      <point x="226" y="333"/>
      <point x="251" y="363" type="qcurve"/>
      <point x="225" y="362"/>
      <point x="165" y="360"/>
      <point x="105" y="356"/>
      <point x="50" y="350"/>
      <point x="28" y="347" type="qcurve"/>
      <point x="26" y="374"/>
      <point x="26" y="412"/>
      <point x="27" y="443"/>
      <point x="29" y="475"/>
      <point x="28" y="497" type="qcurve"/>
      <point x="109" y="497"/>
      <point x="252" y="498"/>
      <point x="306" y="498" type="qcurve"/>
      <point x="314" y="496"/>
      <point x="353" y="497"/>
      <point x="395" y="498"/>
      <point x="430" y="499"/>
    </contour>
  </outline>
</glyph>
<glyph name="braceleft" format="1">
  <advance width="318"/>
  <unicode hex="007B"/>
  <outline>
    <contour>
      <point x="292" y="1" type="qcurve"/>
      <point x="250" y="-4"/>
      <point x="187" y="12"/>
      <point x="144" y="43"/>
      <point x="122" y="85"/>
      <point x="123" y="108" type="qcurve"/>
      <point x="127" y="136"/>
      <point x="126" y="202"/>
      <point x="105" y="259"/>
      <point x="60" y="296"/>
      <point x="21" y="294" type="qcurve"/>
      <point x="15" y="294"/>
      <point x="13" y="295" type="qcurve"/>
      <point x="8" y="319"/>
      <point x="11" y="370"/>
      <point x="15" y="393" type="qcurve"/>
      <point x="54" y="389"/>
      <point x="101" y="418"/>
      <point x="125" y="468"/>
      <point x="129" y="531"/>
      <point x="126" y="562" type="qcurve"/>
      <point x="122" y="582"/>
      <point x="127" y="621"/>
      <point x="145" y="652"/>
      <point x="173" y="673"/>
      <point x="192" y="676" type="qcurve"/>
      <point x="221" y="679"/>
      <point x="265" y="680"/>
      <point x="289" y="678" type="qcurve"/>
      <point x="293" y="654"/>
      <point x="292" y="607"/>
      <point x="290" y="585" type="qcurve"/>
      <point x="274" y="580"/>
      <point x="242" y="564"/>
      <point x="238" y="545" type="qcurve"/>
      <point x="234" y="516"/>
      <point x="238" y="454"/>
      <point x="235" y="398"/>
      <point x="213" y="353"/>
      <point x="183" y="342" type="qcurve"/>
      <point x="216" y="324"/>
      <point x="238" y="255"/>
      <point x="236" y="213" type="qcurve"/>
      <point x="235" y="196"/>
      <point x="237" y="159"/>
      <point x="248" y="128"/>
      <point x="272" y="105"/>
      <point x="293" y="103" type="qcurve"/>
      <point x="293" y="80"/>
      <point x="294" y="24"/>
    </contour>
  </outline>
</glyph>
<glyph name="bar" format="1">
  <advance width="201"/>
  <unicode hex="007C"/>
  <outline>
    <contour>
      <point x="148" y="-28" type="line"/>
      <point x="136" y="-28"/>
      <point x="103" y="-27"/>
      <point x="72" y="-26"/>
      <point x="48" y="-25"/>
      <point x="45" y="-25" type="qcurve"/>
      <point x="45" y="-24"/>
      <point x="45" y="27"/>
      <point x="45" y="109"/>
      <point x="45" y="216"/>
      <point x="45" y="329"/>
      <point x="45" y="439"/>
      <point x="45" y="530"/>
      <point x="45" y="592"/>
      <point x="45" y="601" type="qcurve"/>
      <point x="45" y="726" type="line"/>
      <point x="66" y="726"/>
      <point x="90" y="725"/>
      <point x="111" y="724"/>
      <point x="135" y="726"/>
      <point x="155" y="729" type="qcurve"/>
      <point x="155" y="728" type="line"/>
      <point x="155" y="724"/>
      <point x="156" y="656"/>
      <point x="156" y="551"/>
      <point x="157" y="419"/>
      <point x="157" y="281"/>
      <point x="157" y="149"/>
      <point x="157" y="44"/>
      <point x="157" y="-24"/>
      <point x="157" y="-28" type="qcurve"/>
    </contour>
  </outline>
</glyph>
<glyph name="asciitilde" format="1">
  <advance width="570"/>
  <unicode hex="007E"/>
  <outline>
    <contour>
      <point x="169" y="133" type="line"/>
      <point x="157" y="136"/>
      <point x="107" y="137"/>
      <point x="81" y="137" type="qcurve"/>
      <point x="51" y="137"/>
      <point x="17" y="136" type="qcurve"/>
      <point x="21" y="151"/>
      <point x="37" y="196"/>
      <point x="58" y="246"/>
      <point x="82" y="291"/>
      <point x="95" y="306" type="qcurve"/>
      <point x="112" y="323"/>
      <point x="156" y="346"/>
      <point x="203" y="353"/>
      <point x="251" y="345"/>
      <point x="272" y="331" type="qcurve"/>
      <point x="282" y="324"/>
      <point x="298" y="307"/>
      <point x="311" y="289"/>
      <point x="325" y="273"/>
      <point x="333" y="267" type="qcurve"/>
      <point x="352" y="250"/>
      <point x="386" y="259"/>
      <point x="412" y="287"/>
      <point x="430" y="324"/>
      <point x="433" y="336" type="qcurve"/>
      <point x="459" y="338"/>
      <point x="514" y="339"/>
      <point x="541" y="340" type="qcurve"/>
      <point x="541" y="340"/>
      <point x="544" y="337" type="qcurve"/>
      <point x="548" y="316"/>
      <point x="544" y="272"/>
      <point x="529" y="229"/>
      <point x="508" y="189"/>
      <point x="496" y="172" type="qcurve"/>
      <point x="474" y="145"/>
      <point x="444" y="135" type="qcurve"/>
      <point x="422" y="127"/>
      <point x="374" y="126"/>
      <point x="331" y="140"/>
      <point x="296" y="170"/>
      <point x="286" y="193" type="qcurve"/>
      <point x="277" y="206"/>
      <point x="255" y="223"/>
      <point x="235" y="222" type="qcurve"/>
      <point x="214" y="222"/>
      <point x="190" y="210" type="qcurve"/>
      <point x="174" y="200"/>
      <point x="169" y="186" type="qcurve"/>
      <point x="164" y="172"/>
      <point x="165" y="150"/>
      <point x="169" y="134" type="qcurve"/>
    </contour>
  </outline>
</glyph>
<glyph name="cent" format="1">
  <advance width="350"/>
  <unicode hex="00A2"/>
  <outline>
    <contour>
      <point x="132" y="398" type="qcurve"/>
      <point x="130" y="364"/>
      <point x="130" y="298"/>
      <point x="133" y="265" type="qcurve"/>
      <point x="134" y="248"/>
      <point x="146" y="214"/>
      <point x="161" y="206" type="qcurve"/>
      <point x="162" y="271"/>
      <point x="162" y="407"/>
      <point x="160" y="472" type="qcurve"/>
      <point x="148" y="472"/>
      <point x="137" y="456"/>
      <point x="133" y="433"/>
      <point x="133" y="408"/>
    </contour>
    <contour>
      <point x="198" y="206" type="line"/>
      <point x="211" y="211"/>
      <point x="222" y="232"/>
      <point x="226" y="256"/>
      <point x="226" y="282"/>
      <point x="228" y="293" type="qcurve"/>
      <point x="237" y="292"/>
      <point x="261" y="293"/>
      <point x="286" y="294"/>
      <point x="310" y="292"/>
      <point x="319" y="289" type="qcurve"/>
      <point x="319" y="288" type="line"/>
      <point x="318" y="268"/>
      <point x="325" y="226"/>
      <point x="323" y="206" type="qcurve"/>
      <point x="320" y="183"/>
      <point x="297" y="145"/>
      <point x="263" y="116"/>
      <point x="221" y="97"/>
      <point x="199" y="94" type="qcurve"/>
      <point x="197" y="94" type="line"/>
      <point x="197" y="93" type="line"/>
      <point x="195" y="77"/>
      <point x="199" y="44"/>
      <point x="196" y="30" type="qcurve"/>
      <point x="195" y="30"/>
      <point x="194" y="29"/>
      <point x="193" y="29" type="qcurve"/>
      <point x="188" y="27"/>
      <point x="168" y="22"/>
      <point x="163" y="30" type="qcurve"/>
      <point x="161" y="45"/>
      <point x="162" y="73"/>
      <point x="161" y="93" type="qcurve"/>
      <point x="142" y="90"/>
      <point x="100" y="98"/>
      <point x="64" y="119"/>
      <point x="38" y="153"/>
      <point x="35" y="176" type="qcurve"/>
      <point x="31" y="212"/>
      <point x="28" y="276"/>
      <point x="29" y="339"/>
      <point x="31" y="404"/>
      <point x="31" y="442" type="qcurve"/>
      <point x="28" y="470"/>
      <point x="43" y="528"/>
      <point x="76" y="572"/>
      <point x="127" y="594"/>
      <point x="160" y="586" type="qcurve"/>
      <point x="163" y="598"/>
      <point x="161" y="631"/>
      <point x="162" y="646" type="qcurve"/>
      <point x="165" y="651"/>
      <point x="189" y="656"/>
      <point x="197" y="650" type="qcurve"/>
      <point x="197" y="649" type="line"/>
      <point x="197" y="631"/>
      <point x="195" y="598"/>
      <point x="197" y="584" type="qcurve"/>
      <point x="198" y="584" type="line"/>
      <point x="233" y="583"/>
      <point x="288" y="544"/>
      <point x="321" y="486"/>
      <point x="330" y="416"/>
      <point x="320" y="385" type="qcurve"/>
      <point x="320" y="384" type="line"/>
      <point x="293" y="380"/>
      <point x="246" y="382"/>
      <point x="220" y="387" type="qcurve"/>
      <point x="218" y="397"/>
      <point x="218" y="423"/>
      <point x="216" y="447"/>
      <point x="207" y="468"/>
      <point x="197" y="474" type="qcurve"/>
      <point x="196" y="433"/>
      <point x="196" y="374"/>
      <point x="196" y="317"/>
      <point x="197" y="252"/>
      <point x="197" y="206" type="qcurve"/>
    </contour>
  </outline>
</glyph>
<glyph name="sterling" format="1">
  <advance width="486"/>
  <unicode hex="00A3"/>
  <outline>
    <contour>
      <point x="146" y="370" type="line"/>
      <point x="151" y="370" type="line"/>
      <point x="152" y="370" type="line"/>
      <point x="150" y="414"/>
      <point x="150" y="514"/>
      <point x="151" y="601"/>
      <point x="154" y="663"/>
      <point x="156" y="669" type="qcurve"/>
      <point x="159" y="669"/>
      <point x="187" y="668"/>
      <point x="223" y="669"/>
      <point x="260" y="672"/>
      <point x="273" y="675" type="qcurve"/>
      <point x="273" y="674" type="line"/>
      <point x="275" y="593"/>
      <point x="275" y="446"/>
      <point x="273" y="366" type="qcurve"/>
      <point x="311" y="364"/>
      <point x="356" y="362"/>
      <point x="383" y="361"/>
      <point x="398" y="363"/>
      <point x="404" y="365" type="qcurve"/>
      <point x="405" y="365" type="line"/>
      <point x="408" y="342"/>
      <point x="406" y="297"/>
      <point x="403" y="261"/>
      <point x="401" y="235"/>
      <point x="404" y="232" type="qcurve"/>
      <point x="368" y="233"/>
      <point x="323" y="233"/>
      <point x="296" y="232"/>
      <point x="280" y="231"/>
      <point x="272" y="231" type="qcurve"/>
      <point x="270" y="228"/>
      <point x="272" y="208"/>
      <point x="277" y="187"/>
      <point x="282" y="169"/>
      <point x="283" y="168" type="qcurve"/>
      <point x="288" y="167"/>
      <point x="318" y="166"/>
      <point x="357" y="164"/>
      <point x="401" y="161"/>
      <point x="439" y="159"/>
      <point x="465" y="157"/>
      <point x="468" y="157" type="qcurve"/>
      <point x="463" y="74"/>
      <point x="461" y="6"/>
      <point x="460" y="2" type="qcurve"/>
      <point x="383" y="2"/>
      <point x="270" y="2"/>
      <point x="195" y="3"/>
      <point x="155" y="7"/>
      <point x="150" y="11" type="qcurve"/>
      <point x="154" y="62"/>
      <point x="150" y="184"/>
      <point x="148" y="235" type="qcurve"/>
      <point x="110" y="236"/>
      <point x="62" y="236"/>
      <point x="34" y="236"/>
      <point x="23" y="236"/>
      <point x="21" y="237" type="qcurve"/>
      <point x="21" y="273"/>
      <point x="20" y="318"/>
      <point x="19" y="345"/>
      <point x="18" y="357"/>
      <point x="19" y="360" type="qcurve"/>
      <point x="19" y="362"/>
      <point x="20" y="363" type="qcurve"/>
      <point x="35" y="369"/>
      <point x="65" y="372"/>
      <point x="96" y="370"/>
      <point x="128" y="368"/>
      <point x="143" y="370" type="qcurve"/>
    </contour>
  </outline>
</glyph>
<glyph name="currency" format="1">
  <advance width="607"/>
  <unicode hex="00A4"/>
  <outline>
    <contour>
      <point x="217" y="558" type="qcurve"/>
      <point x="225" y="559"/>
      <point x="261" y="566"/>
      <point x="269" y="566" type="qcurve"/>
      <point x="298" y="568"/>
      <point x="362" y="564"/>
      <point x="391" y="559" type="qcurve"/>
      <point x="416" y="586"/>
      <point x="463" y="641"/>
      <point x="486" y="666" type="qcurve"/>
      <point x="589" y="578" type="line"/>
      <point x="571" y="557"/>
      <point x="528" y="509"/>
      <point x="506" y="484" type="qcurve"/>
      <point x="520" y="459"/>
      <point x="526" y="426" type="qcurve"/>
      <point x="530" y="406"/>
      <point x="529" y="366"/>
      <point x="529" y="345" type="qcurve"/>
      <point x="529" y="308"/>
      <point x="517" y="232"/>
      <point x="500" y="200" type="qcurve"/>
      <point x="522" y="173"/>
      <point x="571" y="119"/>
      <point x="589" y="111" type="qcurve"/>
      <point x="570" y="95" type="line"/>
      <point x="563" y="92"/>
      <point x="537" y="69"/>
      <point x="509" y="43"/>
      <point x="483" y="24"/>
      <point x="476" y="25" type="qcurve"/>
      <point x="457" y="46"/>
      <point x="436" y="66"/>
      <point x="419" y="82"/>
      <point x="401" y="100"/>
      <point x="385" y="119" type="qcurve"/>
      <point x="339" y="110"/>
      <point x="244" y="108"/>
      <point x="200" y="118" type="qcurve"/>
      <point x="189" y="103"/>
      <point x="156" y="59"/>
      <point x="131" y="25" type="qcurve"/>
      <point x="123" y="24"/>
      <point x="92" y="48"/>
      <point x="57" y="80"/>
      <point x="25" y="108"/>
      <point x="18" y="111" type="qcurve"/>
      <point x="36" y="132"/>
      <point x="60" y="160"/>
      <point x="77" y="180"/>
      <point x="87" y="194"/>
      <point x="92" y="200" type="qcurve"/>
      <point x="92" y="201" type="line"/>
      <point x="87" y="216"/>
      <point x="83" y="241"/>
      <point x="81" y="254" type="qcurve"/>
      <point x="79" y="277"/>
      <point x="77" y="340"/>
      <point x="79" y="406"/>
      <point x="86" y="468"/>
      <point x="92" y="491" type="qcurve"/>
      <point x="74" y="515"/>
      <point x="56" y="534"/>
      <point x="44" y="546"/>
      <point x="31" y="560"/>
      <point x="18" y="578" type="qcurve"/>
      <point x="121" y="666" type="line"/>
      <point x="143" y="642"/>
      <point x="190" y="589"/>
    </contour>
    <contour>
      <point x="236" y="452" type="qcurve"/>
      <point x="196" y="439"/>
      <point x="188" y="397" type="qcurve"/>
      <point x="183" y="368"/>
      <point x="186" y="313"/>
      <point x="186" y="285" type="qcurve"/>
      <point x="186" y="260"/>
      <point x="215" y="222"/>
      <point x="241" y="217" type="qcurve"/>
      <point x="267" y="215"/>
      <point x="315" y="216"/>
      <point x="340" y="221" type="qcurve"/>
      <point x="344" y="221"/>
      <point x="350" y="223"/>
      <point x="355" y="223" type="qcurve"/>
      <point x="357" y="223" type="line"/>
      <point x="387" y="227"/>
      <point x="411" y="265"/>
      <point x="415" y="291" type="qcurve"/>
      <point x="418" y="305"/>
      <point x="421" y="334"/>
      <point x="423" y="348" type="qcurve"/>
      <point x="426" y="368"/>
      <point x="422" y="408"/>
      <point x="408" y="426" type="qcurve"/>
      <point x="396" y="443"/>
      <point x="379" y="448" type="qcurve"/>
      <point x="343" y="459"/>
      <point x="269" y="458"/>
    </contour>
  </outline>
</glyph>
<glyph name="yen" format="1">
  <advance width="530"/>
  <unicode hex="00A5"/>
  <outline>
    <contour>
      <point x="466" y="249" type="line"/>
      <point x="437" y="253"/>
      <point x="361" y="247"/>
      <point x="327" y="248" type="qcurve"/>
      <point x="316" y="243"/>
      <point x="309" y="214"/>
      <point x="301" y="203" type="qcurve"/>
      <point x="300" y="202" type="line"/>
      <point x="341" y="202"/>
      <point x="428" y="204"/>
      <point x="464" y="202" type="qcurve"/>
      <point x="464" y="193"/>
      <point x="464" y="168"/>
      <point x="464" y="143"/>
      <point x="464" y="120"/>
      <point x="466" y="111" type="qcurve"/>
      <point x="422" y="112"/>
      <point x="315" y="108"/>
      <point x="263" y="106" type="qcurve"/>
      <point x="250" y="83"/>
      <point x="231" y="27"/>
      <point x="220" y="1" type="qcurve"/>
      <point x="220" y="0" type="line"/>
      <point x="219" y="0" type="line"/>
      <point x="191" y="6"/>
      <point x="114" y="-2"/>
      <point x="79" y="1" type="qcurve"/>
      <point x="76" y="1" type="line"/>
      <point x="78" y="21"/>
      <point x="103" y="77"/>
      <point x="111" y="101" type="qcurve"/>
      <point x="103" y="104"/>
      <point x="81" y="104"/>
      <point x="58" y="104"/>
      <point x="36" y="105"/>
      <point x="27" y="110" type="qcurve"/>
      <point x="27" y="111" type="line"/>
      <point x="28" y="133"/>
      <point x="27" y="185"/>
      <point x="32" y="199" type="qcurve"/>
      <point x="63" y="197"/>
      <point x="123" y="202"/>
      <point x="148" y="201" type="qcurve"/>
      <point x="148" y="202" type="line"/>
      <point x="153" y="212"/>
      <point x="161" y="230"/>
      <point x="166" y="241" type="qcurve"/>
      <point x="166" y="243"/>
      <point x="167" y="244" type="qcurve"/>
      <point x="167" y="245" type="line"/>
      <point x="166" y="245" type="line"/>
      <point x="152" y="246"/>
      <point x="116" y="244"/>
      <point x="78" y="243"/>
      <point x="42" y="246"/>
      <point x="28" y="251" type="qcurve"/>
      <point x="25" y="273"/>
      <point x="28" y="311"/>
      <point x="28" y="336" type="qcurve"/>
      <point x="30" y="336" type="line"/>
      <point x="73" y="341"/>
      <point x="161" y="339"/>
      <point x="206" y="341" type="qcurve"/>
      <point x="206" y="342"/>
      <point x="205" y="342"/>
      <point x="205" y="343" type="qcurve"/>
      <point x="192" y="388"/>
      <point x="157" y="477"/>
      <point x="122" y="564"/>
      <point x="92" y="649"/>
      <point x="84" y="692" type="qcurve"/>
      <point x="120" y="688"/>
      <point x="191" y="696"/>
      <point x="228" y="692" type="qcurve"/>
      <point x="242" y="649"/>
      <point x="270" y="555"/>
      <point x="290" y="512" type="qcurve"/>
      <point x="310" y="548"/>
      <point x="352" y="641"/>
      <point x="369" y="683" type="qcurve"/>
      <point x="370" y="684"/>
      <point x="372" y="684"/>
      <point x="373" y="685" type="qcurve"/>
      <point x="387" y="687"/>
      <point x="426" y="690"/>
      <point x="467" y="691"/>
      <point x="502" y="691"/>
      <point x="513" y="689" type="qcurve"/>
      <point x="484" y="602"/>
      <point x="410" y="430"/>
      <point x="366" y="348" type="qcurve"/>
      <point x="372" y="343"/>
      <point x="399" y="342"/>
      <point x="429" y="343"/>
      <point x="456" y="343"/>
      <point x="463" y="339" type="qcurve"/>
      <point x="464" y="339" type="line"/>
      <point x="464" y="338" type="line"/>
      <point x="465" y="318"/>
      <point x="463" y="267"/>
      <point x="466" y="250" type="qcurve"/>
    </contour>
  </outline>
</glyph>
<glyph name="guillemotleft" format="1">
  <advance width="583"/>
  <unicode hex="00AB"/>
  <outline>
    <contour>
      <point x="50" y="222" type="qcurve"/>
      <point x="51" y="224"/>
      <point x="50" y="219"/>
    </contour>
    <contour>
      <point x="332" y="75" type="line"/>
      <point x="316" y="59" type="line"/>
      <point x="314" y="57"/>
      <point x="308" y="51"/>
      <point x="298" y="41"/>
      <point x="280" y="24"/>
      <point x="265" y="11" type="qcurve"/>
      <point x="264" y="12" type="line"/>
      <point x="234" y="43"/>
      <point x="169" y="100"/>
      <point x="105" y="160"/>
      <point x="41" y="224"/>
      <point x="13" y="262" type="qcurve"/>
      <point x="32" y="286"/>
      <point x="78" y="335"/>
      <point x="128" y="386"/>
      <point x="178" y="437"/>
      <point x="201" y="461" type="qcurve"/>
      <point x="216" y="477"/>
      <point x="244" y="506"/>
      <point x="258" y="520" type="qcurve"/>
      <point x="267" y="515"/>
      <point x="285" y="496"/>
      <point x="305" y="476"/>
      <point x="325" y="457"/>
      <point x="334" y="451" type="qcurve"/>
      <point x="319" y="432"/>
      <point x="275" y="386"/>
      <point x="226" y="335"/>
      <point x="177" y="283"/>
      <point x="158" y="259" type="qcurve"/>
      <point x="205" y="218"/>
      <point x="295" y="124"/>
      <point x="343" y="85" type="qcurve"/>
    </contour>
    <contour>
      <point x="553" y="75" type="line"/>
      <point x="537" y="59" type="line"/>
      <point x="535" y="57"/>
      <point x="529" y="51"/>
      <point x="519" y="41"/>
      <point x="501" y="24"/>
      <point x="486" y="11" type="qcurve"/>
      <point x="485" y="12" type="line"/>
      <point x="455" y="43"/>
      <point x="390" y="100"/>
      <point x="326" y="160"/>
      <point x="262" y="224"/>
      <point x="234" y="262" type="qcurve"/>
      <point x="253" y="286"/>
      <point x="299" y="335"/>
      <point x="349" y="386"/>
      <point x="399" y="437"/>
      <point x="422" y="461" type="qcurve"/>
      <point x="437" y="477"/>
      <point x="465" y="506"/>
      <point x="479" y="520" type="qcurve"/>
      <point x="488" y="515"/>
      <point x="506" y="496"/>
      <point x="526" y="476"/>
      <point x="546" y="457"/>
      <point x="555" y="451" type="qcurve"/>
      <point x="540" y="432"/>
      <point x="496" y="386"/>
      <point x="447" y="335"/>
      <point x="398" y="283"/>
      <point x="379" y="259" type="qcurve"/>
      <point x="426" y="218"/>
      <point x="516" y="124"/>
      <point x="564" y="85" type="qcurve"/>
    </contour>
  </outline>
</glyph>
<glyph name="logicalnot" format="1">
  <advance width="471"/>
  <unicode hex="00AC"/>
  <outline>
    <contour>
      <point x="376" y="251" type="line"/>
      <point x="376" y="254"/>
      <point x="376" y="288"/>
      <point x="375" y="336"/>
      <point x="375" y="390"/>
      <point x="375" y="412" type="qcurve"/>
      <point x="347" y="412"/>
      <point x="273" y="413"/>
      <point x="195" y="414"/>
      <point x="119" y="415"/>
      <point x="58" y="416"/>
      <point x="21" y="417"/>
      <point x="21" y="417" type="qcurve"/>
      <point x="21" y="418"/>
      <point x="21" y="431"/>
      <point x="20" y="448"/>
      <point x="20" y="466"/>
      <point x="20" y="472" type="qcurve"/>
      <point x="23" y="472"/>
      <point x="85" y="472"/>
      <point x="175" y="472"/>
      <point x="279" y="471"/>
      <point x="369" y="471"/>
      <point x="431" y="470"/>
      <point x="434" y="470" type="qcurve"/>
      <point x="434" y="469"/>
      <point x="433" y="468"/>
      <point x="433" y="467" type="qcurve"/>
      <point x="434" y="467" type="line"/>
      <point x="434" y="461"/>
      <point x="434" y="425"/>
      <point x="433" y="377"/>
      <point x="432" y="325"/>
      <point x="432" y="281"/>
      <point x="431" y="251"/>
      <point x="431" y="251" type="qcurve"/>
    </contour>
  </outline>
</glyph>
<glyph name="registered" format="1">
  <advance width="553"/>
  <unicode hex="00AE"/>
  <outline>
    <contour>
      <point x="503" y="237" type="qcurve"/>
      <point x="489" y="198"/>
      <point x="458" y="168" type="qcurve"/>
      <point x="438" y="148"/>
      <point x="390" y="127"/>
      <point x="336" y="118"/>
      <point x="281" y="115"/>
      <point x="255" y="113" type="qcurve"/>
      <point x="227" y="113"/>
      <point x="173" y="119"/>
      <point x="147" y="127" type="qcurve"/>
      <point x="103" y="147"/>
      <point x="50" y="205"/>
      <point x="45" y="247" type="qcurve"/>
      <point x="37" y="296"/>
      <point x="36" y="395"/>
      <point x="40" y="446" type="qcurve"/>
      <point x="44" y="493"/>
      <point x="77" y="532" type="qcurve"/>
      <point x="99" y="560"/>
      <point x="163" y="591"/>
      <point x="198" y="596" type="qcurve"/>
      <point x="239" y="598"/>
      <point x="321" y="601"/>
      <point x="361" y="593" type="qcurve"/>
      <point x="382" y="589"/>
      <point x="424" y="574"/>
      <point x="444" y="561" type="qcurve"/>
      <point x="447" y="559"/>
      <point x="453" y="555"/>
      <point x="456" y="553" type="qcurve"/>
      <point x="487" y="530"/>
      <point x="515" y="467"/>
      <point x="522" y="393"/>
      <point x="514" y="313"/>
      <point x="509" y="274" type="qcurve"/>
      <point x="507" y="265"/>
      <point x="506" y="246"/>
    </contour>
    <contour>
      <point x="428" y="482" type="qcurve"/>
      <point x="417" y="496"/>
      <point x="372" y="518"/>
      <point x="346" y="523" type="qcurve"/>
      <point x="272" y="532"/>
      <point x="198" y="523" type="qcurve"/>
      <point x="196" y="523"/>
      <point x="195" y="522"/>
      <point x="193" y="522" type="qcurve"/>
      <point x="159" y="516"/>
      <point x="117" y="470"/>
      <point x="113" y="441" type="qcurve"/>
      <point x="110" y="408" type="line"/>
      <point x="108" y="378"/>
      <point x="111" y="317"/>
      <point x="112" y="288" type="qcurve"/>
      <point x="113" y="259"/>
      <point x="131" y="210"/>
      <point x="163" y="197" type="qcurve"/>
      <point x="175" y="191"/>
      <point x="189" y="188" type="qcurve"/>
      <point x="226" y="183"/>
      <point x="306" y="189"/>
      <point x="346" y="192" type="qcurve"/>
      <point x="361" y="195" type="line"/>
      <point x="380" y="198"/>
      <point x="409" y="218"/>
      <point x="429" y="247"/>
      <point x="440" y="282"/>
      <point x="442" y="299" type="qcurve"/>
      <point x="444" y="325"/>
      <point x="447" y="379"/>
      <point x="446" y="406" type="qcurve"/>
      <point x="445" y="426"/>
      <point x="442" y="465"/>
    </contour>
    <contour>
      <point x="377" y="216" type="qcurve"/>
      <point x="363" y="216"/>
      <point x="329" y="213"/>
      <point x="312" y="214" type="qcurve"/>
      <point x="311" y="214" type="line"/>
      <point x="306" y="224"/>
      <point x="293" y="250"/>
      <point x="279" y="279"/>
      <point x="263" y="306"/>
      <point x="254" y="316" type="qcurve"/>
      <point x="253" y="318" type="line"/>
      <point x="251" y="309"/>
      <point x="251" y="281"/>
      <point x="253" y="253"/>
      <point x="255" y="227"/>
      <point x="255" y="219" type="qcurve"/>
      <point x="248" y="217"/>
      <point x="225" y="215"/>
      <point x="203" y="214"/>
      <point x="185" y="214"/>
      <point x="184" y="214" type="qcurve"/>
      <point x="185" y="214"/>
      <point x="186" y="252"/>
      <point x="186" y="311"/>
      <point x="185" y="381"/>
      <point x="184" y="444"/>
      <point x="183" y="491"/>
      <point x="182" y="498" type="qcurve"/>
      <point x="204" y="501"/>
      <point x="258" y="506"/>
      <point x="289" y="504" type="qcurve"/>
      <point x="313" y="502"/>
      <point x="350" y="477"/>
      <point x="371" y="440"/>
      <point x="372" y="394"/>
      <point x="360" y="373" type="qcurve"/>
      <point x="352" y="358"/>
      <point x="327" y="339"/>
      <point x="308" y="338" type="qcurve"/>
      <point x="306" y="338" type="line"/>
      <point x="305" y="338" type="line"/>
      <point x="305" y="337" type="line"/>
      <point x="323" y="308"/>
      <point x="365" y="249"/>
    </contour>
    <contour>
      <point x="241" y="442" type="qcurve"/>
      <point x="242" y="431"/>
      <point x="241" y="401"/>
      <point x="242" y="391" type="qcurve"/>
      <point x="243" y="391" type="line"/>
      <point x="254" y="390"/>
      <point x="274" y="389"/>
      <point x="283" y="391" type="qcurve"/>
      <point x="291" y="393"/>
      <point x="300" y="406"/>
      <point x="302" y="421"/>
      <point x="298" y="436"/>
      <point x="292" y="441" type="qcurve"/>
      <point x="281" y="449"/>
      <point x="255" y="447"/>
    </contour>
  </outline>
</glyph>
<glyph name="twosuperior" format="1">
  <advance width="264"/>
  <unicode hex="00B2"/>
  <outline>
    <contour>
      <point x="53" y="333" type="line"/>
      <point x="32" y="333" type="line"/>
      <point x="32" y="335" type="line"/>
      <point x="35" y="365"/>
      <point x="33" y="422"/>
      <point x="48" y="447" type="qcurve"/>
      <point x="71" y="472"/>
      <point x="122" y="497"/>
      <point x="145" y="516" type="qcurve"/>
      <point x="154" y="522"/>
      <point x="162" y="543"/>
      <point x="160" y="564"/>
      <point x="148" y="580"/>
      <point x="138" y="581" type="qcurve"/>
      <point x="126" y="581"/>
      <point x="113" y="570"/>
      <point x="106" y="553"/>
      <point x="103" y="534"/>
      <point x="103" y="526" type="qcurve"/>
      <point x="103" y="525" type="line"/>
      <point x="83" y="523"/>
      <point x="52" y="522"/>
      <point x="36" y="523" type="qcurve"/>
      <point x="36" y="524" type="line"/>
      <point x="30" y="554"/>
      <point x="42" y="610"/>
      <point x="59" y="629" type="qcurve"/>
      <point x="68" y="640"/>
      <point x="101" y="653"/>
      <point x="139" y="657"/>
      <point x="177" y="653"/>
      <point x="189" y="648" type="qcurve"/>
      <point x="209" y="638"/>
      <point x="231" y="596"/>
      <point x="233" y="572" type="qcurve"/>
      <point x="234" y="562"/>
      <point x="235" y="541"/>
      <point x="235" y="531" type="qcurve"/>
      <point x="233" y="506"/>
      <point x="204" y="477"/>
      <point x="167" y="458"/>
      <point x="129" y="440"/>
      <point x="117" y="425" type="qcurve"/>
      <point x="115" y="420"/>
      <point x="108" y="399"/>
      <point x="112" y="397" type="qcurve"/>
      <point x="143" y="397"/>
      <point x="194" y="398"/>
      <point x="224" y="398" type="qcurve"/>
      <point x="228" y="389"/>
      <point x="228" y="366"/>
      <point x="227" y="355" type="qcurve"/>
      <point x="227" y="350"/>
      <point x="226" y="341"/>
      <point x="228" y="336" type="qcurve"/>
      <point x="226" y="336" type="line"/>
    </contour>
  </outline>
</glyph>
<glyph name="threesuperior" format="1">
  <advance width="254"/>
  <unicode hex="00B3"/>
  <outline>
    <contour>
      <point x="47" y="351" type="qcurve"/>
      <point x="41" y="356"/>
      <point x="34" y="375"/>
      <point x="32" y="383" type="qcurve"/>
      <point x="30" y="393"/>
      <point x="30" y="417"/>
      <point x="28" y="431" type="qcurve"/>
      <point x="29" y="431" type="line"/>
      <point x="43" y="430"/>
      <point x="71" y="435"/>
      <point x="88" y="434" type="qcurve"/>
      <point x="89" y="434" type="line"/>
      <point x="92" y="426"/>
      <point x="106" y="412"/>
      <point x="124" y="405"/>
      <point x="143" y="408"/>
      <point x="150" y="417" type="qcurve"/>
      <point x="155" y="426"/>
      <point x="152" y="450"/>
      <point x="143" y="456" type="qcurve"/>
      <point x="133" y="464"/>
      <point x="104" y="465"/>
      <point x="93" y="462" type="qcurve"/>
      <point x="87" y="474"/>
      <point x="92" y="513"/>
      <point x="90" y="526" type="qcurve"/>
      <point x="98" y="529"/>
      <point x="121" y="528"/>
      <point x="141" y="531"/>
      <point x="154" y="542"/>
      <point x="154" y="556" type="qcurve"/>
      <point x="154" y="571"/>
      <point x="135" y="582"/>
      <point x="113" y="578"/>
      <point x="91" y="563"/>
      <point x="88" y="553" type="qcurve"/>
      <point x="84" y="553"/>
      <point x="65" y="552"/>
      <point x="45" y="552"/>
      <point x="29" y="552"/>
      <point x="28" y="552" type="qcurve"/>
      <point x="28" y="553" type="line"/>
      <point x="28" y="562"/>
      <point x="26" y="586"/>
      <point x="30" y="596" type="qcurve"/>
      <point x="38" y="623"/>
      <point x="89" y="651"/>
      <point x="149" y="654"/>
      <point x="204" y="635"/>
      <point x="216" y="614" type="qcurve"/>
      <point x="221" y="607"/>
      <point x="223" y="590"/>
      <point x="222" y="582" type="qcurve"/>
      <point x="223" y="543"/>
      <point x="223" y="468"/>
      <point x="221" y="432" type="qcurve"/>
      <point x="219" y="418"/>
      <point x="219" y="391"/>
      <point x="213" y="378" type="qcurve"/>
      <point x="201" y="348"/>
      <point x="169" y="337" type="qcurve"/>
      <point x="152" y="332"/>
      <point x="110" y="331"/>
      <point x="93" y="333" type="qcurve"/>
      <point x="87" y="334"/>
      <point x="74" y="338"/>
      <point x="69" y="340" type="qcurve"/>
      <point x="59" y="342"/>
      <point x="49" y="350"/>
    </contour>
  </outline>
</glyph>
<glyph name="acute" format="1">
  <advance width="255"/>
  <unicode hex="00B4"/>
  <outline>
    <contour>
      <point x="242" y="622" type="line"/>
      <point x="241" y="621" type="line"/>
      <point x="234" y="614"/>
      <point x="204" y="588"/>
      <point x="172" y="559"/>
      <point x="144" y="533"/>
      <point x="140" y="525" type="qcurve"/>
      <point x="124" y="523"/>
      <point x="83" y="522"/>
      <point x="44" y="524"/>
      <point x="13" y="527"/>
      <point x="6" y="529" type="qcurve"/>
      <point x="23" y="545"/>
      <point x="66" y="590"/>
      <point x="111" y="637"/>
      <point x="155" y="678"/>
      <point x="173" y="692" type="qcurve"/>
    </contour>
  </outline>
</glyph>
<glyph name="paragraph" format="1">
  <advance width="672"/>
  <unicode hex="00B6"/>
  <outline>
    <contour>
      <point x="557" y="730" type="line"/>
      <point x="652" y="728" type="line"/>
      <point x="652" y="722"/>
      <point x="653" y="689"/>
      <point x="654" y="648"/>
      <point x="655" y="606"/>
      <point x="655" y="591" type="qcurve"/>
      <point x="652" y="586"/>
      <point x="632" y="582"/>
      <point x="605" y="581"/>
      <point x="572" y="583"/>
      <point x="555" y="584" type="qcurve"/>
      <point x="554" y="524"/>
      <point x="552" y="379"/>
      <point x="549" y="226"/>
      <point x="548" y="75"/>
      <point x="547" y="-58"/>
      <point x="548" y="-166"/>
      <point x="550" y="-198" type="qcurve"/>
      <point x="545" y="-204"/>
      <point x="505" y="-205"/>
      <point x="458" y="-204"/>
      <point x="416" y="-202"/>
      <point x="409" y="-204" type="qcurve"/>
      <point x="415" y="-127"/>
      <point x="418" y="69"/>
      <point x="418" y="279"/>
      <point x="419" y="491"/>
      <point x="422" y="585" type="qcurve"/>
      <point x="345" y="586" type="line"/>
      <point x="344" y="526"/>
      <point x="342" y="382"/>
      <point x="340" y="229"/>
      <point x="339" y="78"/>
      <point x="339" y="-57"/>
      <point x="340" y="-165"/>
      <point x="342" y="-198" type="qcurve"/>
      <point x="337" y="-204"/>
      <point x="297" y="-205"/>
      <point x="250" y="-204"/>
      <point x="208" y="-202"/>
      <point x="201" y="-204" type="qcurve"/>
      <point x="205" y="-157"/>
      <point x="208" y="-32"/>
      <point x="210" y="108"/>
      <point x="209" y="253"/>
      <point x="208" y="320" type="qcurve"/>
      <point x="169" y="314"/>
      <point x="116" y="318"/>
      <point x="78" y="341"/>
      <point x="47" y="382"/>
      <point x="31" y="412" type="qcurve"/>
      <point x="18" y="471"/>
      <point x="20" y="582"/>
      <point x="28" y="645" type="qcurve"/>
      <point x="40" y="694"/>
      <point x="77" y="711" type="qcurve"/>
      <point x="90" y="717"/>
      <point x="123" y="723"/>
      <point x="160" y="726"/>
      <point x="200" y="726"/>
      <point x="219" y="727" type="qcurve"/>
      <point x="395" y="728" type="line"/>
    </contour>
  </outline>
</glyph>
<glyph name="periodcentered" format="1">
  <advance width="164"/>
  <unicode hex="00B7"/>
  <outline>
    <contour>
      <point x="126" y="392" type="line"/>
      <point x="126" y="386"/>
      <point x="127" y="355"/>
      <point x="128" y="318"/>
      <point x="129" y="279"/>
      <point x="129" y="264" type="qcurve"/>
      <point x="125" y="258"/>
      <point x="111" y="254"/>
      <point x="89" y="254"/>
      <point x="59" y="256"/>
      <point x="40" y="255" type="qcurve"/>
      <point x="40" y="284"/>
      <point x="35" y="347"/>
      <point x="36" y="393" type="qcurve"/>
    </contour>
  </outline>
</glyph>
<glyph name="cedilla" format="1">
  <advance width="190"/>
  <unicode hex="00B8"/>
  <outline>
    <contour>
      <point x="174" y="-6" type="line"/>
      <point x="173" y="-6" type="line"/>
      <point x="171" y="-14"/>
      <point x="158" y="-52"/>
      <point x="143" y="-97"/>
      <point x="129" y="-138"/>
      <point x="126" y="-147" type="qcurve"/>
      <point x="126" y="-148" type="line"/>
      <point x="118" y="-148"/>
      <point x="82" y="-148"/>
      <point x="45" y="-148"/>
      <point x="17" y="-148"/>
      <point x="17" y="-147" type="qcurve"/>
      <point x="32" y="-105"/>
      <point x="47" y="-65"/>
      <point x="54" y="-42"/>
      <point x="60" y="-22"/>
      <point x="68" y="0" type="qcurve"/>
      <point x="73" y="-1"/>
      <point x="77" y="-2" type="qcurve"/>
      <point x="87" y="-4"/>
      <point x="87" y="-4" type="qcurve"/>
    </contour>
  </outline>
</glyph>
<glyph name="ordmasculine" format="1">
  <advance width="254"/>
  <unicode hex="00BA"/>
  <outline>
    <contour>
      <point x="50" y="606" type="qcurve"/>
      <point x="52" y="610"/>
      <point x="54" y="611" type="qcurve"/>
      <point x="68" y="627"/>
      <point x="100" y="646"/>
      <point x="123" y="647" type="qcurve"/>
      <point x="145" y="648"/>
      <point x="180" y="632"/>
      <point x="206" y="605"/>
      <point x="222" y="569"/>
      <point x="225" y="551" type="qcurve"/>
      <point x="227" y="537"/>
      <point x="229" y="511"/>
      <point x="228" y="498" type="qcurve"/>
      <point x="230" y="472"/>
      <point x="220" y="413"/>
      <point x="195" y="364"/>
      <point x="152" y="333"/>
      <point x="121" y="335" type="qcurve"/>
      <point x="107" y="335"/>
      <point x="90" y="340" type="qcurve"/>
      <point x="68" y="349"/>
      <point x="43" y="377"/>
      <point x="31" y="413"/>
      <point x="28" y="452"/>
      <point x="28" y="472" type="qcurve"/>
      <point x="26" y="506"/>
      <point x="30" y="576"/>
    </contour>
    <contour>
      <point x="116" y="408" type="qcurve"/>
      <point x="125" y="404"/>
      <point x="132" y="407" type="qcurve"/>
      <point x="140" y="410"/>
      <point x="148" y="422"/>
      <point x="150" y="428" type="qcurve"/>
      <point x="153" y="439"/>
      <point x="154" y="460"/>
      <point x="155" y="471" type="qcurve"/>
      <point x="156" y="483"/>
      <point x="156" y="510"/>
      <point x="154" y="537"/>
      <point x="148" y="561"/>
      <point x="143" y="568" type="qcurve"/>
      <point x="133" y="581"/>
      <point x="116" y="575" type="qcurve"/>
      <point x="111" y="574"/>
      <point x="103" y="567"/>
      <point x="101" y="563" type="qcurve"/>
      <point x="99" y="560"/>
      <point x="96" y="542"/>
      <point x="95" y="531" type="qcurve"/>
      <point x="92" y="503"/>
      <point x="92" y="458"/>
      <point x="98" y="435" type="qcurve"/>
      <point x="101" y="427"/>
      <point x="106" y="410"/>
    </contour>
  </outline>
</glyph>
<glyph name="guillemotright" format="1">
  <advance width="583"/>
  <unicode hex="00BB"/>
  <outline>
    <contour>
      <point x="240" y="85" type="line"/>
      <point x="288" y="124"/>
      <point x="378" y="218"/>
      <point x="425" y="259" type="qcurve"/>
      <point x="405" y="283"/>
      <point x="357" y="335"/>
      <point x="308" y="386"/>
      <point x="264" y="432"/>
      <point x="249" y="451" type="qcurve"/>
      <point x="258" y="457"/>
      <point x="278" y="476"/>
      <point x="297" y="496"/>
      <point x="316" y="515"/>
      <point x="325" y="520" type="qcurve"/>
      <point x="339" y="506"/>
      <point x="367" y="477"/>
      <point x="382" y="461" type="qcurve"/>
      <point x="405" y="437"/>
      <point x="455" y="386"/>
      <point x="505" y="335"/>
      <point x="551" y="286"/>
      <point x="570" y="262" type="qcurve"/>
      <point x="541" y="224"/>
      <point x="478" y="160"/>
      <point x="414" y="100"/>
      <point x="349" y="43"/>
      <point x="319" y="12" type="qcurve"/>
      <point x="318" y="11" type="line"/>
      <point x="303" y="24"/>
      <point x="285" y="41"/>
      <point x="274" y="51"/>
      <point x="269" y="57"/>
      <point x="267" y="59" type="qcurve"/>
      <point x="251" y="75" type="line"/>
    </contour>
    <contour>
      <point x="19" y="85" type="line"/>
      <point x="67" y="124"/>
      <point x="157" y="218"/>
      <point x="204" y="259" type="qcurve"/>
      <point x="184" y="283"/>
      <point x="136" y="335"/>
      <point x="87" y="386"/>
      <point x="43" y="432"/>
      <point x="28" y="451" type="qcurve"/>
      <point x="37" y="457"/>
      <point x="57" y="476"/>
      <point x="76" y="496"/>
      <point x="95" y="515"/>
      <point x="104" y="520" type="qcurve"/>
      <point x="118" y="506"/>
      <point x="146" y="477"/>
      <point x="161" y="461" type="qcurve"/>
      <point x="184" y="437"/>
      <point x="234" y="386"/>
      <point x="284" y="335"/>
      <point x="330" y="286"/>
      <point x="349" y="262" type="qcurve"/>
      <point x="320" y="224"/>
      <point x="257" y="160"/>
      <point x="193" y="100"/>
      <point x="128" y="43"/>
      <point x="98" y="12" type="qcurve"/>
      <point x="97" y="11" type="line"/>
      <point x="82" y="24"/>
      <point x="64" y="41"/>
      <point x="53" y="51"/>
      <point x="48" y="57"/>
      <point x="46" y="59" type="qcurve"/>
      <point x="30" y="75" type="line"/>
    </contour>
  </outline>
</glyph>
<glyph name="onequarter" format="1">
  <advance width="595"/>
  <unicode hex="00BC"/>
  <outline>
    <contour>
      <point x="216" y="8" type="qcurve"/>
      <point x="215" y="7"/>
      <point x="214" y="5" type="qcurve"/>
      <point x="212" y="1" type="line"/>
      <point x="208" y="0"/>
      <point x="183" y="0"/>
      <point x="155" y="1"/>
      <point x="129" y="2"/>
      <point x="125" y="1" type="qcurve"/>
      <point x="155" y="92"/>
      <point x="219" y="270"/>
      <point x="283" y="445"/>
      <point x="341" y="620"/>
      <point x="365" y="709" type="qcurve"/>
      <point x="371" y="707"/>
      <point x="397" y="708"/>
      <point x="426" y="710"/>
      <point x="452" y="709"/>
      <point x="457" y="705" type="qcurve"/>
      <point x="457" y="704" type="line"/>
      <point x="397" y="527"/>
      <point x="280" y="173"/>
    </contour>
    <contour>
      <point x="572" y="104" type="line"/>
      <point x="571" y="104" type="line"/>
      <point x="564" y="102"/>
      <point x="552" y="104"/>
      <point x="545" y="102" type="qcurve"/>
      <point x="544" y="102" type="line"/>
      <point x="544" y="102"/>
      <point x="542" y="75"/>
      <point x="539" y="40"/>
      <point x="536" y="9"/>
      <point x="536" y="6" type="qcurve"/>
      <point x="533" y="3"/>
      <point x="496" y="3"/>
      <point x="461" y="3" type="qcurve"/>
      <point x="461" y="4"/>
      <point x="461" y="36"/>
      <point x="461" y="75"/>
      <point x="462" y="108"/>
      <point x="462" y="110" type="qcurve"/>
      <point x="459" y="111"/>
      <point x="427" y="111"/>
      <point x="390" y="111"/>
      <point x="360" y="111"/>
      <point x="359" y="112" type="qcurve"/>
      <point x="359" y="113" type="line"/>
      <point x="358" y="116"/>
      <point x="353" y="156"/>
      <point x="354" y="185" type="qcurve"/>
      <point x="354" y="186" type="line"/>
      <point x="355" y="187"/>
      <point x="357" y="190" type="qcurve"/>
      <point x="360" y="195"/>
      <point x="374" y="217"/>
      <point x="399" y="256"/>
      <point x="437" y="314"/>
      <point x="464" y="355" type="qcurve"/>
      <point x="466" y="355"/>
      <point x="489" y="356"/>
      <point x="516" y="356"/>
      <point x="540" y="356"/>
      <point x="544" y="356" type="qcurve"/>
      <point x="545" y="356" type="line"/>
      <point x="545" y="356"/>
      <point x="545" y="332"/>
      <point x="545" y="295"/>
      <point x="545" y="252"/>
      <point x="545" y="214"/>
      <point x="546" y="185"/>
      <point x="547" y="182" type="qcurve"/>
      <point x="554" y="184"/>
      <point x="569" y="180"/>
      <point x="575" y="180" type="qcurve"/>
    </contour>
    <contour>
      <point x="482" y="252" type="line"/>
      <point x="482" y="256"/>
      <point x="466" y="236"/>
      <point x="447" y="208"/>
      <point x="430" y="182"/>
      <point x="429" y="181" type="qcurve"/>
      <point x="429" y="181"/>
      <point x="442" y="180"/>
      <point x="459" y="180"/>
      <point x="476" y="181"/>
      <point x="479" y="181" type="qcurve"/>
      <point x="480" y="181" type="line"/>
      <point x="480" y="182" type="line"/>
    </contour>
    <contour>
      <point x="170" y="312" type="qcurve"/>
      <point x="170" y="307"/>
      <point x="149" y="303"/>
      <point x="139" y="303" type="qcurve"/>
      <point x="127" y="303"/>
      <point x="102" y="306"/>
      <point x="91" y="306" type="qcurve"/>
      <point x="91" y="307" type="line"/>
      <point x="91" y="355" type="line"/>
      <point x="91" y="403"/>
      <point x="97" y="497"/>
      <point x="97" y="545" type="qcurve"/>
      <point x="97" y="551"/>
      <point x="96" y="555" type="qcurve"/>
      <point x="94" y="555"/>
      <point x="90" y="547"/>
      <point x="85" y="536"/>
      <point x="79" y="527"/>
      <point x="75" y="527" type="qcurve"/>
      <point x="73" y="527"/>
      <point x="53" y="531"/>
      <point x="32" y="537"/>
      <point x="15" y="543"/>
      <point x="15" y="545" type="qcurve"/>
      <point x="16" y="554"/>
      <point x="34" y="589"/>
      <point x="55" y="626"/>
      <point x="73" y="654"/>
      <point x="75" y="656" type="qcurve"/>
      <point x="86" y="656"/>
      <point x="109" y="657"/>
      <point x="120" y="657" type="qcurve"/>
      <point x="133" y="657"/>
      <point x="159" y="656"/>
      <point x="172" y="655" type="qcurve"/>
      <point x="174" y="634"/>
      <point x="174" y="592"/>
      <point x="174" y="572" type="qcurve"/>
      <point x="174" y="515"/>
      <point x="169" y="404"/>
      <point x="169" y="347" type="qcurve"/>
      <point x="169" y="338"/>
      <point x="169" y="321"/>
    </contour>
  </outline>
</glyph>
<glyph name="questiondown" format="1">
  <advance width="450"/>
  <unicode hex="00BF"/>
  <outline>
    <contour>
      <point x="306" y="379" type="line"/>
      <point x="301" y="347"/>
      <point x="286" y="288"/>
      <point x="267" y="260" type="qcurve"/>
      <point x="260" y="246"/>
      <point x="233" y="211"/>
      <point x="206" y="173"/>
      <point x="184" y="135"/>
      <point x="177" y="101"/>
      <point x="193" y="73"/>
      <point x="217" y="65" type="qcurve"/>
      <point x="239" y="55"/>
      <point x="265" y="66"/>
      <point x="283" y="89"/>
      <point x="299" y="115"/>
      <point x="312" y="120" type="qcurve"/>
      <point x="343" y="123"/>
      <point x="404" y="119"/>
      <point x="434" y="118" type="qcurve"/>
      <point x="434" y="117" type="line"/>
      <point x="432" y="79"/>
      <point x="402" y="6"/>
      <point x="350" y="-52"/>
      <point x="280" y="-89"/>
      <point x="237" y="-91" type="qcurve"/>
      <point x="191" y="-96"/>
      <point x="108" y="-69"/>
      <point x="47" y="-15"/>
      <point x="15" y="61"/>
      <point x="20" y="105" type="qcurve"/>
      <point x="24" y="137"/>
      <point x="50" y="189"/>
      <point x="67" y="211" type="qcurve"/>
      <point x="83" y="233"/>
      <point x="112" y="260"/>
      <point x="127" y="280" type="qcurve"/>
      <point x="148" y="309"/>
      <point x="169" y="367"/>
      <point x="176" y="402" type="qcurve"/>
      <point x="178" y="410"/>
      <point x="182" y="428"/>
      <point x="180" y="436" type="qcurve"/>
      <point x="180" y="437" type="line"/>
      <point x="211" y="441"/>
      <point x="272" y="437"/>
      <point x="303" y="439" type="qcurve"/>
      <point x="304" y="439" type="line"/>
      <point x="308" y="435"/>
      <point x="308" y="422"/>
      <point x="308" y="417" type="qcurve"/>
    </contour>
    <contour>
      <point x="304" y="615" type="line"/>
      <point x="307" y="615" type="line"/>
      <point x="309" y="604"/>
      <point x="310" y="570"/>
      <point x="309" y="536"/>
      <point x="308" y="506"/>
      <point x="308" y="499" type="qcurve"/>
      <point x="297" y="495"/>
      <point x="261" y="491"/>
      <point x="223" y="491"/>
      <point x="190" y="494"/>
      <point x="183" y="497" type="qcurve"/>
      <point x="183" y="498"/>
      <point x="185" y="529"/>
      <point x="187" y="569"/>
      <point x="189" y="606"/>
      <point x="189" y="614" type="qcurve"/>
      <point x="189" y="615" type="line"/>
      <point x="189" y="616" type="line"/>
      <point x="191" y="616" type="line"/>
    </contour>
  </outline>
</glyph>
<glyph name="AE" format="1">
  <advance width="716"/>
  <unicode hex="00C6"/>
  <outline>
    <contour>
      <point x="698" y="134" type="line"/>
      <point x="703" y="67"/>
      <point x="692" y="6" type="qcurve"/>
      <point x="690" y="4" type="line"/>
      <point x="587" y="4"/>
      <point x="377" y="-1"/>
      <point x="280" y="5" type="qcurve"/>
      <point x="273" y="34"/>
      <point x="257" y="87"/>
      <point x="252" y="115" type="qcurve"/>
      <point x="252" y="116" type="line"/>
      <point x="239" y="116"/>
      <point x="231" y="117"/>
      <point x="223" y="117"/>
      <point x="205" y="118"/>
      <point x="183" y="118" type="qcurve"/>
      <point x="181" y="118" type="line"/>
      <point x="181" y="118"/>
      <point x="180" y="116" type="qcurve"/>
      <point x="172" y="88"/>
      <point x="154" y="30"/>
      <point x="148" y="3" type="qcurve"/>
      <point x="147" y="2"/>
      <point x="146" y="2"/>
      <point x="145" y="1" type="qcurve"/>
      <point x="112" y="1"/>
      <point x="44" y="4"/>
      <point x="8" y="0" type="qcurve"/>
      <point x="6" y="0"/>
      <point x="4" y="-1"/>
      <point x="2" y="-1" type="qcurve"/>
      <point x="12" y="55"/>
      <point x="22" y="120"/>
      <point x="29" y="162"/>
      <point x="34" y="192"/>
      <point x="43" y="232"/>
      <point x="58" y="296"/>
      <point x="84" y="404"/>
      <point x="124" y="570"/>
      <point x="153" y="693" type="qcurve"/>
      <point x="198" y="695"/>
      <point x="311" y="698"/>
      <point x="429" y="700"/>
      <point x="542" y="701"/>
      <point x="632" y="702"/>
      <point x="690" y="701"/>
      <point x="695" y="701" type="qcurve"/>
      <point x="695" y="700" type="line"/>
      <point x="695" y="699" type="line"/>
      <point x="699" y="664"/>
      <point x="695" y="592"/>
      <point x="695" y="557" type="qcurve"/>
      <point x="695" y="555" type="line"/>
      <point x="663" y="548"/>
      <point x="596" y="546"/>
      <point x="528" y="547"/>
      <point x="461" y="547"/>
      <point x="428" y="542" type="qcurve"/>
      <point x="429" y="528"/>
      <point x="426" y="498"/>
      <point x="424" y="467"/>
      <point x="426" y="438"/>
      <point x="431" y="425" type="qcurve"/>
      <point x="459" y="420"/>
      <point x="523" y="424"/>
      <point x="552" y="419" type="qcurve"/>
      <point x="559" y="387"/>
      <point x="554" y="315"/>
      <point x="554" y="280" type="qcurve"/>
      <point x="539" y="277"/>
      <point x="501" y="276"/>
      <point x="465" y="276"/>
      <point x="437" y="274"/>
      <point x="433" y="270" type="qcurve"/>
      <point x="432" y="255"/>
      <point x="430" y="218"/>
      <point x="430" y="183"/>
      <point x="434" y="153"/>
      <point x="439" y="143" type="qcurve"/>
      <point x="440" y="143" type="line"/>
      <point x="506" y="140"/>
      <point x="638" y="142"/>
      <point x="698" y="137" type="qcurve"/>
    </contour>
    <contour>
      <point x="254" y="287" type="qcurve"/>
      <point x="249" y="319"/>
      <point x="227" y="386"/>
      <point x="219" y="418" type="qcurve"/>
      <point x="218" y="421" type="line"/>
      <point x="209" y="396"/>
      <point x="199" y="364"/>
      <point x="192" y="336"/>
      <point x="188" y="306"/>
      <point x="186" y="284" type="qcurve"/>
      <point x="187" y="284" type="line"/>
      <point x="188" y="284" type="line"/>
      <point x="195" y="286"/>
      <point x="214" y="284"/>
      <point x="232" y="282"/>
      <point x="249" y="283"/>
    </contour>
  </outline>
</glyph>
<glyph name="Ccedilla" format="1">
  <advance width="476"/>
  <unicode hex="00C7"/>
  <outline>
    <contour>
      <point x="38" y="524" type="qcurve"/>
      <point x="38" y="531"/>
      <point x="39" y="535" type="qcurve"/>
      <point x="43" y="576"/>
      <point x="72" y="650"/>
      <point x="103" y="676" type="qcurve"/>
      <point x="123" y="689"/>
      <point x="174" y="694"/>
      <point x="197" y="693" type="qcurve"/>
      <point x="232" y="694"/>
      <point x="300" y="690"/>
      <point x="331" y="679" type="qcurve"/>
      <point x="368" y="664"/>
      <point x="422" y="604"/>
      <point x="453" y="529"/>
      <point x="459" y="446"/>
      <point x="447" y="408" type="qcurve"/>
      <point x="446" y="408"/>
      <point x="445" y="407"/>
      <point x="444" y="407" type="qcurve"/>
      <point x="410" y="399"/>
      <point x="347" y="404"/>
      <point x="312" y="409" type="qcurve"/>
      <point x="310" y="409" type="line"/>
      <point x="304" y="424"/>
      <point x="302" y="465"/>
      <point x="296" y="504"/>
      <point x="278" y="534"/>
      <point x="256" y="539" type="qcurve"/>
      <point x="253" y="540"/>
      <point x="246" y="540" type="qcurve"/>
      <point x="218" y="542"/>
      <point x="182" y="506"/>
      <point x="180" y="480" type="qcurve"/>
      <point x="177" y="414"/>
      <point x="176" y="283"/>
      <point x="182" y="218" type="qcurve"/>
      <point x="187" y="194"/>
      <point x="211" y="153"/>
      <point x="235" y="146" type="qcurve"/>
      <point x="256" y="144"/>
      <point x="294" y="160"/>
      <point x="304" y="180" type="qcurve"/>
      <point x="314" y="201"/>
      <point x="313" y="251"/>
      <point x="316" y="274" type="qcurve"/>
      <point x="328" y="274"/>
      <point x="361" y="276"/>
      <point x="397" y="276"/>
      <point x="432" y="274"/>
      <point x="446" y="270" type="qcurve"/>
      <point x="461" y="223"/>
      <point x="450" y="126"/>
      <point x="404" y="46"/>
      <point x="326" y="-7"/>
      <point x="274" y="-10" type="qcurve"/>
      <point x="272" y="-10" type="line"/>
      <point x="271" y="-9" type="line"/>
      <point x="266" y="-31"/>
      <point x="249" y="-99"/>
      <point x="241" y="-125" type="qcurve"/>
      <point x="241" y="-127" type="line"/>
      <point x="218" y="-125"/>
      <point x="170" y="-131"/>
      <point x="152" y="-128" type="qcurve"/>
      <point x="151" y="-128"/>
      <point x="151" y="-125" type="qcurve"/>
      <point x="151" y="-120"/>
      <point x="157" y="-93"/>
      <point x="166" y="-60"/>
      <point x="175" y="-24"/>
      <point x="177" y="-10" type="qcurve"/>
      <point x="177" y="-7" type="line"/>
      <point x="136" y="-12"/>
      <point x="83" y="19"/>
      <point x="51" y="75"/>
      <point x="36" y="148"/>
      <point x="35" y="184" type="qcurve"/>
      <point x="35" y="194" type="line"/>
      <point x="33" y="271"/>
      <point x="33" y="442"/>
    </contour>
  </outline>
</glyph>
<glyph name="Egrave" format="1">
  <advance width="481"/>
  <unicode hex="00C8"/>
  <outline>
    <contour>
      <point x="180" y="917" type="line"/>
      <point x="198" y="903"/>
      <point x="242" y="862"/>
      <point x="287" y="815"/>
      <point x="330" y="770"/>
      <point x="347" y="754" type="qcurve"/>
      <point x="340" y="752"/>
      <point x="308" y="749"/>
      <point x="269" y="747"/>
      <point x="229" y="748"/>
      <point x="213" y="750" type="qcurve"/>
      <point x="208" y="758"/>
      <point x="181" y="784"/>
      <point x="149" y="813"/>
      <point x="119" y="839"/>
      <point x="112" y="846" type="qcurve"/>
      <point x="111" y="847" type="line"/>
    </contour>
    <contour>
      <point x="463" y="134" type="line"/>
      <point x="465" y="102"/>
      <point x="463" y="33"/>
      <point x="455" y="3" type="qcurve"/>
      <point x="353" y="4"/>
      <point x="142" y="-3"/>
      <point x="45" y="5" type="qcurve"/>
      <point x="45" y="92"/>
      <point x="41" y="263"/>
      <point x="39" y="433"/>
      <point x="41" y="603"/>
      <point x="46" y="689" type="qcurve"/>
      <point x="85" y="691"/>
      <point x="176" y="694"/>
      <point x="268" y="696"/>
      <point x="354" y="698"/>
      <point x="420" y="698"/>
      <point x="460" y="696"/>
      <point x="460" y="695" type="qcurve"/>
      <point x="465" y="660"/>
      <point x="460" y="588"/>
      <point x="460" y="553" type="qcurve"/>
      <point x="460" y="552" type="line"/>
      <point x="428" y="545"/>
      <point x="363" y="542"/>
      <point x="297" y="543"/>
      <point x="231" y="543"/>
      <point x="198" y="540" type="qcurve"/>
      <point x="195" y="540" type="line"/>
      <point x="194" y="539" type="line"/>
      <point x="195" y="510"/>
      <point x="188" y="449"/>
      <point x="195" y="422" type="qcurve"/>
      <point x="196" y="421" type="line"/>
      <point x="226" y="419"/>
      <point x="288" y="419"/>
      <point x="319" y="418" type="qcurve"/>
      <point x="319" y="417" type="line"/>
      <point x="324" y="383"/>
      <point x="320" y="315"/>
      <point x="321" y="278" type="qcurve"/>
      <point x="306" y="274"/>
      <point x="268" y="273"/>
      <point x="233" y="273"/>
      <point x="205" y="271"/>
      <point x="200" y="267" type="qcurve"/>
      <point x="195" y="238"/>
      <point x="198" y="166"/>
      <point x="200" y="142" type="qcurve"/>
      <point x="201" y="141" type="line"/>
      <point x="267" y="141"/>
      <point x="395" y="134"/>
      <point x="463" y="136" type="qcurve"/>
    </contour>
  </outline>
</glyph>
<glyph name="Edieresis" format="1">
  <advance width="481"/>
  <unicode hex="00CB"/>
  <outline>
    <contour>
      <point x="463" y="134" type="line"/>
      <point x="465" y="102"/>
      <point x="463" y="33"/>
      <point x="455" y="3" type="qcurve"/>
      <point x="353" y="4"/>
      <point x="142" y="-3"/>
      <point x="45" y="5" type="qcurve"/>
      <point x="45" y="92"/>
      <point x="41" y="263"/>
      <point x="39" y="433"/>
      <point x="41" y="603"/>
      <point x="46" y="689" type="qcurve"/>
      <point x="85" y="691"/>
      <point x="176" y="694"/>
      <point x="268" y="696"/>
      <point x="354" y="698"/>
      <point x="420" y="698"/>
      <point x="460" y="696"/>
      <point x="460" y="695" type="qcurve"/>
      <point x="465" y="660"/>
      <point x="460" y="588"/>
      <point x="460" y="553" type="qcurve"/>
      <point x="460" y="552" type="line"/>
      <point x="428" y="545"/>
      <point x="363" y="542"/>
      <point x="297" y="543"/>
      <point x="231" y="543"/>
      <point x="198" y="540" type="qcurve"/>
      <point x="195" y="540" type="line"/>
      <point x="194" y="539" type="line"/>
      <point x="195" y="510"/>
      <point x="188" y="449"/>
      <point x="195" y="422" type="qcurve"/>
      <point x="196" y="421" type="line"/>
      <point x="226" y="419"/>
      <point x="288" y="419"/>
      <point x="319" y="418" type="qcurve"/>
      <point x="319" y="417" type="line"/>
      <point x="324" y="383"/>
      <point x="320" y="315"/>
      <point x="321" y="278" type="qcurve"/>
      <point x="306" y="274"/>
      <point x="268" y="273"/>
      <point x="233" y="273"/>
      <point x="205" y="271"/>
      <point x="200" y="267" type="qcurve"/>
      <point x="195" y="238"/>
      <point x="198" y="166"/>
      <point x="200" y="142" type="qcurve"/>
      <point x="201" y="141" type="line"/>
      <point x="267" y="141"/>
      <point x="395" y="134"/>
      <point x="463" y="136" type="qcurve"/>
    </contour>
    <contour>
      <point x="111" y="759" type="line"/>
      <point x="108" y="759" type="line"/>
      <point x="106" y="769"/>
      <point x="105" y="798"/>
      <point x="106" y="828"/>
      <point x="107" y="854"/>
      <point x="107" y="860" type="qcurve"/>
      <point x="116" y="863"/>
      <point x="147" y="867"/>
      <point x="180" y="867"/>
      <point x="209" y="864"/>
      <point x="216" y="861" type="qcurve"/>
      <point x="216" y="860"/>
      <point x="214" y="834"/>
      <point x="212" y="799"/>
      <point x="210" y="767"/>
      <point x="210" y="760" type="qcurve"/>
      <point x="210" y="759" type="line"/>
      <point x="210" y="758" type="line"/>
      <point x="208" y="758" type="line"/>
    </contour>
    <contour>
      <point x="285" y="759" type="line"/>
      <point x="282" y="759" type="line"/>
      <point x="280" y="769"/>
      <point x="279" y="798"/>
      <point x="280" y="828"/>
      <point x="281" y="854"/>
      <point x="281" y="860" type="qcurve"/>
      <point x="290" y="863"/>
      <point x="321" y="867"/>
      <point x="354" y="867"/>
      <point x="383" y="864"/>
      <point x="390" y="861" type="qcurve"/>
      <point x="390" y="860"/>
      <point x="388" y="834"/>
      <point x="386" y="799"/>
      <point x="384" y="767"/>
      <point x="384" y="760" type="qcurve"/>
      <point x="384" y="759" type="line"/>
      <point x="384" y="758" type="line"/>
      <point x="382" y="758" type="line"/>
    </contour>
  </outline>
</glyph>
<glyph name="Igrave" format="1">
  <advance width="260"/>
  <unicode hex="00CC"/>
  <outline>
    <contour>
      <point x="53" y="917" type="line"/>
      <point x="71" y="903"/>
      <point x="115" y="862"/>
      <point x="160" y="815"/>
      <point x="203" y="770"/>
      <point x="220" y="754" type="qcurve"/>
      <point x="213" y="752"/>
      <point x="181" y="749"/>
      <point x="142" y="747"/>
      <point x="102" y="748"/>
      <point x="86" y="750" type="qcurve"/>
      <point x="81" y="758"/>
      <point x="54" y="784"/>
      <point x="22" y="813"/>
      <point x="-8" y="839"/>
      <point x="-15" y="846" type="qcurve"/>
      <point x="-16" y="847" type="line"/>
    </contour>
    <contour>
      <point x="222" y="703" type="line"/>
      <point x="222" y="699" type="line"/>
      <point x="222" y="613"/>
      <point x="217" y="439"/>
      <point x="214" y="264"/>
      <point x="216" y="90"/>
      <point x="221" y="5" type="qcurve"/>
      <point x="213" y="-3"/>
      <point x="162" y="-6"/>
      <point x="103" y="-4"/>
      <point x="49" y="-1"/>
      <point x="39" y="-4" type="qcurve"/>
      <point x="46" y="86"/>
      <point x="44" y="268"/>
      <point x="39" y="447"/>
      <point x="38" y="622"/>
      <point x="47" y="706" type="qcurve"/>
      <point x="47" y="708" type="line"/>
      <point x="52" y="709"/>
      <point x="81" y="706"/>
      <point x="88" y="706" type="qcurve"/>
      <point x="106" y="705"/>
      <point x="153" y="702"/>
      <point x="198" y="703" type="qcurve"/>
    </contour>
  </outline>
</glyph>
<glyph name="Iacute" format="1">
  <advance width="259"/>
  <unicode hex="00CD"/>
  <outline>
    <contour>
      <point x="222" y="703" type="line"/>
      <point x="222" y="699" type="line"/>
      <point x="222" y="613"/>
      <point x="217" y="439"/>
      <point x="214" y="264"/>
      <point x="216" y="90"/>
      <point x="221" y="5" type="qcurve"/>
      <point x="213" y="-3"/>
      <point x="162" y="-6"/>
      <point x="103" y="-4"/>
      <point x="49" y="-1"/>
      <point x="39" y="-4" type="qcurve"/>
      <point x="46" y="86"/>
      <point x="44" y="268"/>
      <point x="39" y="447"/>
      <point x="38" y="622"/>
      <point x="47" y="706" type="qcurve"/>
      <point x="47" y="708" type="line"/>
      <point x="52" y="709"/>
      <point x="81" y="706"/>
      <point x="88" y="706" type="qcurve"/>
      <point x="106" y="705"/>
      <point x="153" y="702"/>
      <point x="198" y="703" type="qcurve"/>
    </contour>
    <contour>
      <point x="295" y="847" type="line"/>
      <point x="294" y="846" type="line"/>
      <point x="287" y="839"/>
      <point x="257" y="813"/>
      <point x="225" y="784"/>
      <point x="197" y="758"/>
      <point x="193" y="750" type="qcurve"/>
      <point x="177" y="748"/>
      <point x="136" y="747"/>
      <point x="97" y="749"/>
      <point x="66" y="752"/>
      <point x="59" y="754" type="qcurve"/>
      <point x="76" y="770"/>
      <point x="119" y="815"/>
      <point x="164" y="862"/>
      <point x="208" y="903"/>
      <point x="226" y="917" type="qcurve"/>
    </contour>
  </outline>
</glyph>
<glyph name="Icircumflex" format="1">
  <advance width="260"/>
  <unicode hex="00CE"/>
  <outline>
    <contour>
      <point x="307" y="756" type="line"/>
      <point x="306" y="757"/>
      <point x="288" y="754"/>
      <point x="257" y="750"/>
      <point x="216" y="748"/>
      <point x="192" y="751" type="qcurve"/>
      <point x="189" y="751"/>
      <point x="175" y="764"/>
      <point x="160" y="781"/>
      <point x="146" y="797"/>
      <point x="141" y="800" type="qcurve"/>
      <point x="137" y="798"/>
      <point x="123" y="783"/>
      <point x="107" y="766"/>
      <point x="93" y="752"/>
      <point x="89" y="751" type="qcurve"/>
      <point x="80" y="750"/>
      <point x="69" y="750"/>
      <point x="50" y="751"/>
      <point x="15" y="753"/>
      <point x="-18" y="755" type="qcurve"/>
      <point x="16" y="801"/>
      <point x="100" y="877"/>
      <point x="144" y="918" type="qcurve"/>
    </contour>
    <contour>
      <point x="222" y="703" type="line"/>
      <point x="222" y="699" type="line"/>
      <point x="222" y="613"/>
      <point x="217" y="439"/>
      <point x="214" y="264"/>
      <point x="216" y="90"/>
      <point x="221" y="5" type="qcurve"/>
      <point x="213" y="-3"/>
      <point x="162" y="-6"/>
      <point x="103" y="-4"/>
      <point x="49" y="-1"/>
      <point x="39" y="-4" type="qcurve"/>
      <point x="46" y="86"/>
      <point x="44" y="268"/>
      <point x="39" y="447"/>
      <point x="38" y="622"/>
      <point x="47" y="706" type="qcurve"/>
      <point x="47" y="708" type="line"/>
      <point x="52" y="709"/>
      <point x="81" y="706"/>
      <point x="88" y="706" type="qcurve"/>
      <point x="106" y="705"/>
      <point x="153" y="702"/>
      <point x="198" y="703" type="qcurve"/>
    </contour>
  </outline>
</glyph>
<glyph name="Idieresis" format="1">
  <advance width="260"/>
  <unicode hex="00CF"/>
  <outline>
    <contour>
      <point x="222" y="703" type="line"/>
      <point x="222" y="699" type="line"/>
      <point x="222" y="613"/>
      <point x="217" y="439"/>
      <point x="214" y="264"/>
      <point x="216" y="90"/>
      <point x="221" y="5" type="qcurve"/>
      <point x="213" y="-3"/>
      <point x="162" y="-6"/>
      <point x="103" y="-4"/>
      <point x="49" y="-1"/>
      <point x="39" y="-4" type="qcurve"/>
      <point x="46" y="86"/>
      <point x="44" y="268"/>
      <point x="39" y="447"/>
      <point x="38" y="622"/>
      <point x="47" y="706" type="qcurve"/>
      <point x="47" y="708" type="line"/>
      <point x="52" y="709"/>
      <point x="81" y="706"/>
      <point x="88" y="706" type="qcurve"/>
      <point x="106" y="705"/>
      <point x="153" y="702"/>
      <point x="198" y="703" type="qcurve"/>
    </contour>
    <contour>
      <point x="5" y="759" type="line"/>
      <point x="2" y="759" type="line"/>
      <point x="0" y="769"/>
      <point x="-1" y="798"/>
      <point x="0" y="828"/>
      <point x="1" y="854"/>
      <point x="1" y="860" type="qcurve"/>
      <point x="10" y="863"/>
      <point x="41" y="867"/>
      <point x="74" y="867"/>
      <point x="103" y="864"/>
      <point x="110" y="861" type="qcurve"/>
      <point x="110" y="860"/>
      <point x="108" y="834"/>
      <point x="106" y="799"/>
      <point x="104" y="767"/>
      <point x="104" y="760" type="qcurve"/>
      <point x="104" y="759" type="line"/>
      <point x="104" y="758" type="line"/>
      <point x="102" y="758" type="line"/>
    </contour>
    <contour>
      <point x="179" y="759" type="line"/>
      <point x="176" y="759" type="line"/>
      <point x="174" y="769"/>
      <point x="173" y="798"/>
      <point x="174" y="828"/>
      <point x="175" y="854"/>
      <point x="175" y="860" type="qcurve"/>
      <point x="184" y="863"/>
      <point x="215" y="867"/>
      <point x="248" y="867"/>
      <point x="277" y="864"/>
      <point x="284" y="861" type="qcurve"/>
      <point x="284" y="860"/>
      <point x="282" y="834"/>
      <point x="280" y="799"/>
      <point x="278" y="767"/>
      <point x="278" y="760" type="qcurve"/>
      <point x="278" y="759" type="line"/>
      <point x="278" y="758" type="line"/>
      <point x="276" y="758" type="line"/>
    </contour>
  </outline>
</glyph>
<glyph name="Eth" format="1">
  <advance width="482"/>
  <unicode hex="00D0"/>
  <outline>
    <contour>
      <point x="52" y="409" type="line"/>
      <point x="53" y="478"/>
      <point x="53" y="614"/>
      <point x="51" y="687" type="qcurve"/>
      <point x="94" y="693"/>
      <point x="190" y="707"/>
      <point x="283" y="702"/>
      <point x="365" y="664"/>
      <point x="392" y="618" type="qcurve"/>
      <point x="406" y="595"/>
      <point x="427" y="550"/>
      <point x="434" y="524" type="qcurve"/>
      <point x="442" y="497"/>
      <point x="456" y="437"/>
      <point x="458" y="408" type="qcurve"/>
      <point x="463" y="361"/>
      <point x="457" y="265"/>
      <point x="446" y="219" type="qcurve"/>
      <point x="432" y="157"/>
      <point x="399" y="78"/>
      <point x="366" y="31"/>
      <point x="333" y="11"/>
      <point x="319" y="8" type="qcurve"/>
      <point x="287" y="2"/>
      <point x="220" y="-1"/>
      <point x="152" y="1"/>
      <point x="87" y="5"/>
      <point x="56" y="4" type="qcurve"/>
      <point x="54" y="76"/>
      <point x="52" y="208"/>
      <point x="52" y="271" type="qcurve"/>
      <point x="38" y="272"/>
      <point x="11" y="272"/>
      <point x="-1" y="272" type="qcurve"/>
      <point x="-1" y="301"/>
      <point x="-6" y="364"/>
      <point x="-5" y="410" type="qcurve"/>
    </contour>
    <contour>
      <point x="306" y="205" type="qcurve"/>
      <point x="314" y="218"/>
      <point x="325" y="259"/>
      <point x="331" y="308"/>
      <point x="332" y="358"/>
      <point x="329" y="380" type="qcurve"/>
      <point x="326" y="399"/>
      <point x="320" y="440"/>
      <point x="307" y="479"/>
      <point x="286" y="513"/>
      <point x="268" y="525" type="qcurve"/>
      <point x="258" y="531"/>
      <point x="230" y="535"/>
      <point x="201" y="533"/>
      <point x="175" y="527"/>
      <point x="167" y="524" type="qcurve"/>
      <point x="169" y="504"/>
      <point x="169" y="441"/>
      <point x="168" y="406" type="qcurve"/>
      <point x="227" y="405" type="line"/>
      <point x="227" y="399"/>
      <point x="228" y="368"/>
      <point x="229" y="331"/>
      <point x="230" y="292"/>
      <point x="230" y="277" type="qcurve"/>
      <point x="167" y="278" type="line"/>
      <point x="167" y="249"/>
      <point x="167" y="193"/>
      <point x="169" y="173" type="qcurve"/>
      <point x="169" y="168"/>
      <point x="189" y="164"/>
      <point x="213" y="164"/>
      <point x="235" y="166"/>
      <point x="238" y="166" type="qcurve"/>
      <point x="261" y="168"/>
      <point x="293" y="186"/>
    </contour>
  </outline>
</glyph>
<glyph name="Ocircumflex" format="1">
  <advance width="484"/>
  <unicode hex="00D4"/>
  <outline>
    <contour>
      <point x="410" y="756" type="line"/>
      <point x="409" y="757"/>
      <point x="391" y="754"/>
      <point x="360" y="750"/>
      <point x="319" y="748"/>
      <point x="295" y="751" type="qcurve"/>
      <point x="292" y="751"/>
      <point x="278" y="764"/>
      <point x="263" y="781"/>
      <point x="249" y="797"/>
      <point x="244" y="800" type="qcurve"/>
      <point x="240" y="798"/>
      <point x="226" y="783"/>
      <point x="210" y="766"/>
      <point x="196" y="752"/>
      <point x="192" y="751" type="qcurve"/>
      <point x="183" y="750"/>
      <point x="172" y="750"/>
      <point x="153" y="751"/>
      <point x="118" y="753"/>
      <point x="85" y="755" type="qcurve"/>
      <point x="119" y="801"/>
      <point x="203" y="877"/>
      <point x="247" y="918" type="qcurve"/>
    </contour>
    <contour>
      <point x="437" y="597" type="qcurve"/>
      <point x="444" y="582"/>
      <point x="451" y="551"/>
      <point x="453" y="535" type="qcurve"/>
      <point x="455" y="510"/>
      <point x="456" y="461"/>
      <point x="455" y="436" type="qcurve"/>
      <point x="452" y="383"/>
      <point x="454" y="283"/>
      <point x="450" y="231" type="qcurve"/>
      <point x="447" y="198" type="line"/>
      <point x="445" y="163"/>
      <point x="427" y="92"/>
      <point x="409" y="63" type="qcurve"/>
      <point x="392" y="39"/>
      <point x="337" y="10"/>
      <point x="306" y="2" type="qcurve"/>
      <point x="278" y="-6"/>
      <point x="221" y="-10"/>
      <point x="192" y="-8" type="qcurve"/>
      <point x="171" y="-6"/>
      <point x="132" y="1"/>
      <point x="97" y="17"/>
      <point x="69" y="42"/>
      <point x="60" y="62" type="qcurve"/>
      <point x="46" y="87"/>
      <point x="37" y="144"/>
      <point x="36" y="173" type="qcurve"/>
      <point x="33" y="251"/>
      <point x="26" y="408"/>
      <point x="31" y="487" type="qcurve"/>
      <point x="32" y="532"/>
      <point x="53" y="623"/>
      <point x="84" y="658" type="qcurve"/>
      <point x="94" y="668"/>
      <point x="107" y="676" type="qcurve"/>
      <point x="140" y="692"/>
      <point x="217" y="707"/>
      <point x="294" y="703"/>
      <point x="367" y="680"/>
      <point x="396" y="658" type="qcurve"/>
      <point x="425" y="632"/>
    </contour>
    <contour>
      <point x="328" y="421" type="line"/>
      <point x="328" y="422"/>
      <point x="325" y="461"/>
      <point x="324" y="478" type="qcurve"/>
      <point x="322" y="506"/>
      <point x="295" y="552"/>
      <point x="272" y="563" type="qcurve"/>
      <point x="252" y="571"/>
      <point x="210" y="561"/>
      <point x="194" y="549" type="qcurve"/>
      <point x="159" y="522"/>
      <point x="147" y="480" type="qcurve"/>
      <point x="139" y="442"/>
      <point x="136" y="358"/>
      <point x="138" y="316" type="qcurve"/>
      <point x="143" y="281"/>
      <point x="147" y="208"/>
      <point x="157" y="175" type="qcurve"/>
      <point x="167" y="155"/>
      <point x="205" y="133"/>
      <point x="249" y="130"/>
      <point x="293" y="145"/>
      <point x="308" y="162" type="qcurve"/>
      <point x="317" y="174"/>
      <point x="325" y="189"/>
      <point x="327" y="207"/>
      <point x="326" y="232"/>
      <point x="328" y="253" type="qcurve"/>
      <point x="329" y="273"/>
      <point x="330" y="303"/>
      <point x="330" y="305" type="qcurve"/>
      <point x="330" y="353" type="line"/>
    </contour>
  </outline>
</glyph>
<glyph name="Odieresis" format="1">
  <advance width="484"/>
  <unicode hex="00D6"/>
  <outline>
    <contour>
      <point x="437" y="597" type="qcurve"/>
      <point x="444" y="582"/>
      <point x="451" y="551"/>
      <point x="453" y="535" type="qcurve"/>
      <point x="455" y="510"/>
      <point x="456" y="461"/>
      <point x="455" y="436" type="qcurve"/>
      <point x="452" y="383"/>
      <point x="454" y="283"/>
      <point x="450" y="231" type="qcurve"/>
      <point x="447" y="198" type="line"/>
      <point x="445" y="163"/>
      <point x="427" y="92"/>
      <point x="409" y="63" type="qcurve"/>
      <point x="392" y="39"/>
      <point x="337" y="10"/>
      <point x="306" y="2" type="qcurve"/>
      <point x="278" y="-6"/>
      <point x="221" y="-10"/>
      <point x="192" y="-8" type="qcurve"/>
      <point x="171" y="-6"/>
      <point x="132" y="1"/>
      <point x="97" y="17"/>
      <point x="69" y="42"/>
      <point x="60" y="62" type="qcurve"/>
      <point x="46" y="87"/>
      <point x="37" y="144"/>
      <point x="36" y="173" type="qcurve"/>
      <point x="33" y="251"/>
      <point x="26" y="408"/>
      <point x="31" y="487" type="qcurve"/>
      <point x="32" y="532"/>
      <point x="53" y="623"/>
      <point x="84" y="658" type="qcurve"/>
      <point x="94" y="668"/>
      <point x="107" y="676" type="qcurve"/>
      <point x="140" y="692"/>
      <point x="217" y="707"/>
      <point x="294" y="703"/>
      <point x="367" y="680"/>
      <point x="396" y="658" type="qcurve"/>
      <point x="425" y="632"/>
    </contour>
    <contour>
      <point x="328" y="421" type="line"/>
      <point x="328" y="422"/>
      <point x="325" y="461"/>
      <point x="324" y="478" type="qcurve"/>
      <point x="322" y="506"/>
      <point x="295" y="552"/>
      <point x="272" y="563" type="qcurve"/>
      <point x="252" y="571"/>
      <point x="210" y="561"/>
      <point x="194" y="549" type="qcurve"/>
      <point x="159" y="522"/>
      <point x="147" y="480" type="qcurve"/>
      <point x="139" y="442"/>
      <point x="136" y="358"/>
      <point x="138" y="316" type="qcurve"/>
      <point x="143" y="281"/>
      <point x="147" y="208"/>
      <point x="157" y="175" type="qcurve"/>
      <point x="167" y="155"/>
      <point x="205" y="133"/>
      <point x="249" y="130"/>
      <point x="293" y="145"/>
      <point x="308" y="162" type="qcurve"/>
      <point x="317" y="174"/>
      <point x="325" y="189"/>
      <point x="327" y="207"/>
      <point x="326" y="232"/>
      <point x="328" y="253" type="qcurve"/>
      <point x="329" y="273"/>
      <point x="330" y="303"/>
      <point x="330" y="305" type="qcurve"/>
      <point x="330" y="353" type="line"/>
    </contour>
    <contour>
      <point x="109" y="759" type="line"/>
      <point x="106" y="759" type="line"/>
      <point x="104" y="769"/>
      <point x="103" y="798"/>
      <point x="104" y="828"/>
      <point x="105" y="854"/>
      <point x="105" y="860" type="qcurve"/>
      <point x="114" y="863"/>
      <point x="145" y="867"/>
      <point x="178" y="867"/>
      <point x="207" y="864"/>
      <point x="214" y="861" type="qcurve"/>
      <point x="214" y="860"/>
      <point x="212" y="834"/>
      <point x="210" y="799"/>
      <point x="208" y="767"/>
      <point x="208" y="760" type="qcurve"/>
      <point x="208" y="759" type="line"/>
      <point x="208" y="758" type="line"/>
      <point x="206" y="758" type="line"/>
    </contour>
    <contour>
      <point x="283" y="759" type="line"/>
      <point x="280" y="759" type="line"/>
      <point x="278" y="769"/>
      <point x="277" y="798"/>
      <point x="278" y="828"/>
      <point x="279" y="854"/>
      <point x="279" y="860" type="qcurve"/>
      <point x="288" y="863"/>
      <point x="319" y="867"/>
      <point x="352" y="867"/>
      <point x="381" y="864"/>
      <point x="388" y="861" type="qcurve"/>
      <point x="388" y="860"/>
      <point x="386" y="834"/>
      <point x="384" y="799"/>
      <point x="382" y="767"/>
      <point x="382" y="760" type="qcurve"/>
      <point x="382" y="759" type="line"/>
      <point x="382" y="758" type="line"/>
      <point x="380" y="758" type="line"/>
    </contour>
  </outline>
</glyph>
<glyph name="multiply" format="1">
  <advance width="735"/>
  <unicode hex="00D7"/>
  <outline>
    <contour>
      <point x="688" y="724" type="line"/>
      <point x="688" y="679"/>
      <point x="687" y="563"/>
      <point x="687" y="435"/>
      <point x="687" y="300"/>
      <point x="688" y="172"/>
      <point x="691" y="57"/>
      <point x="693" y="13" type="qcurve"/>
      <point x="691" y="10"/>
      <point x="692" y="2"/>
      <point x="668" y="-3"/>
      <point x="600" y="-7"/>
      <point x="458" y="-7"/>
      <point x="224" y="-3"/>
      <point x="46" y="2" type="qcurve"/>
      <point x="51" y="98"/>
      <point x="51" y="277"/>
      <point x="46" y="452"/>
      <point x="41" y="630"/>
      <point x="41" y="726" type="qcurve"/>
    </contour>
    <contour>
      <point x="255" y="372" type="qcurve"/>
      <point x="246" y="400"/>
      <point x="233" y="450"/>
      <point x="213" y="510"/>
      <point x="178" y="587"/>
      <point x="148" y="643" type="qcurve"/>
      <point x="147" y="585"/>
      <point x="146" y="444"/>
      <point x="145" y="299"/>
      <point x="145" y="158"/>
      <point x="145" y="101" type="qcurve"/>
      <point x="177" y="168"/>
      <point x="211" y="250"/>
      <point x="230" y="304"/>
      <point x="243" y="345"/>
    </contour>
    <contour>
      <point x="465" y="370" type="qcurve"/>
      <point x="469" y="342"/>
      <point x="500" y="274"/>
      <point x="537" y="204"/>
      <point x="574" y="135"/>
      <point x="585" y="107" type="qcurve"/>
      <point x="587" y="166"/>
      <point x="588" y="305"/>
      <point x="587" y="447"/>
      <point x="585" y="583"/>
      <point x="585" y="638" type="qcurve"/>
      <point x="574" y="611"/>
      <point x="537" y="541"/>
      <point x="499" y="467"/>
      <point x="469" y="396"/>
    </contour>
    <contour>
      <point x="357" y="410" type="qcurve"/>
      <point x="362" y="424"/>
      <point x="387" y="474"/>
      <point x="417" y="537"/>
      <point x="448" y="607"/>
      <point x="459" y="641" type="qcurve"/>
      <point x="442" y="641"/>
      <point x="390" y="640"/>
      <point x="336" y="640"/>
      <point x="284" y="640"/>
      <point x="267" y="640" type="qcurve"/>
      <point x="276" y="608"/>
      <point x="303" y="538"/>
      <point x="330" y="473"/>
      <point x="353" y="422"/>
    </contour>
    <contour>
      <point x="356" y="328" type="line"/>
      <point x="349" y="310"/>
      <point x="323" y="251"/>
      <point x="293" y="185"/>
      <point x="266" y="120"/>
      <point x="259" y="97" type="qcurve"/>
      <point x="283" y="95"/>
      <point x="346" y="95"/>
      <point x="406" y="98"/>
      <point x="454" y="101"/>
      <point x="463" y="103" type="qcurve"/>
    </contour>
  </outline>
</glyph>
<glyph name="Oslash" format="1">
  <advance width="479"/>
  <unicode hex="00D8"/>
  <outline>
    <contour>
      <point x="451" y="434" type="qcurve"/>
      <point x="450" y="357"/>
      <point x="448" y="206"/>
      <point x="434" y="131" type="qcurve"/>
      <point x="422" y="77"/>
      <point x="345" y="8"/>
      <point x="290" y="3" type="qcurve"/>
      <point x="262" y="0"/>
      <point x="204" y="1"/>
      <point x="180" y="-2" type="qcurve"/>
      <point x="179" y="-2" type="line"/>
      <point x="178" y="-2" type="line"/>
      <point x="178" y="-3"/>
      <point x="173" y="-11"/>
      <point x="165" y="-17" type="qcurve"/>
      <point x="164" y="-18" type="line"/>
      <point x="165" y="-18" type="line"/>
      <point x="155" y="-20"/>
      <point x="123" y="-21"/>
      <point x="86" y="-21"/>
      <point x="48" y="-20"/>
      <point x="33" y="-21" type="qcurve"/>
      <point x="31" y="-18"/>
      <point x="37" y="5"/>
      <point x="46" y="33"/>
      <point x="56" y="59"/>
      <point x="59" y="67" type="qcurve"/>
      <point x="59" y="68"/>
      <point x="60" y="68"/>
      <point x="60" y="69" type="qcurve"/>
      <point x="60" y="70"/>
      <point x="59" y="70"/>
      <point x="59" y="71" type="qcurve"/>
      <point x="34" y="169"/>
      <point x="27" y="365"/>
      <point x="33" y="465" type="qcurve"/>
      <point x="35" y="483"/>
      <point x="36" y="520"/>
      <point x="39" y="557"/>
      <point x="46" y="592"/>
      <point x="55" y="609" type="qcurve"/>
      <point x="71" y="644"/>
      <point x="95" y="668" type="qcurve"/>
      <point x="98" y="671" type="line"/>
      <point x="116" y="685"/>
      <point x="160" y="700"/>
      <point x="208" y="705"/>
      <point x="256" y="703"/>
      <point x="278" y="701" type="qcurve"/>
      <point x="280" y="702"/>
      <point x="281" y="709"/>
      <point x="282" y="717"/>
      <point x="284" y="723"/>
      <point x="288" y="723" type="qcurve"/>
      <point x="289" y="723" type="line"/>
      <point x="305" y="721"/>
      <point x="344" y="722"/>
      <point x="383" y="724"/>
      <point x="415" y="722"/>
      <point x="424" y="716" type="qcurve"/>
      <point x="423" y="696"/>
      <point x="404" y="662"/>
      <point x="406" y="645" type="qcurve"/>
      <point x="425" y="623"/>
      <point x="445" y="572"/>
      <point x="453" y="518"/>
      <point x="453" y="461"/>
    </contour>
    <contour>
      <point x="141" y="279" type="qcurve"/>
      <point x="161" y="343"/>
      <point x="212" y="491"/>
      <point x="234" y="562" type="qcurve"/>
      <point x="234" y="563" type="line"/>
      <point x="233" y="563" type="line"/>
      <point x="226" y="563" type="line"/>
      <point x="206" y="561"/>
      <point x="166" y="530"/>
      <point x="158" y="510" type="qcurve"/>
      <point x="153" y="478"/>
      <point x="151" y="415"/>
      <point x="146" y="383" type="qcurve"/>
      <point x="145" y="377"/>
      <point x="144" y="366"/>
      <point x="143" y="360" type="qcurve"/>
      <point x="142" y="351"/>
      <point x="140" y="328"/>
      <point x="138" y="305"/>
      <point x="139" y="285"/>
    </contour>
    <contour>
      <point x="322" y="395" type="line"/>
      <point x="312" y="368"/>
      <point x="289" y="302"/>
      <point x="265" y="232"/>
      <point x="240" y="162"/>
      <point x="229" y="131" type="qcurve"/>
      <point x="230" y="131"/>
      <point x="230" y="130"/>
      <point x="231" y="130" type="qcurve"/>
      <point x="241" y="132"/>
      <point x="268" y="141"/>
      <point x="293" y="155"/>
      <point x="314" y="174"/>
      <point x="318" y="187" type="qcurve"/>
      <point x="326" y="220"/>
      <point x="329" y="280"/>
      <point x="326" y="332"/>
      <point x="322" y="374"/>
      <point x="322" y="391" type="qcurve"/>
    </contour>
  </outline>
</glyph>
